<svg width="303" height="38" viewBox="0 0 303 38" fill="none" xmlns="http://www.w3.org/2000/svg">
<g clip-path="url(#clip0_1_672)">
<path d="M77.2342 27.36V26.9127H72.9805V26.735H77.2342V26.5944C77.2342 26.5573 77.3815 26.5244 77.6761 26.4957C77.9707 26.4671 78.4127 26.4423 79.0019 26.4215C79.5912 26.4007 80.2771 26.3852 81.0597 26.3751C81.8423 26.365 82.7216 26.36 83.6976 26.36C84.4894 26.36 85.2075 26.3606 85.852 26.3619C86.4965 26.3632 87.0674 26.3652 87.5645 26.3678V26.526H84.9129C84.4157 26.526 83.9968 26.528 83.6561 26.5319C83.3155 26.5358 83.0531 26.5416 82.8689 26.5494C82.7216 26.5559 82.6111 26.5644 82.5375 26.5748C82.4638 26.5852 82.427 26.5976 82.427 26.6119V26.735H87.1226L86.4597 26.9127H82.427V27.36H77.2342Z" fill="#9AA5B3"/>
</g>
<g clip-path="url(#clip1_1_672)">
<path d="M147.265 26.5494C146.86 26.5703 146.413 26.5896 145.925 26.6075C145.437 26.6254 144.908 26.6419 144.337 26.6569C144.355 26.6595 144.369 26.6629 144.378 26.6671C144.388 26.6713 144.392 26.6764 144.392 26.6823C144.392 26.7291 144.231 26.7752 143.909 26.8204C143.586 26.8657 143.103 26.9101 142.459 26.9537C141.796 27 140.999 27.0415 140.069 27.0782C139.139 27.115 138.076 27.1471 136.879 27.1744C136.216 27.1901 135.535 27.2034 134.835 27.2145C134.135 27.2262 133.413 27.2358 132.667 27.2433C131.921 27.2508 131.143 27.2565 130.333 27.2604C129.541 27.2643 128.722 27.2662 127.875 27.2662C127.064 27.2662 126.273 27.2643 125.499 27.2604C124.726 27.2565 123.966 27.2508 123.22 27.2433C122.475 27.2358 121.752 27.2262 121.052 27.2145C120.334 27.2034 119.643 27.1901 118.98 27.1744C119.183 27.1751 119.399 27.1756 119.63 27.1759C119.86 27.1762 120.104 27.1764 120.362 27.1764C121.706 27.1764 122.981 27.1691 124.187 27.1544C125.393 27.1398 126.53 27.1178 127.598 27.0885C126.954 27.0885 126.351 27.0852 125.789 27.0787C125.227 27.0722 124.698 27.0621 124.201 27.0485C123.722 27.0354 123.312 27.0205 122.972 27.0035C122.631 26.9866 122.369 26.9681 122.185 26.9479C122.369 26.9485 122.548 26.949 122.723 26.9493C122.898 26.9497 123.068 26.9498 123.234 26.9498C123.492 26.9498 123.75 26.9493 124.008 26.9484C124.265 26.9474 124.523 26.9459 124.781 26.944C124.118 26.9388 123.51 26.9301 122.958 26.9181C122.406 26.906 121.908 26.8906 121.466 26.8717C121.024 26.8528 120.693 26.8326 120.472 26.8112C120.251 26.7897 120.141 26.7669 120.141 26.7428V26.7389C120.546 26.7474 120.965 26.7539 121.397 26.7584C121.83 26.763 122.277 26.7656 122.737 26.7662C122.35 26.7565 122 26.7454 121.687 26.733C121.374 26.7207 121.098 26.707 120.859 26.692C120.619 26.677 120.44 26.6613 120.32 26.6447C120.2 26.6281 120.141 26.611 120.141 26.5934C120.141 26.5758 120.21 26.5584 120.348 26.5411C120.486 26.5239 120.693 26.5071 120.969 26.4908C121.687 26.5227 122.484 26.5514 123.358 26.5768C124.233 26.6022 125.195 26.6243 126.245 26.6432C127.276 26.6621 128.349 26.6767 129.463 26.6871C130.577 26.6976 131.723 26.7037 132.902 26.7057C132.865 26.6979 132.837 26.6901 132.819 26.6823C132.8 26.6744 132.791 26.6666 132.791 26.6588C132.791 26.6406 132.856 26.623 132.984 26.6061C133.113 26.5892 133.307 26.5726 133.565 26.5563C133.822 26.5406 134.126 26.5265 134.476 26.5138C134.826 26.5011 135.222 26.4902 135.664 26.4811C136.106 26.472 136.566 26.4651 137.045 26.4606C137.524 26.456 138.021 26.4537 138.536 26.4537C138.96 26.4537 139.365 26.4552 139.752 26.4581C140.138 26.4611 140.516 26.4655 140.884 26.4713C141.234 26.4772 141.57 26.484 141.892 26.4918C142.215 26.4996 142.514 26.5084 142.79 26.5182C143.453 26.5136 144.093 26.5073 144.71 26.4991C145.327 26.491 145.92 26.4811 146.491 26.4694C146.27 26.4934 145.948 26.5149 145.525 26.5338C145.101 26.5527 144.576 26.569 143.95 26.5826C144.503 26.58 145.055 26.576 145.607 26.5704C146.16 26.5649 146.712 26.5579 147.265 26.5494Z" fill="#9AA5B3"/>
</g>
<g clip-path="url(#clip2_1_672)">
<path d="M168.378 26.6012C167.918 26.6012 167.489 26.5983 167.094 26.5924C166.698 26.5865 166.334 26.5774 166.002 26.5651C165.653 26.5533 165.395 26.5405 165.229 26.5265C165.063 26.5125 164.98 26.497 164.98 26.4801C164.98 26.4638 165.063 26.4487 165.229 26.4347C165.395 26.4207 165.653 26.4078 166.002 26.3961C166.334 26.3837 166.698 26.3746 167.094 26.3688C167.489 26.3629 167.918 26.36 168.378 26.36C168.857 26.36 169.294 26.3629 169.69 26.3688C170.086 26.3746 170.449 26.3837 170.781 26.3961C171.131 26.4078 171.389 26.4207 171.554 26.4347C171.72 26.4487 171.803 26.4638 171.803 26.4801C171.803 26.497 171.72 26.5125 171.554 26.5265C171.389 26.5405 171.131 26.5533 170.781 26.5651C170.449 26.5774 170.086 26.5865 169.69 26.5924C169.294 26.5983 168.857 26.6012 168.378 26.6012ZM171.306 27.36H165.422V26.693H171.306V27.36ZM193.265 27.36H187.381V27.0338C187.381 27.0071 187.354 26.9842 187.299 26.965C187.243 26.9458 187.151 26.93 187.022 26.9176C186.783 26.8981 186.438 26.8833 185.987 26.8732C185.535 26.8631 184.969 26.858 184.288 26.858C183.625 26.858 183.054 26.8624 182.575 26.8712C182.097 26.88 181.728 26.8935 181.47 26.9117C181.249 26.9248 181.088 26.9412 180.987 26.9611C180.886 26.9809 180.835 27.0039 180.835 27.0299V27.36H175.007V26.693H180.642V26.7838H180.697C180.918 26.7688 181.194 26.7553 181.526 26.7433C181.857 26.7312 182.253 26.7203 182.713 26.7106C183.229 26.6989 183.781 26.6899 184.371 26.6837C184.96 26.6775 185.586 26.6744 186.249 26.6744C187.63 26.6744 188.799 26.6821 189.757 26.6974C190.714 26.7127 191.46 26.7356 191.994 26.7662C192.418 26.791 192.735 26.8222 192.947 26.86C193.159 26.8977 193.265 26.9423 193.265 26.9938V27.36Z" fill="#9AA5B3"/>
</g>
<g clip-path="url(#clip3_1_672)">
<path d="M227.664 27.2701C227.737 27.2767 227.774 27.2822 227.774 27.2867C227.774 27.2913 227.737 27.2949 227.664 27.2975C227.443 27.3059 227.167 27.3138 226.835 27.3209C226.504 27.3281 226.117 27.3346 225.675 27.3405C225.141 27.347 224.589 27.3518 224.018 27.3551C223.447 27.3584 222.858 27.36 222.25 27.36C221.237 27.36 220.312 27.3559 219.474 27.3478C218.636 27.3396 217.886 27.3274 217.223 27.3112C216.67 27.2981 216.192 27.2825 215.787 27.2643C215.381 27.2461 215.05 27.2252 214.792 27.2018C214.571 27.1836 214.406 27.1647 214.295 27.1451C214.185 27.1256 214.129 27.1054 214.129 27.0846V26.8033H211.533C211.459 26.8033 211.39 26.803 211.326 26.8024C211.261 26.8017 211.201 26.8004 211.146 26.7985C211.091 26.7972 211.05 26.7952 211.022 26.7926C210.994 26.79 210.98 26.7871 210.98 26.7838V26.651C210.98 26.6477 210.994 26.6445 211.022 26.6412C211.05 26.638 211.091 26.6351 211.146 26.6324C211.201 26.6292 211.266 26.6266 211.34 26.6246C211.413 26.6227 211.496 26.6211 211.588 26.6198C212.362 26.6106 213.047 26.5978 213.646 26.5812C214.244 26.5646 214.755 26.5442 215.179 26.5201C215.492 26.5013 215.741 26.4811 215.925 26.4596C216.109 26.4381 216.229 26.4153 216.284 26.3912C216.302 26.3808 216.385 26.373 216.532 26.3678C216.68 26.3626 216.891 26.36 217.168 26.36H221.09C221.164 26.36 221.233 26.3605 221.297 26.3615C221.361 26.3624 221.421 26.3639 221.477 26.3658C221.532 26.3678 221.573 26.3699 221.601 26.3722C221.629 26.3745 221.642 26.3769 221.642 26.3795V26.6041H226.227C226.301 26.6041 226.37 26.6046 226.435 26.6056C226.499 26.6066 226.559 26.608 226.614 26.61C226.669 26.6119 226.711 26.6141 226.738 26.6163C226.766 26.6186 226.78 26.6211 226.78 26.6237V26.7838C226.78 26.7864 226.766 26.7889 226.738 26.7911C226.711 26.7934 226.669 26.7955 226.614 26.7975C226.559 26.7994 226.499 26.8009 226.435 26.8019C226.37 26.8029 226.301 26.8033 226.227 26.8033H221.587V27.0631C221.587 27.0807 221.67 27.0957 221.836 27.108C222.001 27.1204 222.25 27.1302 222.581 27.1373C222.913 27.1445 223.309 27.1477 223.769 27.1471C224.23 27.1464 224.754 27.1419 225.344 27.1334C225.509 27.1308 225.657 27.1292 225.786 27.1285C225.914 27.1279 226.016 27.1279 226.089 27.1285C226.181 27.1298 226.255 27.1316 226.31 27.1339C226.366 27.1362 226.412 27.1393 226.448 27.1432L227.664 27.2701Z" fill="#9AA5B3"/>
</g>
<defs>
<clipPath id="clip0_1_672">
<rect width="28.2843" height="1" fill="white" transform="matrix(1 0 0 -1 72.9805 27.36)"/>
</clipPath>
<clipPath id="clip1_1_672">
<rect width="28.2843" height="1" fill="white" transform="matrix(1 0 0 -1 118.98 27.36)"/>
</clipPath>
<clipPath id="clip2_1_672">
<rect width="28.2843" height="1" fill="white" transform="matrix(1 0 0 -1 164.98 27.36)"/>
</clipPath>
<clipPath id="clip3_1_672">
<rect width="28.2843" height="1" fill="white" transform="matrix(1 0 0 -1 210.98 27.36)"/>
</clipPath>
</defs>
</svg>
