<svg width="32" height="33" viewBox="0 0 32 33" fill="none" xmlns="http://www.w3.org/2000/svg">
<g clip-path="url(#clip0_1_964)">
<path d="M4.53125 5.75122C4.53125 5.75122 5.28646 4.99601 6.79688 3.4856C8.30729 1.97518 11.2083 1.21997 15.5 1.21997C19.7917 1.21997 23.4479 2.73039 26.4688 5.75122C29.4896 8.77205 31 12.4283 31 16.72C31 21.0116 29.4896 24.6679 26.4688 27.6887C23.4479 30.7096 19.7917 32.22 15.5 32.22C11.2083 32.22 7.55208 30.7096 4.53125 27.6887C1.51042 24.6679 0 21.0116 0 16.72C0 12.4283 1.51042 8.77205 4.53125 5.75122ZM6.3125 25.9075C6.3125 25.9075 6.94792 26.5429 8.21875 27.8137C9.48958 29.0846 11.9167 29.72 15.5 29.72C19.0833 29.72 22.1458 28.4491 24.6875 25.9075C27.2292 23.3658 28.5 20.3033 28.5 16.72C28.5 13.1366 27.2292 10.0741 24.6875 7.53247C22.1458 4.9908 19.0833 3.71997 15.5 3.71997C11.9167 3.71997 8.85417 4.9908 6.3125 7.53247C3.77083 10.0741 2.5 13.1366 2.5 16.72C2.5 20.3033 3.77083 23.3658 6.3125 25.9075ZM23.9375 11.0325C23.9375 11.0325 24.0104 11.0741 24.1562 11.1575C24.3021 11.2408 24.4062 11.4491 24.4688 11.7825C24.5312 12.1158 24.4792 12.4283 24.3125 12.72C24.1458 13.0116 23.8958 13.1991 23.5625 13.2825C21.2708 13.8241 19.4792 14.1783 18.1875 14.345C18.1875 15.22 18.2083 16.0116 18.25 16.72C18.2917 17.4283 18.3229 18.0429 18.3438 18.5637C18.3646 19.0846 18.4167 19.595 18.5 20.095C18.5833 20.595 18.6458 20.9804 18.6875 21.2512C18.7292 21.5221 18.8229 21.8554 18.9688 22.2512C19.1146 22.6471 19.2083 22.9179 19.25 23.0637C19.2917 23.2096 19.3958 23.4804 19.5625 23.8762C19.7292 24.2721 19.8333 24.5325 19.875 24.6575C20.0417 25.0741 20.0417 25.47 19.875 25.845C19.7083 26.22 19.4271 26.4804 19.0312 26.6262C18.6354 26.7721 18.25 26.7616 17.875 26.595C17.5 26.4283 17.2292 26.1575 17.0625 25.7825C16.3125 23.7825 15.8333 22.0116 15.625 20.47H15.375C15.1667 22.0116 14.6875 23.7825 13.9375 25.7825C13.7708 26.1575 13.5 26.4283 13.125 26.595C12.75 26.7616 12.3646 26.7721 11.9688 26.6262C11.5729 26.4804 11.2917 26.22 11.125 25.845C10.9583 25.47 10.9583 25.0741 11.125 24.6575C11.1667 24.5325 11.25 24.3241 11.375 24.0325C11.7083 23.1991 11.9583 22.5221 12.125 22.0012C12.2917 21.4804 12.4479 20.5637 12.5938 19.2512C12.7396 17.9387 12.8125 16.3033 12.8125 14.345C11.5208 14.1783 9.72917 13.8241 7.4375 13.2825C7.22917 13.2408 7.04167 13.1471 6.875 13.0012C6.70833 12.8554 6.59375 12.6783 6.53125 12.47C6.46875 12.2616 6.45833 12.0325 6.5 11.7825C6.58333 11.4491 6.77083 11.1991 7.0625 11.0325C7.35417 10.8658 7.66667 10.8033 8 10.845C11.2917 11.6366 13.7917 12.0325 15.5 12.0325C17.2083 12.0325 19.7083 11.6366 23 10.845C23.3333 10.8033 23.6458 10.8658 23.9375 11.0325ZM13.8125 10.7825C13.8125 10.7825 13.6979 10.6679 13.4688 10.4387C13.2396 10.2096 13.125 9.76164 13.125 9.09497C13.125 8.4283 13.3542 7.8658 13.8125 7.40747C14.2708 6.94914 14.8333 6.71997 15.5 6.71997C16.1667 6.71997 16.7292 6.94914 17.1875 7.40747C17.6458 7.8658 17.875 8.4283 17.875 9.09497C17.875 9.76164 17.6458 10.3241 17.1875 10.7825C16.7292 11.2408 16.1667 11.47 15.5 11.47C14.8333 11.47 14.2708 11.2408 13.8125 10.7825Z" fill="#333333"/>
</g>
<defs>
<clipPath id="clip0_1_964">
<rect width="32" height="32" fill="white" transform="matrix(1 0 0 -1 0 32.72)"/>
</clipPath>
</defs>
</svg>
