<svg width="40" height="33" viewBox="0 0 40 33" fill="none" xmlns="http://www.w3.org/2000/svg">
<path d="M16 12.1575C15.6667 12.4075 15.5 12.7408 15.5 13.1575C15.5 13.5741 15.6458 13.9491 15.9375 14.2825C16.1875 14.5741 16.5312 14.7096 16.9688 14.6887C17.4062 14.6679 17.7708 14.5325 18.0625 14.2825L21.5 11.095C22 10.6366 22.4792 10.6575 22.9375 11.1575L23.625 11.9075C24.0833 12.4075 24.0625 12.8866 23.5625 13.345L22.75 14.0325L29.1875 19.22C29.3542 19.3866 29.5208 19.5533 29.6875 19.72H39C39.2917 19.72 39.5312 19.8137 39.7188 20.0012C39.9062 20.1887 40 20.4283 40 20.72V21.72C40 22.0116 39.9062 22.2512 39.7188 22.4387C39.5312 22.6262 39.2917 22.72 39 22.72H30.375C30.25 23.2616 30.0208 23.7408 29.6875 24.1575L28.0625 26.1575C27.5625 26.7825 26.9479 27.1887 26.2188 27.3762C25.4896 27.5637 24.7708 27.5116 24.0625 27.22C23.2708 28.22 22.25 28.72 21 28.72C20.0833 28.72 19.2292 28.3866 18.4375 27.72C17.4792 28.4283 16.3854 28.7616 15.1562 28.72C13.9271 28.6783 12.8333 28.2616 11.875 27.47L6.5625 22.72H1C0.708333 22.72 0.46875 22.6262 0.28125 22.4387C0.09375 22.2512 0 22.0116 0 21.72V20.72C0 20.4283 0.09375 20.1887 0.28125 20.0012C0.46875 19.8137 0.708333 19.72 1 19.72H7.75L13.8125 25.22C14.3125 25.6366 14.9062 25.8033 15.5938 25.72C16.2812 25.6366 16.8333 25.3241 17.25 24.7825L18.25 23.595L20.5625 25.595C20.6875 25.72 20.8646 25.7616 21.0938 25.72C21.3229 25.6783 21.5208 25.5741 21.6875 25.4075L23.5625 23.1575L25.0625 24.345C25.3125 24.5533 25.5417 24.5325 25.75 24.2825L27.375 22.2825C27.5833 22.0325 27.5625 21.8033 27.3125 21.595L20.5625 16.095L20 16.5325C19.25 17.2408 18.4062 17.6262 17.4688 17.6887C16.5312 17.7512 15.7604 17.6366 15.1562 17.345C14.5521 17.0533 14.0625 16.6991 13.6875 16.2825C12.8542 15.3658 12.4583 14.2929 12.5 13.0637C12.5417 11.8346 13.0208 10.8033 13.9375 9.96998L16.375 7.71998H12.8125C12.7708 7.71998 12.7188 7.74081 12.6562 7.78248C12.5938 7.82414 12.5417 7.84498 12.5 7.84498L8.625 11.72H1C0.708333 11.72 0.46875 11.6262 0.28125 11.4387C0.09375 11.2512 0 11.0116 0 10.72V9.71998C0 9.42831 0.09375 9.18873 0.28125 9.00123C0.46875 8.81373 0.708333 8.71998 1 8.71998H7.375L10.375 5.71998C11.0417 5.05331 11.8542 4.71998 12.8125 4.71998H27C27.9583 4.71998 28.7917 5.05331 29.5 5.71998L32.4375 8.71998H39C39.2917 8.71998 39.5312 8.81373 39.7188 9.00123C39.9062 9.18873 40 9.42831 40 9.71998V10.72C40 10.97 39.9062 11.1991 39.7188 11.4075C39.5312 11.6158 39.2917 11.72 39 11.72H31.1875L27.375 7.84498C27.25 7.76164 27.125 7.71998 27 7.71998H21.75C21.125 7.71998 20.5625 7.94914 20.0625 8.40748L16 12.1575Z" fill="#333333"/>
</svg>
