<svg width="22" height="2" viewBox="0 0 22 2" fill="none" xmlns="http://www.w3.org/2000/svg">
<g clip-path="url(#clip0_1_662)">
<path d="M4.03401 0.997264C4.03401 0.997264 4.54294 0.973665 5.56079 0.926469C6.57864 0.879272 8.53361 0.855674 11.4257 0.855674C14.3178 0.855674 16.7817 0.902871 18.8174 0.997264C20.8531 1.09166 21.8709 1.2059 21.8709 1.34001C21.8709 1.47411 20.8531 1.58836 18.8174 1.68275C16.7817 1.77714 14.3178 1.82434 11.4257 1.82434C8.53361 1.82434 6.06971 1.77714 4.03401 1.68275C1.99832 1.58836 0.980469 1.47411 0.980469 1.34001C0.980469 1.2059 1.99832 1.09166 4.03401 0.997264ZM18.9648 1.16815C18.0663 1.08352 16.6904 1.02168 14.8372 0.982616C15.4269 1.0347 15.8621 1.09654 16.1429 1.16815H18.9648ZM12.8577 1.00996C12.8577 1.00996 12.7243 0.999867 12.4576 0.979687C12.1908 0.959506 11.8469 0.949416 11.4257 0.949416C11.0045 0.949416 10.5272 0.969597 9.99369 1.00996C9.4602 1.05032 9.05306 1.10305 8.77228 1.16815H14.0791C13.7983 1.10305 13.3912 1.05032 12.8577 1.00996ZM3.1706 1.26189C3.05828 1.28793 3.00213 1.31397 3.00213 1.34001C3.00213 1.36605 3.05828 1.39209 3.1706 1.41813H6.45579C6.39964 1.38948 6.37156 1.36344 6.37156 1.34001C6.37156 1.31657 6.39964 1.29053 6.45579 1.26189H3.1706ZM3.8866 1.51187C4.30778 1.55353 4.87637 1.58999 5.59238 1.62123C6.30838 1.65248 7.11564 1.67787 8.01415 1.6974C7.4245 1.64532 6.98929 1.58348 6.7085 1.51187H3.8866ZM6.7085 1.16815C6.98929 1.09654 7.4245 1.0347 8.01415 0.982616C6.16097 1.02168 4.78512 1.08352 3.8866 1.16815H6.7085ZM9.99369 1.67006C9.99369 1.67006 10.1271 1.68015 10.3938 1.70033C10.6606 1.72051 11.0045 1.7306 11.4257 1.7306C11.8469 1.7306 12.3242 1.71042 12.8577 1.67006C13.3912 1.6297 13.7983 1.57697 14.0791 1.51187H8.77228C9.05306 1.57697 9.4602 1.6297 9.99369 1.67006ZM14.374 1.41813C14.4301 1.38818 14.4582 1.36214 14.4582 1.34001C14.4582 1.31657 14.4301 1.29053 14.374 1.26189H8.47745C8.42129 1.29053 8.39321 1.31657 8.39321 1.34001C8.39321 1.36344 8.42129 1.38948 8.47745 1.41813H14.374ZM14.8372 1.6974C16.6904 1.65834 18.0663 1.5965 18.9648 1.51187H16.1429C15.8621 1.58348 15.4269 1.64532 14.8372 1.6974ZM16.3956 1.41813H19.6808C19.7931 1.39209 19.8493 1.36605 19.8493 1.34001C19.8493 1.31397 19.7931 1.28793 19.6808 1.26189H16.3956C16.4518 1.29053 16.4798 1.31657 16.4798 1.34001C16.4798 1.36344 16.4518 1.38948 16.3956 1.41813Z" fill="#696969"/>
</g>
<defs>
<clipPath id="clip0_1_662">
<rect width="20.8905" height="1" fill="white" transform="matrix(1 0 0 -1 0.980469 1.84003)"/>
</clipPath>
</defs>
</svg>
