<svg width="49" height="39" viewBox="0 0 49 39" fill="none" xmlns="http://www.w3.org/2000/svg">
<g clip-path="url(#clip0_4_2174)">
<path d="M30.0225 19.772C30.0225 19.772 30.542 19.2524 31.5811 18.2134C32.6201 17.1743 34.624 16.6548 37.5928 16.6548C40.5615 16.6548 43.085 17.6938 45.1631 19.772C47.2412 21.8501 48.2803 24.3735 48.2803 27.3423C48.2803 30.311 47.2412 32.8345 45.1631 34.9126C43.085 36.9907 40.5615 38.0298 37.5928 38.0298C34.624 38.0298 32.1006 36.9907 30.0225 34.9126C27.9443 32.8345 26.9053 30.311 26.9053 27.3423C26.9053 24.3735 27.9443 21.8501 30.0225 19.772ZM42.3428 27.7876V26.897C42.3428 26.4022 42.0954 26.1548 41.6006 26.1548H38.7803V22.147C38.7803 21.6522 38.5329 21.4048 38.0381 21.4048H37.1475C36.6527 21.4048 36.4053 21.6522 36.4053 22.147V27.7876C36.4053 28.2824 36.6527 28.5298 37.1475 28.5298H41.6006C42.0954 28.5298 42.3428 28.2824 42.3428 27.7876ZM16.8115 23.7798C16.3167 23.7798 15.8962 23.6066 15.5498 23.2603C15.2035 22.9139 15.0303 22.4933 15.0303 21.9985V20.2173H4.34277V29.272C4.34277 29.5688 4.49121 29.7173 4.78809 29.7173H24.7529C25.0003 30.9543 25.3962 32.1418 25.9404 33.2798H4.34277C3.35319 33.2798 2.51204 32.9334 1.81934 32.2407C1.12663 31.548 0.780273 30.7069 0.780273 29.7173V10.7173C0.780273 9.7277 1.12663 8.88656 1.81934 8.19385C2.51204 7.50114 3.35319 7.15479 4.34277 7.15479H10.2803V3.59229C10.2803 2.6027 10.6266 1.76155 11.3193 1.06885C12.012 0.376141 12.8532 0.0297852 13.8428 0.0297852H25.7178C26.7074 0.0297852 27.5485 0.376141 28.2412 1.06885C28.9339 1.76155 29.2803 2.6027 29.2803 3.59229V7.15479H35.2178C36.2074 7.15479 37.0485 7.50114 37.7412 8.19385C38.4339 8.88656 38.7803 9.7277 38.7803 10.7173V14.354C38.335 14.3045 37.9391 14.2798 37.5928 14.2798C36.8506 14.2798 36.0589 14.354 35.2178 14.5024V11.1626C35.2178 10.8657 35.0693 10.7173 34.7725 10.7173H4.78809C4.49121 10.7173 4.34277 10.8657 4.34277 11.1626V16.6548H30.0967C28.7113 17.6444 27.5732 18.8319 26.6826 20.2173H24.5303V21.9985C24.5303 22.4933 24.3571 22.9139 24.0107 23.2603C23.6644 23.6066 23.2438 23.7798 22.749 23.7798H16.8115ZM13.8428 3.59229V7.15479H25.7178V3.59229H13.8428Z" fill="white"/>
</g>
<defs>
<clipPath id="clip0_4_2174">
<rect width="47.5" height="38" fill="white" transform="matrix(1 0 0 -1 0.780273 38.0298)"/>
</clipPath>
</defs>
</svg>
