<svg width="20" height="22" viewBox="0 0 20 22" fill="none" xmlns="http://www.w3.org/2000/svg">
<path d="M14.6875 10.375V11.625C14.6875 11.9375 14.5312 12.0938 14.2188 12.0938H10.7812V15.5312C10.7812 15.8438 10.625 16 10.3125 16H9.0625C8.75 16 8.59375 15.8438 8.59375 15.5312V12.0938H5.15625C4.84375 12.0938 4.6875 11.9375 4.6875 11.625V10.375C4.6875 10.0625 4.84375 9.90625 5.15625 9.90625H8.59375V6.46875C8.59375 6.15625 8.75 6 9.0625 6H10.3125C10.625 6 10.7812 6.15625 10.7812 6.46875V9.90625H14.2188C14.5312 9.90625 14.6875 10.0625 14.6875 10.375ZM16.543 4.14453C16.543 4.14453 17.015 4.61654 17.959 5.56055C18.903 6.50456 19.375 8.31771 19.375 11C19.375 13.6823 18.431 15.9674 16.543 17.8555C14.6549 19.7435 12.3698 20.6875 9.6875 20.6875C7.00521 20.6875 4.72005 19.7435 2.83203 17.8555C0.94401 15.9674 0 13.6823 0 11C0 8.31771 0.94401 6.03255 2.83203 4.14453C4.72005 2.25651 7.00521 1.3125 9.6875 1.3125C12.3698 1.3125 14.6549 2.25651 16.543 4.14453ZM15.2148 16.5273C15.2148 16.5273 15.5957 16.1465 16.3574 15.3848C17.1191 14.623 17.5 13.1615 17.5 11C17.5 8.83854 16.7383 6.99609 15.2148 5.47266C13.6914 3.94922 11.849 3.1875 9.6875 3.1875C7.52604 3.1875 5.68359 3.94922 4.16016 5.47266C2.63672 6.99609 1.875 8.83854 1.875 11C1.875 13.1615 2.63672 15.0039 4.16016 16.5273C5.68359 18.0508 7.52604 18.8125 9.6875 18.8125C11.849 18.8125 13.6914 18.0508 15.2148 16.5273Z" fill="#8C89A2"/>
</svg>
