<svg width="32" height="33" viewBox="0 0 32 33" fill="none" xmlns="http://www.w3.org/2000/svg">
<g clip-path="url(#clip0_1_941)">
<path d="M19.625 13.095C21.2083 14.6783 22.0625 16.595 22.1875 18.845C22.3125 21.095 21.6667 23.0742 20.25 24.7825C20.0417 25.0325 18.2708 26.8242 14.9375 30.1575C13.2292 31.8658 11.1667 32.72 8.75 32.72C6.33333 32.72 4.27083 31.8658 2.5625 30.1575C0.854167 28.4492 0 26.3867 0 23.97C0 21.5533 0.854167 19.4908 2.5625 17.7825C3.3125 17.0325 4.10417 16.2408 4.9375 15.4075C5.77083 14.5742 6.29167 14.0533 6.5 13.845C6.75 13.595 7.03125 13.5325 7.34375 13.6575C7.65625 13.7825 7.8125 14.0117 7.8125 14.345C7.8125 15.1367 7.91667 15.9283 8.125 16.72C8.16667 16.97 8.08333 17.1992 7.875 17.4075L5.0625 20.2825C4.02083 21.2825 3.5 22.5117 3.5 23.97C3.5 25.4283 4.01042 26.6679 5.03125 27.6888C6.05208 28.7096 7.29167 29.22 8.75 29.22C10.2083 29.22 11.4375 28.6992 12.4375 27.6575L17.1875 22.97C18.1875 21.97 18.6875 20.7408 18.6875 19.2825C18.6875 17.8242 18.1875 16.5742 17.1875 15.5325C16.7708 15.1158 16.2917 14.7825 15.75 14.5325C15.4167 14.3658 15.2708 14.1158 15.3125 13.7825C15.3958 13.0325 15.7083 12.3867 16.25 11.845L16.5 11.595C16.7917 11.345 17.0833 11.3033 17.375 11.47C18.2083 11.8867 18.9583 12.4283 19.625 13.095ZM23.25 0.720001C23.25 0.720001 23.8542 0.720001 25.0625 0.720001C26.2708 0.720001 27.7292 1.57417 29.4375 3.2825C31.1458 4.99084 32 7.05334 32 9.47C32 11.8867 31.1458 13.9492 29.4375 15.6575C28.6875 16.4075 27.8958 17.1992 27.0625 18.0325C26.2292 18.8658 25.7083 19.3867 25.5 19.595C25.25 19.845 24.9688 19.9075 24.6562 19.7825C24.3438 19.6575 24.1875 19.4283 24.1875 19.095C24.1875 18.3033 24.0833 17.5117 23.875 16.72C23.8333 16.47 23.9167 16.2408 24.125 16.0325L26.9375 13.1575C27.9792 12.1575 28.5 10.9283 28.5 9.47C28.5 8.01167 27.9896 6.77209 26.9688 5.75125C25.9479 4.73042 24.7083 4.22 23.25 4.22C21.7917 4.22 20.5625 4.74084 19.5625 5.7825L14.8125 10.47C13.8125 11.47 13.3125 12.6992 13.3125 14.1575C13.3125 15.6158 13.8125 16.8658 14.8125 17.9075C15.2292 18.3242 15.7083 18.6575 16.25 18.9075C16.5833 19.0742 16.7292 19.3242 16.6875 19.6575C16.6042 20.4075 16.2917 21.0533 15.75 21.595L15.5 21.845C15.2083 22.095 14.9167 22.1367 14.625 21.97C13.7917 21.5533 13.0417 21.0117 12.375 20.345C10.7917 18.7617 9.9375 16.845 9.8125 14.595C9.6875 12.345 10.3333 10.3658 11.75 8.6575C11.9583 8.4075 13.7292 6.61584 17.0625 3.2825C18.7708 1.57417 20.8333 0.720001 23.25 0.720001Z" fill="#333333"/>
</g>
<defs>
<clipPath id="clip0_1_941">
<rect width="32" height="32" fill="white" transform="matrix(1 0 0 -1 0 32.72)"/>
</clipPath>
</defs>
</svg>
