<svg width="44" height="39" viewBox="0 0 44 39" fill="none" xmlns="http://www.w3.org/2000/svg">
<g clip-path="url(#clip0_4_2186)">
<path d="M43.082 19.0298C43.181 19.3267 43.2305 19.6235 43.2305 19.9204C43.2305 20.2173 43.1562 20.5142 43.0078 20.811L39.9648 27.8618C39.8659 28.0597 39.7422 28.2453 39.5938 28.4185C39.4453 28.5916 39.2721 28.7401 39.0742 28.8638C38.8763 28.9875 38.666 29.0741 38.4434 29.1235C38.2207 29.173 38.0104 29.1978 37.8125 29.1978C37.5156 29.1978 37.2188 29.1483 36.9219 29.0493L26.7539 24.5962L25.1953 25.561C24.5521 25.9569 23.8594 26.0311 23.1172 25.7837L17.4766 23.4087L13.9883 32.686C13.8893 33.0324 13.679 33.3169 13.3574 33.5396C13.0358 33.7622 12.7018 33.8735 12.3555 33.8735H4.04297V36.8423C4.04297 37.1886 3.93164 37.4731 3.70898 37.6958C3.48633 37.9185 3.20182 38.0298 2.85547 38.0298H1.66797C1.32161 38.0298 1.03711 37.9185 0.814453 37.6958C0.591797 37.4731 0.480469 37.1886 0.480469 36.8423V27.3423C0.480469 26.9959 0.591797 26.7114 0.814453 26.4888C1.03711 26.2661 1.32161 26.1548 1.66797 26.1548H2.85547C3.20182 26.1548 3.48633 26.2661 3.70898 26.4888C3.93164 26.7114 4.04297 26.9959 4.04297 27.3423V30.311H11.0938L14.2109 22.0728L2.03906 17.0259C1.59375 16.8774 1.22266 16.5806 0.925781 16.1353C0.628906 15.6899 0.480469 15.2446 0.480469 14.7993C0.480469 14.354 0.579427 13.9582 0.777344 13.6118L7.90234 1.21729C8.10026 0.821453 8.47135 0.487469 9.01562 0.215332C9.5599 -0.0568047 10.1536 -0.0691719 10.7969 0.178223L38.8516 12.5728C39.7422 12.9191 40.237 13.5623 40.3359 14.5024C40.4349 15.4425 40.1133 16.16 39.3711 16.6548L41.8203 17.7681C42.4141 18.0155 42.8346 18.436 43.082 19.0298ZM23.8594 22.2212L35.4375 14.9478L10.4258 3.88916L4.5625 14.2056L23.8594 22.2212Z" fill="white"/>
</g>
<defs>
<clipPath id="clip0_4_2186">
<rect width="42.75" height="38" fill="white" transform="matrix(1 0 0 -1 0.480469 38.0298)"/>
</clipPath>
</defs>
</svg>
