<svg width="46" height="61" viewBox="0 0 46 61" fill="none" xmlns="http://www.w3.org/2000/svg">
<g clip-path="url(#clip0_4_1894)">
<path d="M43.6094 11.9844C44.7031 13.0781 45.25 14.4062 45.25 15.9688V54.875C45.25 56.4375 44.7031 57.7656 43.6094 58.8594C42.5156 59.9531 41.1875 60.5 39.625 60.5H5.875C4.3125 60.5 2.98438 59.9531 1.89062 58.8594C0.796875 57.7656 0.25 56.4375 0.25 54.875V6.125C0.25 4.5625 0.796875 3.23438 1.89062 2.14062C2.98438 1.04688 4.3125 0.5 5.875 0.5H29.7812C31.3438 0.5 32.6719 1.04688 33.7656 2.14062L43.6094 11.9844ZM39.1562 15.5L30.25 6.59375V15.5H39.1562ZM5.875 54.875H39.625V21.125H27.4375C26.6562 21.125 25.9922 20.8516 25.4453 20.3047C24.8984 19.7578 24.625 19.0938 24.625 18.3125V6.125H5.875V54.875ZM24.9766 27.9219L30.4844 33.4297C30.7969 33.6641 30.7969 33.9375 30.4844 34.25L17.0078 47.7266L11.3828 48.3125C10.9922 48.3906 10.6602 48.293 10.3867 48.0195C10.1133 47.7461 10.0156 47.4141 10.0938 47.0234L10.6797 41.3984L24.1562 27.9219C24.4688 27.6094 24.7422 27.6094 24.9766 27.9219ZM34.7031 30.0312L32.4766 32.2578C32.1641 32.5703 31.8516 32.5703 31.5391 32.2578L26.1484 26.8672C25.8359 26.5547 25.8359 26.2422 26.1484 25.9297L28.375 23.7031C28.8438 23.2344 29.4102 23 30.0742 23C30.7383 23 31.3047 23.2344 31.7734 23.7031L34.7031 26.6328C35.1719 27.1016 35.4062 27.668 35.4062 28.332C35.4062 28.9961 35.1719 29.5625 34.7031 30.0312Z" fill="#138CCC"/>
</g>
<defs>
<clipPath id="clip0_4_1894">
<rect width="45" height="61" fill="white" transform="matrix(1 0 0 -1 0.25 61)"/>
</clipPath>
</defs>
</svg>
