<svg width="14" height="16" viewBox="0 0 14 16" fill="none" xmlns="http://www.w3.org/2000/svg">
<g clip-path="url(#clip0_4_2421)">
<path d="M8.97461 3.42822C9.13086 3.25244 9.28711 3.25244 9.44336 3.42822L13.3105 7.29541C13.4863 7.45166 13.4863 7.60791 13.3105 7.76416L9.44336 11.6313C9.28711 11.8071 9.13086 11.8071 8.97461 11.6313L8.38867 11.0747C8.21289 10.8989 8.21289 10.7329 8.38867 10.5767L10.7617 8.2915H0.654297C0.419922 8.2915 0.302734 8.17432 0.302734 7.93994V7.11963C0.302734 6.88525 0.419922 6.76807 0.654297 6.76807H10.7617L8.38867 4.48291C8.21289 4.32666 8.21289 4.16064 8.38867 3.98486L8.97461 3.42822Z" fill="#0071DC"/>
</g>
<defs>
<clipPath id="clip0_4_2421">
<rect width="13.13" height="15" fill="white" transform="matrix(1 0 0 -1 0.299805 15.0298)"/>
</clipPath>
</defs>
</svg>
