<svg width="44" height="39" viewBox="0 0 44 39" fill="none" xmlns="http://www.w3.org/2000/svg">
<g clip-path="url(#clip0_4_2198)">
<path d="M17.9922 11.2739C17.9922 11.2739 18.2829 10.9832 18.8643 10.4019C19.4456 9.82047 20.5527 9.52979 22.1855 9.52979C23.8184 9.52979 25.2161 10.1112 26.3789 11.2739C27.5417 12.4367 28.123 13.8345 28.123 15.4673C28.123 17.1001 27.5417 18.4979 26.3789 19.6606C25.2161 20.8234 23.8184 21.4048 22.1855 21.4048C20.5527 21.4048 19.1549 20.8234 17.9922 19.6606C16.8294 18.4979 16.248 17.1001 16.248 15.4673C16.248 13.8345 16.8294 12.4367 17.9922 11.2739ZM20.5156 17.1372C20.5156 17.1372 20.6331 17.2547 20.8682 17.4897C21.1032 17.7248 21.5423 17.8423 22.1855 17.8423C22.8288 17.8423 23.3854 17.6073 23.8555 17.1372C24.3255 16.6672 24.5605 16.1105 24.5605 15.4673C24.5605 14.8241 24.3255 14.2674 23.8555 13.7974C23.3854 13.3273 22.8288 13.0923 22.1855 13.0923C21.5423 13.0923 20.9857 13.3273 20.5156 13.7974C20.0456 14.2674 19.8105 14.8241 19.8105 15.4673C19.8105 16.1105 20.0456 16.6672 20.5156 17.1372ZM43.1895 25.561C43.4368 25.9569 43.5605 26.4022 43.5605 26.897V33.2798C43.5605 33.923 43.3255 34.4797 42.8555 34.9497C42.3854 35.4198 41.8288 35.6548 41.1855 35.6548H3.18555C2.54232 35.6548 1.98568 35.4198 1.51562 34.9497C1.04557 34.4797 0.810547 33.923 0.810547 33.2798V26.897C0.810547 26.4022 0.934245 25.9569 1.18164 25.561L5.56055 19.0298V5.96729C5.56055 4.9777 5.9069 4.13656 6.59961 3.44385C7.29232 2.75114 8.13346 2.40479 9.12305 2.40479H35.248C36.2376 2.40479 37.0788 2.75114 37.7715 3.44385C38.4642 4.13656 38.8105 4.9777 38.8105 5.96729V19.0298L43.1895 25.561ZM9.12305 20.1431L5.85742 24.9673H38.5137L35.248 20.1431V5.96729H9.12305V20.1431ZM39.998 32.0923V28.5298H4.37305V32.0923H39.998ZM32.2793 8.34229C32.6751 8.34229 32.873 8.5402 32.873 8.93604V11.311C32.873 11.7069 32.6751 11.9048 32.2793 11.9048H29.9043C29.5085 11.9048 29.3105 11.7069 29.3105 11.311V8.93604C29.3105 8.5402 29.5085 8.34229 29.9043 8.34229H32.2793Z" fill="white"/>
</g>
<defs>
<clipPath id="clip0_4_2198">
<rect width="42.75" height="38" fill="white" transform="matrix(1 0 0 -1 0.810547 38.0298)"/>
</clipPath>
</defs>
</svg>
