<svg width="38" height="30" viewBox="0 0 38 30" fill="none" xmlns="http://www.w3.org/2000/svg">
<g clip-path="url(#clip0_4_1882)">
<path d="M7.0625 2.8125V16.875H21.125V22.5H4.25C3.23438 22.5 2.35547 22.1289 1.61328 21.3867C0.871094 20.6445 0.5 19.7656 0.5 18.75V17.8125C0.5 17.5391 0.587891 17.3145 0.763672 17.1387C0.939453 16.9629 1.16406 16.875 1.4375 16.875H4.25V1.875C4.25 1.36719 4.43555 0.927734 4.80664 0.556641C5.17773 0.185547 5.61719 0 6.125 0H28.625C29.1328 0 29.5723 0.185547 29.9434 0.556641C30.3145 0.927734 30.5 1.36719 30.5 1.875V5.625H27.6875V2.8125H7.0625ZM35.8906 7.5C36.4766 7.5 36.9746 7.70508 37.3848 8.11523C37.7949 8.52539 38 9.02344 38 9.60938V27.8906C38 28.4766 37.7949 28.9746 37.3848 29.3848C36.9746 29.7949 36.4766 30 35.8906 30H25.1094C24.5234 30 24.0254 29.7949 23.6152 29.3848C23.2051 28.9746 23 28.4766 23 27.8906V9.60938C23 9.02344 23.2051 8.52539 23.6152 8.11523C24.0254 7.70508 24.5234 7.5 25.1094 7.5H35.8906ZM35.1875 27.1875V10.3125H25.8125V27.1875H35.1875Z" fill="white"/>
</g>
<defs>
<clipPath id="clip0_4_1882">
<rect width="37.5" height="30" fill="white" transform="matrix(1 0 0 -1 0.5 30)"/>
</clipPath>
</defs>
</svg>
