<svg width="20" height="21" viewBox="0 0 20 21" fill="none" xmlns="http://www.w3.org/2000/svg">
<g clip-path="url(#clip0_1_346)">
<path d="M2.83203 3.34454C2.83203 3.34454 3.30404 2.87254 4.24805 1.92853C5.19206 0.984518 7.00521 0.512512 9.6875 0.512512C12.3698 0.512512 14.6549 1.45652 16.543 3.34454C18.431 5.23256 19.375 7.51772 19.375 10.2C19.375 12.8823 18.431 15.1675 16.543 17.0555C14.6549 18.9435 12.3698 19.8875 9.6875 19.8875C7.00521 19.8875 4.72005 18.9435 2.83203 17.0555C0.94401 15.1675 0 12.8823 0 10.2C0 7.51772 0.94401 5.23256 2.83203 3.34454ZM4.16016 15.7274C4.16016 15.7274 4.54102 16.1082 5.30273 16.8699C6.06445 17.6317 7.52604 18.0125 9.6875 18.0125C11.849 18.0125 13.6914 17.2508 15.2148 15.7274C16.7383 14.2039 17.5 12.3615 17.5 10.2C17.5 8.03855 16.7383 6.19611 15.2148 4.67267C13.6914 3.14923 11.849 2.38751 9.6875 2.38751C7.52604 2.38751 5.68359 3.14923 4.16016 4.67267C2.63672 6.19611 1.875 8.03855 1.875 10.2C1.875 12.3615 2.63672 14.2039 4.16016 15.7274ZM8.53516 5.29767C8.53516 5.29767 8.61654 5.21629 8.7793 5.05353C8.94206 4.89077 9.24479 4.80939 9.6875 4.80939C10.1302 4.80939 10.5143 4.97215 10.8398 5.29767C11.1654 5.62319 11.3281 6.0073 11.3281 6.45001C11.3281 6.89272 11.1654 7.27684 10.8398 7.60236C10.5143 7.92788 10.1302 8.09064 9.6875 8.09064C9.24479 8.09064 8.86068 7.92788 8.53516 7.60236C8.20964 7.27684 8.04688 6.89272 8.04688 6.45001C8.04688 6.0073 8.20964 5.62319 8.53516 5.29767ZM11.875 14.7313C11.875 15.0438 11.7188 15.2 11.4062 15.2H7.96875C7.65625 15.2 7.5 15.0438 7.5 14.7313V13.7938C7.5 13.4813 7.65625 13.325 7.96875 13.325H8.4375V10.825H7.96875C7.65625 10.825 7.5 10.6688 7.5 10.3563V9.41876C7.5 9.10626 7.65625 8.95001 7.96875 8.95001H10.4688C10.7812 8.95001 10.9375 9.10626 10.9375 9.41876V13.325H11.4062C11.7188 13.325 11.875 13.4813 11.875 13.7938V14.7313Z" fill="white"/>
</g>
<defs>
<clipPath id="clip0_1_346">
<rect width="20" height="20" fill="white" transform="matrix(1 0 0 -1 0 20.2)"/>
</clipPath>
</defs>
</svg>
