<svg width="20" height="22" viewBox="0 0 20 22" fill="none" xmlns="http://www.w3.org/2000/svg">
<g clip-path="url(#clip0_4_2450)">
<path d="M5.15625 11.7041C4.84375 11.7041 4.6875 11.5479 4.6875 11.2354V9.98535C4.6875 9.67285 4.84375 9.5166 5.15625 9.5166H14.2188C14.5312 9.5166 14.6875 9.67285 14.6875 9.98535V11.2354C14.6875 11.5479 14.5312 11.7041 14.2188 11.7041H5.15625ZM16.543 3.75488C16.543 3.75488 17.015 4.22689 17.959 5.1709C18.903 6.11491 19.375 7.92806 19.375 10.6104C19.375 13.2926 18.431 15.5778 16.543 17.4658C14.6549 19.3538 12.3698 20.2979 9.6875 20.2979C7.00521 20.2979 4.72005 19.3538 2.83203 17.4658C0.94401 15.5778 0 13.2926 0 10.6104C0 7.92806 0.94401 5.6429 2.83203 3.75488C4.72005 1.86686 7.00521 0.922852 9.6875 0.922852C12.3698 0.922852 14.6549 1.86686 16.543 3.75488ZM15.2148 16.1377C15.2148 16.1377 15.5957 15.7568 16.3574 14.9951C17.1191 14.2334 17.5 12.7718 17.5 10.6104C17.5 8.44889 16.7383 6.60645 15.2148 5.08301C13.6914 3.55957 11.849 2.79785 9.6875 2.79785C7.52604 2.79785 5.68359 3.55957 4.16016 5.08301C2.63672 6.60645 1.875 8.44889 1.875 10.6104C1.875 12.7718 2.63672 14.6143 4.16016 16.1377C5.68359 17.6611 7.52604 18.4229 9.6875 18.4229C11.849 18.4229 13.6914 17.6611 15.2148 16.1377Z" fill="white"/>
</g>
<defs>
<clipPath id="clip0_4_2450">
<rect width="20" height="21" fill="white" transform="matrix(1 0 0 -1 0 21.1104)"/>
</clipPath>
</defs>
</svg>
