<svg width="19" height="25" viewBox="0 0 19 25" fill="none" xmlns="http://www.w3.org/2000/svg">
<g clip-path="url(#clip0_1_821)">
<path opacity="0.7" d="M16.1032 6.08723C16.3132 4.51223 16.1032 3.46223 15.261 2.48723C14.3475 1.43723 12.7327 0.912231 10.6972 0.912231H4.72871C4.37771 0.912231 3.95696 1.28723 3.88571 1.66223L1.42871 18.3122C1.42871 18.6122 1.63946 18.9872 1.99046 18.9872H5.64146L5.43071 20.6372C5.36021 20.9372 5.57096 21.1622 5.85146 21.1622H8.94146C9.29321 21.1622 9.64346 20.9372 9.71396 20.5622V20.3372L10.3455 16.4372V16.2872C10.416 15.9122 10.767 15.6122 11.118 15.6122H11.5402C14.5582 15.6122 16.8757 14.3372 17.5777 10.5872C17.9287 9.01223 17.7892 7.73723 16.9462 6.83723C16.7355 6.53723 16.3837 6.31223 16.1032 6.08723Z" fill="white"/>
<path opacity="0.7" d="M16.1032 6.08723C16.3132 4.51223 16.1032 3.46223 15.261 2.48723C14.3475 1.43723 12.7327 0.912231 10.6972 0.912231H4.72871C4.37771 0.912231 3.95696 1.28723 3.88571 1.66223L1.42871 18.3122C1.42871 18.6122 1.63946 18.9872 1.99046 18.9872H5.64146L6.62471 12.7622L6.55421 12.9872C6.62471 12.5372 6.97571 12.2372 7.39646 12.2372H9.15146C12.5925 12.2372 15.261 10.7372 16.1032 6.53723C16.0335 6.31223 16.1032 6.23723 16.1032 6.08723Z" fill="white"/>
<path d="M7.53821 6.08723C7.60721 5.86223 7.74821 5.63723 7.95896 5.48723C8.09846 5.48723 8.16896 5.41223 8.30921 5.41223H12.9435C13.506 5.41223 14.0662 5.48723 14.4892 5.56223C14.6287 5.56223 14.7697 5.56223 14.91 5.63723C15.0502 5.71223 15.1905 5.71223 15.261 5.78723C15.3307 5.78723 15.4005 5.78723 15.4717 5.78723C15.6817 5.86223 15.8925 6.01223 16.1032 6.08723C16.3132 4.51223 16.1032 3.46223 15.261 2.41223C14.418 1.36223 12.804 0.912231 10.767 0.912231H4.72871C4.37771 0.912231 3.95696 1.21223 3.88571 1.66223L1.42871 18.3122C1.42871 18.6122 1.63946 18.9872 1.99046 18.9872H5.64146L6.62471 12.7622L7.53821 6.08723Z" fill="white"/>
</g>
<defs>
<clipPath id="clip0_1_821">
<rect width="18" height="24" fill="white" transform="translate(0.410156 0.719482)"/>
</clipPath>
</defs>
</svg>
