<svg width="76" height="25" viewBox="0 0 76 25" fill="none" xmlns="http://www.w3.org/2000/svg">
<g clip-path="url(#clip0_1_804)">
<path d="M9.3075 2.81946H3.4575C3.0825 2.81946 2.7075 3.11946 2.6325 3.49446L0.307505 18.4945C0.232505 18.7945 0.457505 19.0195 0.757505 19.0195H3.53251C3.90751 19.0195 4.28251 18.7195 4.3575 18.3445L4.9575 14.2945C5.0325 13.9195 5.33251 13.6195 5.78251 13.6195H7.6575C11.4825 13.6195 13.7325 11.7445 14.3325 8.06946C14.5575 6.49446 14.3325 5.21946 13.5825 4.31946C12.7575 3.34446 11.2575 2.81946 9.3075 2.81946ZM9.9825 8.29446C9.6825 10.3945 8.0325 10.3945 6.5325 10.3945H5.6325L6.2325 6.49446C6.2325 6.26946 6.4575 6.11946 6.6825 6.11946H7.0575C8.1075 6.11946 9.0825 6.11946 9.6075 6.71946C9.9825 7.01946 10.1325 7.54446 9.9825 8.29446Z" fill="white"/>
<path d="M26.7078 8.21948H23.9328C23.7078 8.21948 23.4828 8.36948 23.4828 8.59448L23.3328 9.34448L23.1078 9.04448C22.5078 8.14448 21.1578 7.84448 19.8078 7.84448C16.7328 7.84448 14.1078 10.1695 13.5828 13.4695C13.2828 15.1195 13.6578 16.6945 14.6328 17.7445C15.4578 18.7195 16.7328 19.1695 18.1578 19.1695C20.6328 19.1695 22.0578 17.5945 22.0578 17.5945L21.9078 18.3445C21.8328 18.6445 22.0578 18.9445 22.3578 18.9445H24.9078C25.2828 18.9445 25.6578 18.6445 25.7328 18.2695L27.2328 8.66948C27.3078 8.51948 27.0078 8.21948 26.7078 8.21948ZM22.8828 13.6195C22.5828 15.1945 21.3828 16.3195 19.7328 16.3195C18.9078 16.3195 18.3078 16.0945 17.8578 15.5695C17.4078 15.0445 17.2578 14.3695 17.4078 13.6195C17.6328 12.0445 18.9828 10.9195 20.5578 10.9195C21.3828 10.9195 21.9828 11.2195 22.4328 11.6695C22.8078 12.1945 22.9578 12.8695 22.8828 13.6195Z" fill="white"/>
<path d="M41.6326 8.21948H38.8576C38.5576 8.21948 38.3326 8.36948 38.1826 8.59448L34.2826 14.2945L32.6326 8.81948C32.5576 8.44448 32.1826 8.21948 31.8826 8.21948H29.1076C28.8076 8.21948 28.5076 8.51948 28.6576 8.89448L31.7326 17.9695L28.8076 22.0195C28.5826 22.3195 28.8076 22.7695 29.1826 22.7695H31.9576C32.2576 22.7695 32.4826 22.6195 32.6326 22.3945L42.0076 8.89448C42.2326 8.66948 42.0076 8.21948 41.6326 8.21948Z" fill="white"/>
<path d="M50.9325 2.81946H45.0825C44.7075 2.81946 44.3325 3.11946 44.2575 3.49446L41.9325 18.4195C41.8575 18.7195 42.0825 18.9445 42.3825 18.9445H45.3825C45.6825 18.9445 45.9075 18.7195 45.9075 18.4945L46.5825 14.2195C46.6575 13.8445 46.9575 13.5445 47.4075 13.5445H49.2825C53.1075 13.5445 55.3575 11.6695 55.9575 7.99446C56.1825 6.41946 55.9575 5.14446 55.2075 4.24446C54.3075 3.34446 52.8825 2.81946 50.9325 2.81946ZM51.6075 8.29446C51.3075 10.3945 49.6575 10.3945 48.1575 10.3945H47.2575L47.8575 6.49446C47.8575 6.26946 48.0825 6.11946 48.3075 6.11946H48.6825C49.7325 6.11946 50.7075 6.11946 51.2325 6.71946C51.6075 7.01946 51.6825 7.54446 51.6075 8.29446Z" fill="white"/>
<path d="M68.3328 8.21948H65.5578C65.3328 8.21948 65.1078 8.36948 65.1078 8.59448L64.9578 9.34448L64.7328 9.04448C64.1328 8.14448 62.7828 7.84448 61.4328 7.84448C58.3578 7.84448 55.7328 10.1695 55.2078 13.4695C54.9078 15.1195 55.2828 16.6945 56.2578 17.7445C57.0828 18.7195 58.3578 19.1695 59.7828 19.1695C62.2578 19.1695 63.6828 17.5945 63.6828 17.5945L63.5328 18.3445C63.4578 18.6445 63.6828 18.9445 63.9828 18.9445H66.5328C66.9078 18.9445 67.2828 18.6445 67.3578 18.2695L68.8578 8.66948C68.8578 8.51948 68.6328 8.21948 68.3328 8.21948ZM64.4328 13.6195C64.1328 15.1945 62.9328 16.3195 61.2828 16.3195C60.4578 16.3195 59.8578 16.0945 59.4078 15.5695C58.9578 15.0445 58.8078 14.3695 58.9578 13.6195C59.1828 12.0445 60.5328 10.9195 62.1078 10.9195C62.9328 10.9195 63.5328 11.2195 63.9828 11.6695C64.4328 12.1945 64.5828 12.8695 64.4328 13.6195Z" fill="white"/>
<path d="M71.6328 3.19446L69.2328 18.4195C69.1578 18.7195 69.3828 18.9445 69.6828 18.9445H72.0828C72.4578 18.9445 72.8328 18.6445 72.9078 18.2695L75.3078 3.34446C75.3828 3.04446 75.1578 2.81946 74.8578 2.81946H72.1578C71.8578 2.81946 71.7078 2.96946 71.6328 3.19446Z" fill="white"/>
</g>
<defs>
<clipPath id="clip0_1_804">
<rect width="75.75" height="24" fill="white" transform="translate(0.129883 0.719482)"/>
</clipPath>
</defs>
</svg>
