<svg width="76" height="25" viewBox="0 0 76 25" fill="none" xmlns="http://www.w3.org/2000/svg">
<g clip-path="url(#clip0_1_813)">
<path fill-rule="evenodd" clip-rule="evenodd" d="M12.6292 5.35449C13.1397 6.22382 13.3698 7.11922 13.3698 8.2503C13.3698 11.8579 10.3832 16.5444 7.95918 19.8352H2.42262L0.202148 6.14436L5.05002 5.66976L6.22401 15.4117C7.32094 13.569 8.67462 10.6731 8.67462 8.69882C8.67462 7.61814 8.49507 6.88206 8.21448 6.27598L12.6292 5.35449ZM18.81 13.9899C18.81 15.5971 19.6767 16.2276 20.8257 16.2276C22.0769 16.2276 23.2748 15.9123 24.8319 15.0964L24.2454 19.2029C23.1484 19.7556 21.4386 20.1244 19.7791 20.1244C15.5694 20.1244 14.0628 17.4919 14.0628 14.201C14.0628 9.93557 16.5136 5.40652 21.5661 5.40652C24.3479 5.40652 25.9034 7.01355 25.9034 9.25125C25.9037 12.8587 21.4135 13.9638 18.81 13.9899ZM18.9123 11.3831C19.8044 11.3831 22.0503 10.9623 22.0503 9.64611C22.0503 9.01409 21.6169 8.69882 21.1061 8.69882C20.2126 8.69882 19.04 9.80368 18.9123 11.3831ZM39.8937 8.56719C39.8937 9.09368 39.8163 9.85733 39.7392 10.3564L38.2845 19.835H33.564L34.8909 11.1461C34.9161 10.9104 34.9934 10.436 34.9934 10.1727C34.9934 9.54071 34.6105 9.38301 34.1501 9.38301C33.5386 9.38301 32.9256 9.67233 32.5174 9.88355L31.0123 19.8352H26.2653L28.434 5.64395H32.5425L32.5946 6.77665C33.5639 6.11855 34.8402 5.40679 36.6511 5.40679C39.0504 5.40652 39.8937 6.67071 39.8937 8.56719ZM53.9075 6.96003C55.2594 5.96057 56.536 5.40652 58.2962 5.40652C60.7201 5.40652 61.5632 6.67071 61.5632 8.56719C61.5632 9.09368 61.486 9.85733 61.4089 10.3564L59.9559 19.835H55.2341L56.5864 10.9625C56.6113 10.7253 56.6636 10.436 56.6636 10.2525C56.6636 9.54084 56.2805 9.38301 55.8202 9.38301C55.2339 9.38301 54.6478 9.64625 54.2127 9.88355L52.7079 19.8352H47.9873L49.3395 10.9626C49.3644 10.7254 49.4151 10.4361 49.4151 10.2526C49.4151 9.54098 49.0319 9.38314 48.5732 9.38314C47.9604 9.38314 47.3488 9.67247 46.9406 9.88368L45.4343 19.8353H40.6888L42.8573 5.64409H46.9157L47.0432 6.82882C47.9873 6.11882 49.2626 5.40706 50.9722 5.40706C52.4525 5.40652 53.4216 6.06476 53.9075 6.96003ZM62.7926 14.0694C62.7926 9.59409 65.0887 5.40652 70.3715 5.40652C74.3522 5.40652 75.8073 7.82936 75.8073 11.1735C75.8073 15.5969 73.536 20.1777 68.1258 20.1777C64.1194 20.1777 62.7926 17.4656 62.7926 14.0694ZM70.9578 11.0941C70.9578 9.93557 70.6768 9.14571 69.8354 9.14571C67.9725 9.14571 67.5899 12.5418 67.5899 14.2791C67.5899 15.5971 67.9475 16.4127 68.7887 16.4127C70.5495 16.4127 70.9578 12.8312 70.9578 11.0941Z" fill="#3D93CE"/>
</g>
<defs>
<clipPath id="clip0_1_813">
<rect width="75.75" height="24" fill="white" transform="translate(0.129883 0.719482)"/>
</clipPath>
</defs>
</svg>
