<svg width="52" height="17" viewBox="0 0 52 17" fill="none" xmlns="http://www.w3.org/2000/svg">
<g clip-path="url(#clip0_1_838)">
<path d="M6.94866 1.61951H3.04866C2.79866 1.61951 2.54866 1.81951 2.49866 2.06951L0.948656 12.0695C0.898656 12.2695 1.04866 12.4195 1.24866 12.4195H3.09866C3.34866 12.4195 3.59866 12.2195 3.64866 11.9695L4.04866 9.26951C4.09866 9.01951 4.29866 8.81951 4.59866 8.81951H5.84866C8.39865 8.81951 9.89866 7.56951 10.2987 5.11951C10.4487 4.06951 10.2987 3.21951 9.79866 2.61951C9.24866 1.96951 8.24866 1.61951 6.94866 1.61951ZM7.39866 5.26951C7.19866 6.66951 6.09866 6.66951 5.09866 6.66951H4.49866L4.89866 4.06951C4.89866 3.91951 5.04866 3.81951 5.19866 3.81951H5.44866C6.14866 3.81951 6.79866 3.81951 7.14866 4.21951C7.39866 4.41951 7.49866 4.76951 7.39866 5.26951Z" fill="#003087"/>
<path d="M18.5487 5.21948H16.6987C16.5487 5.21948 16.3987 5.31948 16.3987 5.46948L16.2987 5.96948L16.1487 5.76948C15.7487 5.16948 14.8487 4.96948 13.9487 4.96948C11.8987 4.96948 10.1487 6.51948 9.79867 8.71948C9.59867 9.81948 9.84867 10.8695 10.4987 11.5695C11.0487 12.2195 11.8987 12.5195 12.8487 12.5195C14.4987 12.5195 15.4487 11.4695 15.4487 11.4695L15.3487 11.9695C15.2987 12.1695 15.4487 12.3695 15.6487 12.3695H17.3487C17.5987 12.3695 17.8487 12.1695 17.8987 11.9195L18.8987 5.51948C18.9487 5.41948 18.7487 5.21948 18.5487 5.21948ZM15.9987 8.81948C15.7987 9.86948 14.9987 10.6195 13.8987 10.6195C13.3487 10.6195 12.9487 10.4695 12.6487 10.1195C12.3487 9.76948 12.2487 9.31948 12.3487 8.81948C12.4987 7.76948 13.3987 7.01948 14.4487 7.01948C14.9987 7.01948 15.3987 7.21948 15.6987 7.51948C15.9487 7.86948 16.0487 8.31948 15.9987 8.81948Z" fill="#003087"/>
<path d="M28.4984 5.21948H26.6484C26.4484 5.21948 26.2984 5.31948 26.1984 5.46948L23.5984 9.26948L22.4984 5.61948C22.4484 5.36948 22.1984 5.21948 21.9984 5.21948H20.1484C19.9484 5.21948 19.7484 5.41948 19.8484 5.66948L21.8984 11.7195L19.9484 14.4195C19.7984 14.6195 19.9484 14.9195 20.1984 14.9195H22.0484C22.2484 14.9195 22.3984 14.8195 22.4984 14.6695L28.7484 5.66948C28.8984 5.51948 28.7484 5.21948 28.4984 5.21948Z" fill="#003087"/>
<path d="M34.6987 1.61951H30.7987C30.5487 1.61951 30.2987 1.81951 30.2487 2.06951L28.6987 12.0195C28.6487 12.2195 28.7987 12.3695 28.9987 12.3695H30.9987C31.1987 12.3695 31.3487 12.2195 31.3487 12.0695L31.7987 9.21951C31.8487 8.96951 32.0487 8.76951 32.3487 8.76951H33.5987C36.1487 8.76951 37.6487 7.51951 38.0487 5.06951C38.1987 4.01951 38.0487 3.16951 37.5487 2.56951C36.9487 1.96951 35.9987 1.61951 34.6987 1.61951ZM35.1487 5.26951C34.9487 6.66951 33.8487 6.66951 32.8487 6.66951H32.2487L32.6487 4.06951C32.6487 3.91951 32.7987 3.81951 32.9487 3.81951H33.1987C33.8987 3.81951 34.5487 3.81951 34.8987 4.21951C35.1487 4.41951 35.1987 4.76951 35.1487 5.26951Z" fill="#009CDE"/>
<path d="M46.2987 5.21948H44.4487C44.2987 5.21948 44.1487 5.31948 44.1487 5.46948L44.0487 5.96948L43.8987 5.76948C43.4987 5.16948 42.5987 4.96948 41.6987 4.96948C39.6487 4.96948 37.8987 6.51948 37.5487 8.71948C37.3487 9.81948 37.5987 10.8695 38.2487 11.5695C38.7987 12.2195 39.6487 12.5195 40.5987 12.5195C42.2487 12.5195 43.1987 11.4695 43.1987 11.4695L43.0987 11.9695C43.0487 12.1695 43.1987 12.3695 43.3987 12.3695H45.0987C45.3487 12.3695 45.5987 12.1695 45.6487 11.9195L46.6487 5.51948C46.6487 5.41948 46.4987 5.21948 46.2987 5.21948ZM43.6987 8.81948C43.4987 9.86948 42.6987 10.6195 41.5987 10.6195C41.0487 10.6195 40.6487 10.4695 40.3487 10.1195C40.0487 9.76948 39.9487 9.31948 40.0487 8.81948C40.1987 7.76948 41.0987 7.01948 42.1487 7.01948C42.6987 7.01948 43.0987 7.21948 43.3987 7.51948C43.6987 7.86948 43.7987 8.31948 43.6987 8.81948Z" fill="#009CDE"/>
<path d="M48.4984 1.86951L46.8984 12.0195C46.8484 12.2195 46.9984 12.3695 47.1984 12.3695H48.7984C49.0484 12.3695 49.2984 12.1695 49.3484 11.9195L50.9484 1.96951C50.9984 1.76951 50.8484 1.61951 50.6484 1.61951H48.8484C48.6484 1.61951 48.5484 1.71951 48.4984 1.86951Z" fill="#009CDE"/>
</g>
<defs>
<clipPath id="clip0_1_838">
<rect width="50.5" height="16" fill="white" transform="translate(0.830078 0.219482)"/>
</clipPath>
</defs>
</svg>
