<svg width="61" height="60" viewBox="0 0 61 60" fill="none" xmlns="http://www.w3.org/2000/svg">
<g clip-path="url(#clip0_4_1916)">
<path d="M4.63029 36.691H10.2927V34.5919H2.53125V56.7425H4.63029V36.691Z" fill="#138CCC"/>
<path d="M36.9179 43.2809H35.4675C35.0654 43.2861 34.7422 43.6135 34.7422 44.0156C34.7422 44.4177 35.0654 44.7451 35.4675 44.7502H38.8359C38.8411 44.6926 38.8447 44.6345 38.8447 44.5755C38.8445 44.0905 38.6603 43.6236 38.3292 43.2691H37.0448C37.0023 43.2693 36.9598 43.2733 36.9179 43.2809Z" fill="#138CCC"/>
<path d="M35.4675 48.5991C35.0654 48.6042 34.7422 48.9316 34.7422 49.3337C34.7422 49.7358 35.0654 50.0632 35.4675 50.0684H38.8249C38.9041 49.5375 38.7428 48.999 38.3848 48.5991H35.4675Z" fill="#138CCC"/>
<path d="M27.2832 38.3845C27.5493 39.6441 28.6617 40.5448 29.949 40.5432H38.7896C38.9226 40.0406 38.8142 39.5048 38.4963 39.0935C38.1784 38.6822 37.6872 38.4422 37.1674 38.4441H27.8499C27.6594 38.444 27.4695 38.424 27.2832 38.3845Z" fill="#138CCC"/>
<path d="M13.8609 40.0766H15.4359C17.7181 40.073 19.8614 38.9801 21.2045 37.1349C23.2837 34.2402 24.6507 30.8957 25.1943 27.3733L25.5796 24.8586C25.8036 24.8979 26.0234 24.9585 26.2359 25.0395C25.7826 23.8476 24.7362 22.9818 23.4805 22.7595L23.0951 25.2742C22.5513 28.7966 21.1842 32.1411 19.1051 35.0359C17.7622 36.8808 15.6192 37.9737 13.3373 37.9775H11.7617L11.7837 40.0766H13.8609Z" fill="#138CCC"/>
<path d="M37.204 53.7568H33.8643C33.5996 53.7534 33.3535 53.8926 33.2201 54.1213C33.0868 54.3501 33.0868 54.6328 33.2201 54.8615C33.3535 55.0902 33.5996 55.2295 33.8643 55.2261H37.6365C37.7194 54.6964 37.5605 54.1573 37.204 53.7568Z" fill="#138CCC"/>
<path d="M48.4075 30.2279C48.6205 29.1055 49.2052 28.2828 50.0178 27.8899C49.6107 27.7259 49.177 27.6383 48.7383 27.6313C47.3369 27.6313 46.2777 28.6262 45.9738 30.2279C45.4749 32.8309 47.1298 36.3121 51.9396 38.2749C52.3672 38.0967 52.7686 37.9066 53.1471 37.7071C49.283 35.6897 47.9533 32.5957 48.4075 30.2279Z" fill="#138CCC"/>
<path d="M32.6614 17.2991C32.8744 16.1767 33.4591 15.354 34.2717 14.9611C33.8646 14.7971 33.4309 14.7094 32.9922 14.7025C31.5909 14.7025 30.5316 15.6974 30.2278 17.2991C29.7289 19.902 31.3837 23.3833 36.1935 25.346C36.6211 25.1679 37.0226 24.9778 37.401 24.7783C33.5369 22.7609 32.2072 19.6668 32.6614 17.2991Z" fill="#138CCC"/>
<path d="M48.4075 4.37901C48.6205 3.2566 49.2052 2.4339 50.0178 2.04111C49.6108 1.87706 49.177 1.78936 48.7383 1.78241C47.3369 1.78241 46.2777 2.77741 45.9738 4.37901C45.4749 6.98194 47.1298 10.4632 51.9396 12.4259C52.3672 12.2479 52.7686 12.0577 53.1471 11.8582C49.283 9.84089 47.9533 6.74672 48.4075 4.37901Z" fill="#138CCC"/>
<path d="M13.3431 4.37901C13.556 3.2566 14.1407 2.4339 14.9533 2.04111C14.5463 1.87704 14.1125 1.78935 13.6737 1.78241C12.2725 1.78241 11.2132 2.77741 10.9094 4.37901C10.4105 6.98194 12.0654 10.4632 16.8752 12.4259C17.3028 12.2479 17.7041 12.0577 18.0826 11.8582C14.2186 9.84089 12.8888 6.74672 13.3431 4.37901Z" fill="#138CCC"/>
<path d="M40.4805 40.0522C40.4782 38.2435 39.0125 36.7778 37.2038 36.7757H27.8393C27.2527 36.7764 26.76 36.3345 26.6972 35.7513C26.545 34.3422 26.7244 32.9171 27.2211 31.5897C27.7653 30.1439 28.0436 28.6115 28.0426 27.0666V26.1783C28.0394 23.2966 25.7041 20.9613 22.8224 20.9581C22.4018 20.9581 22.0442 21.2652 21.9805 21.6809L21.4889 24.8887C20.9811 28.1794 19.7044 31.3039 17.7623 34.0085C16.7121 35.4503 15.0368 36.3042 13.2531 36.3069H11.7837V33.7559C11.7837 33.2855 11.4023 32.9041 10.9319 32.9041H1.65452C1.18409 32.9041 0.802734 33.2855 0.802734 33.7559V57.4954C0.802734 57.9658 1.18409 58.3471 1.65452 58.3471H10.9319C11.4023 58.3471 11.7837 57.9658 11.7837 57.4954V55.3354H13.0728C15.605 55.3348 18.087 56.0421 20.2385 57.3775C22.6993 58.9042 25.457 59.0306 28.3022 59.0306H35.8542C37.1621 59.0317 38.3568 58.2887 38.9343 57.1152C39.5117 55.9417 39.3715 54.5419 38.5727 53.5062C39.6065 52.9921 40.3133 51.9935 40.4546 50.8476C40.5959 49.7017 40.1528 48.5613 39.2748 47.8114C40.0327 47.1504 40.4713 46.1966 40.4801 45.191C40.4888 44.1854 40.0668 43.2241 39.3206 42.55C40.056 41.9287 40.4805 41.0149 40.4805 40.0522ZM10.0801 56.6436H2.5063V34.6077H10.0801V56.6436ZM37.0366 48.6855C37.9976 48.6855 38.7767 49.4645 38.7767 50.4256C38.7767 51.3866 37.9976 52.1656 37.0366 52.1656H31.7737C31.3033 52.1656 30.9219 52.547 30.9219 53.0174C30.9219 53.4878 31.3033 53.8692 31.7737 53.8692H35.8542C36.8034 53.8772 37.5687 54.6489 37.5687 55.5981C37.5687 56.5474 36.8034 57.3191 35.8542 57.3271H28.3022C25.7129 57.3271 23.2158 57.2202 21.1365 55.9299C18.7154 54.4271 15.9224 53.6311 13.0728 53.6318H11.7837V38.0105H13.2534C15.5834 38.0066 17.7716 36.8906 19.1428 35.0068C21.243 32.0828 22.6237 28.7046 23.1727 25.1467L23.5422 22.7358C25.1705 23.0788 26.3367 24.5143 26.3388 26.1783V27.0666C26.3397 28.4069 26.0983 29.7364 25.6262 30.9908C25.0358 32.5682 24.8225 34.2617 25.0033 35.9362C25.1595 37.384 26.3824 38.481 27.8386 38.4794H37.2031C38.0664 38.487 38.7622 39.189 38.7622 40.0524C38.7622 40.9157 38.0664 41.6177 37.2031 41.6253H34.9714C34.926 41.6258 34.8807 41.6298 34.836 41.6375H33.3862C32.9158 41.6375 32.5344 42.0188 32.5344 42.4893C32.5344 42.9597 32.9158 43.341 33.3862 43.341H36.9559C37.9615 43.341 38.7767 44.1562 38.7767 45.1618C38.7767 46.1674 37.9615 46.9825 36.9559 46.9825H33.3862C32.9158 46.9825 32.5344 47.3639 32.5344 47.8343C32.5344 48.3047 32.9158 48.6861 33.3862 48.6861L37.0366 48.6855Z" fill="#138CCC"/>
<path d="M59.5798 4.03589C59.0972 1.64347 57.3487 0.0973628 55.1264 0.0973628C54.1017 0.0973628 53.0128 0.446229 51.9482 1.11159C50.871 0.4152 49.7933 0.0626831 48.7378 0.0626831C46.5007 0.0626831 44.7588 1.62595 44.3 4.04355C43.6639 7.35942 45.6291 11.7397 51.4534 14.0507C51.4683 14.0566 51.4834 14.062 51.4986 14.0671C51.7841 14.1714 52.0974 14.1714 52.383 14.0671C52.4 14.0614 52.417 14.0549 52.4338 14.0484C58.255 11.6899 60.218 7.32316 59.5811 4.04173L59.5798 4.03589ZM51.9392 12.41C47.1296 10.4471 45.474 6.96602 45.9734 4.36297C46.2776 2.76137 47.3363 1.76649 48.7378 1.76649C49.5701 1.76649 50.5022 2.13312 51.4314 2.82672C51.7303 3.04979 52.1396 3.05246 52.4414 2.83329C53.3716 2.15807 54.3002 1.80117 55.1267 1.80117C56.5227 1.80117 57.5889 2.78535 57.9097 4.36991C58.4063 6.93998 56.7488 10.4065 51.9392 12.41Z" fill="#138CCC"/>
<path d="M35.8193 27.0783C36.1054 27.1831 36.4194 27.1831 36.7054 27.0783C36.7222 27.0727 36.7389 27.0662 36.7554 27.0599C42.5763 24.7017 44.5398 20.3348 43.9026 17.0533L43.9013 17.0472C43.4188 14.6548 41.6706 13.109 39.4477 13.109C38.4231 13.109 37.3342 13.4579 36.2694 14.1232C35.1922 13.4268 34.1146 13.0743 33.0591 13.0743C30.8218 13.0743 29.08 14.6375 28.6213 17.0551C27.9852 20.371 29.9503 24.7513 35.7746 27.0621C35.7896 27.068 35.8044 27.0733 35.8193 27.0783ZM30.2949 17.3743C30.5991 15.7728 31.6578 14.7778 33.0592 14.7778C33.8916 14.7778 34.8236 15.1445 35.7528 15.8381C36.0516 16.0614 36.461 16.064 36.7627 15.8446C37.6933 15.1694 38.6219 14.8125 39.4483 14.8125C40.8442 14.8125 41.9104 15.7967 42.2312 17.3813C42.728 19.9513 41.0705 23.4178 36.2609 25.4214C31.4514 23.4586 29.7955 19.9774 30.2949 17.3743Z" fill="#138CCC"/>
<path d="M24.5162 4.03589C24.0336 1.64347 22.2855 0.0973628 20.0628 0.0973628C19.0381 0.0973628 17.9493 0.446229 16.8847 1.11159C15.8076 0.4152 14.7298 0.0626831 13.6742 0.0626831C11.4371 0.0626831 9.69518 1.62595 9.23655 4.04355C8.60039 7.35942 10.5655 11.7397 16.3899 14.0507C16.4048 14.0566 16.4199 14.062 16.4351 14.0671C16.7206 14.1714 17.0338 14.1714 17.3194 14.0671C17.3365 14.0614 17.3536 14.0549 17.3702 14.0484C23.1914 11.6899 25.1544 7.32316 24.5175 4.04173L24.5162 4.03589ZM16.8757 12.41C12.0662 10.4471 10.4106 6.96602 10.9099 4.36297C11.2141 2.76137 12.2728 1.76649 13.6742 1.76649C14.5067 1.76649 15.4386 2.13312 16.3679 2.82672C16.6668 3.04979 17.0761 3.05246 17.3779 2.83329C18.308 2.15807 19.2366 1.80117 20.0631 1.80117C21.4592 1.80117 22.5253 2.78535 22.846 4.36991C23.3426 6.93998 21.6851 10.4065 16.8757 12.41Z" fill="#138CCC"/>
<path d="M59.58 29.9008C59.0974 27.5083 57.3493 25.9625 55.1264 25.9625C54.1017 25.9625 53.0128 26.3115 51.9482 26.9767C50.871 26.2803 49.7933 25.9278 48.7378 25.9278C46.5007 25.9278 44.7588 27.4911 44.3 29.9087C43.6639 33.2245 45.629 37.6048 51.4534 39.9157C51.468 39.9215 51.4827 39.9269 51.4977 39.9318C51.7837 40.0366 52.0977 40.0366 52.3837 39.9318C52.4006 39.9262 52.4173 39.9197 52.4338 39.9135C58.255 37.555 60.218 33.1883 59.5811 29.9068L59.58 29.9008ZM51.9394 38.2749C47.1299 36.312 45.4743 32.8309 45.9737 30.228C46.2779 28.6262 47.3365 27.6314 48.7381 27.6314C49.5704 27.6314 50.5025 27.998 51.4316 28.6916C51.7305 28.9147 52.1398 28.9173 52.4416 28.6982C53.3719 28.0229 54.3004 27.666 55.1269 27.666C56.523 27.666 57.5892 28.6502 57.9099 30.2348C58.4065 32.8048 56.749 36.2714 51.9394 38.2749Z" fill="#138CCC"/>
</g>
<defs>
<clipPath id="clip0_4_1916">
<rect width="60" height="60" fill="white" transform="translate(0.25)"/>
</clipPath>
</defs>
</svg>
