<svg width="61" height="61" viewBox="0 0 61 61" fill="none" xmlns="http://www.w3.org/2000/svg">
<g clip-path="url(#clip0_1_84)">
<path d="M5.36069 50.6447V9.01053C5.36101 8.30512 5.64154 7.62872 6.14057 7.13015C6.6396 6.63158 7.31625 6.35199 8.02166 6.35199H4.36312C3.65771 6.35199 2.98106 6.63158 2.48204 7.13015C1.98301 7.62872 1.70247 8.30512 1.70215 9.01053V50.6447C1.70289 52.1136 2.89421 53.3038 4.36312 53.3032H8.02166C6.55275 53.3038 5.36143 52.1136 5.36069 50.6447Z" fill="#138CCC"/>
<path d="M7.13762 14.5098C8.69503 14.5088 9.95683 13.2456 9.95616 11.6882C9.95549 10.1308 8.69259 8.86874 7.13519 8.86908C5.57778 8.86942 4.31543 10.132 4.31543 11.6894C4.31772 13.2469 5.58021 14.5085 7.13762 14.5098ZM7.13762 10.3326C7.88683 10.3336 8.49344 10.9416 8.49275 11.6908C8.49205 12.44 7.88431 13.0469 7.13511 13.0465C6.3859 13.0461 5.77878 12.4386 5.77884 11.6894C5.78026 10.9399 6.38809 10.333 7.13762 10.3326Z" fill="#138CCC"/>
<path d="M14.6636 14.5098C16.221 14.5087 17.4828 13.2455 17.482 11.6881C17.4813 10.1308 16.2184 8.86872 14.661 8.86908C13.1036 8.86944 11.8413 10.1321 11.8413 11.6894C11.8436 13.2469 13.1062 14.5086 14.6636 14.5098ZM14.6636 10.3326C15.4128 10.3337 16.0194 10.9417 16.0186 11.6909C16.0179 12.4401 15.4101 13.0469 14.6609 13.0465C13.9118 13.0461 13.3047 12.4386 13.3047 11.6894C13.3062 10.9399 13.9141 10.333 14.6636 10.3326Z" fill="#138CCC"/>
<path d="M22.0503 14.5098C23.6077 14.5087 24.8695 13.2455 24.8688 11.6881C24.868 10.1308 23.6051 8.86872 22.0477 8.86908C20.4904 8.86944 19.228 10.1321 19.228 11.6894C19.2303 13.2469 20.4929 14.5086 22.0503 14.5098ZM22.0503 10.3326C22.7995 10.3337 23.4061 10.9417 23.4053 11.6909C23.4046 12.4401 22.7968 13.0469 22.0477 13.0465C21.2985 13.0461 20.6914 12.4386 20.6914 11.6894C20.6929 10.9399 21.3008 10.333 22.0503 10.3326Z" fill="#138CCC"/>
<path d="M33.0608 12.282H57.0329C57.437 12.282 57.7646 11.9544 57.7646 11.5503C57.7646 11.1462 57.437 10.8186 57.0329 10.8186H33.0608C32.6567 10.8186 32.3291 11.1462 32.3291 11.5503C32.3291 11.9544 32.6567 12.282 33.0608 12.282Z" fill="#138CCC"/>
<path d="M28.251 22.0398C27.9491 21.8655 27.5772 21.8656 27.2754 22.0398C26.9735 22.2141 26.7876 22.5363 26.7876 22.8848V34.9252C26.7879 35.2736 26.9739 35.5954 27.2757 35.7696C27.5774 35.9439 27.9491 35.9441 28.251 35.7702L38.6786 29.7498C38.9805 29.5756 39.1664 29.2535 39.1664 28.9049C39.1664 28.5563 38.9805 28.2342 38.6786 28.0599L28.251 22.0398ZM28.251 34.0806V23.7301L37.2152 28.9054L28.251 34.0806Z" fill="#138CCC"/>
<path d="M1.70215 42.0447H60.2387V43.5081H1.70215V42.0447Z" fill="#138CCC"/>
<path d="M6.26946 47.0944H5.5486C5.14449 47.0944 4.81689 47.422 4.81689 47.8261C4.81689 48.2302 5.14449 48.5578 5.5486 48.5578H6.26946C6.67357 48.5578 7.00116 48.2302 7.00116 47.8261C7.00116 47.422 6.67357 47.0944 6.26946 47.0944Z" fill="#138CCC"/>
<path d="M9.92815 47.0944H9.20729C8.80318 47.0944 8.47559 47.422 8.47559 47.8261C8.47559 48.2302 8.80318 48.5578 9.20729 48.5578H9.92815C10.3323 48.5578 10.6599 48.2302 10.6599 47.8261C10.6599 47.422 10.3323 47.0944 9.92815 47.0944Z" fill="#138CCC"/>
<path d="M56.2695 47.0943H16.629V46.7971C16.629 46.393 16.3014 46.0654 15.8973 46.0654C15.4932 46.0654 15.1656 46.393 15.1656 46.7971V47.0943H14.0857C13.6816 47.0943 13.354 47.4219 13.354 47.826C13.354 48.2301 13.6816 48.5577 14.0857 48.5577H15.1656V48.847C15.1656 49.2511 15.4932 49.5787 15.8973 49.5787C16.3014 49.5787 16.629 49.2511 16.629 48.847V48.5577H56.2695C56.6736 48.5577 57.0012 48.2301 57.0012 47.826C57.0012 47.4219 56.6736 47.0943 56.2695 47.0943Z" fill="#138CCC"/>
<path d="M57.5778 5.6203H4.36265C2.49048 5.62164 0.97277 7.13837 0.970215 9.01054V50.6447C0.972837 52.5168 2.4905 54.0335 4.36265 54.0349H57.5778C59.4499 54.0335 60.9676 52.5168 60.9702 50.6447V9.01054C60.9677 7.13837 59.45 5.62164 57.5778 5.6203ZM4.36265 7.08371H57.5778C58.6421 7.08425 59.5051 7.94625 59.5068 9.01054V16.4813H2.43363V9.01054C2.43538 7.94625 3.29836 7.08425 4.36265 7.08371ZM57.5778 52.5715H4.36265C3.29836 52.571 2.43538 51.709 2.43363 50.6447V17.9443H59.5068V50.6447C59.5051 51.709 58.6421 52.571 57.5778 52.5715Z" fill="#138CCC"/>
</g>
<defs>
<clipPath id="clip0_1_84">
<rect width="60" height="60" fill="white" transform="translate(0.970215 0.0593262)"/>
</clipPath>
</defs>
</svg>
