<svg width="61" height="61" viewBox="0 0 61 61" fill="none" xmlns="http://www.w3.org/2000/svg">
<g clip-path="url(#clip0_1_104)">
<path d="M5.32999 36.7503H10.9924V34.6512H3.23096V56.8018H5.32999V36.7503Z" fill="#138CCC"/>
<path d="M37.6186 43.3402H36.1681C35.7661 43.3454 35.4429 43.6728 35.4429 44.0749C35.4429 44.477 35.7661 44.8044 36.1681 44.8096H39.5366C39.5418 44.7519 39.5453 44.6938 39.5453 44.6348C39.5452 44.1498 39.3609 43.6829 39.0299 43.3284H37.7455C37.703 43.3287 37.6605 43.3326 37.6186 43.3402Z" fill="#138CCC"/>
<path d="M36.1681 48.6584C35.7661 48.6636 35.4429 48.991 35.4429 49.393C35.4429 49.7951 35.7661 50.1225 36.1681 50.1277H39.5256C39.6048 49.5968 39.4435 49.0583 39.0855 48.6584H36.1681Z" fill="#138CCC"/>
<path d="M27.9834 38.4438C28.2495 39.7034 29.3619 40.6042 30.6492 40.6025H39.4898C39.6228 40.1 39.5144 39.5642 39.1965 39.1528C38.8786 38.7415 38.3874 38.5015 37.8676 38.5035H28.5501C28.3596 38.5033 28.1697 38.4833 27.9834 38.4438Z" fill="#138CCC"/>
<path d="M14.5611 40.136H16.1361C18.4183 40.1324 20.5616 39.0394 21.9047 37.1943C23.9839 34.2995 25.3509 30.955 25.8945 27.4326L26.2798 24.9179C26.5038 24.9572 26.7236 25.0178 26.9361 25.0988C26.4828 23.907 25.4364 23.0411 24.1807 22.8188L23.7953 25.3336C23.2515 28.856 21.8844 32.2004 19.8053 35.0952C18.4624 36.9401 16.3194 38.0331 14.0375 38.0368H12.4619L12.4839 40.136H14.5611Z" fill="#138CCC"/>
<path d="M37.9037 53.8161H34.564C34.2993 53.8127 34.0532 53.952 33.9198 54.1807C33.7865 54.4094 33.7865 54.6921 33.9198 54.9209C34.0532 55.1496 34.2993 55.2888 34.564 55.2854H38.3362C38.4191 54.7557 38.2602 54.2166 37.9037 53.8161Z" fill="#138CCC"/>
<path d="M49.1072 30.2873C49.3202 29.1649 49.9049 28.3422 50.7175 27.9493C50.3105 27.7852 49.8767 27.6976 49.438 27.6907C48.0367 27.6907 46.9774 28.6856 46.6736 30.2873C46.1747 32.8902 47.8295 36.3714 52.6393 38.3342C53.0669 38.156 53.4684 37.966 53.8468 37.7664C49.9827 35.749 48.653 32.655 49.1072 30.2873Z" fill="#138CCC"/>
<path d="M33.3616 17.3584C33.5746 16.236 34.1593 15.4133 34.9719 15.0204C34.5648 14.8564 34.1311 14.7687 33.6924 14.7618C32.291 14.7618 31.2318 15.7567 30.928 17.3584C30.429 19.9614 32.0839 23.4426 36.8937 25.4054C37.3213 25.2272 37.7227 25.0371 38.1012 24.8376C34.2371 22.8202 32.9074 19.7262 33.3616 17.3584Z" fill="#138CCC"/>
<path d="M49.1072 4.43834C49.3202 3.31593 49.9049 2.49323 50.7175 2.10043C50.3105 1.93638 49.8767 1.84869 49.438 1.84174C48.0367 1.84174 46.9774 2.83674 46.6736 4.43834C46.1747 7.04126 47.8295 10.5225 52.6393 12.4853C53.0669 12.3072 53.4684 12.117 53.8468 11.9175C49.9827 9.90021 48.653 6.80605 49.1072 4.43834Z" fill="#138CCC"/>
<path d="M14.0437 4.43834C14.2567 3.31593 14.8414 2.49323 15.654 2.10043C15.2469 1.93637 14.8132 1.84868 14.3744 1.84174C12.9732 1.84174 11.9139 2.83674 11.6101 4.43834C11.1112 7.04126 12.7661 10.5225 17.5758 12.4853C18.0034 12.3072 18.4048 12.117 18.7833 11.9175C14.9193 9.90021 13.5895 6.80605 14.0437 4.43834Z" fill="#138CCC"/>
<path d="M41.1807 40.1115C41.1784 38.3028 39.7127 36.8371 37.904 36.8351H28.5395C27.9529 36.8358 27.4602 36.3939 27.3974 35.8106C27.2452 34.4015 27.4246 32.9764 27.9213 31.649C28.4655 30.2032 28.7438 28.6708 28.7428 27.126V26.2377C28.7396 23.356 26.4043 21.0207 23.5226 21.0175C23.102 21.0175 22.7444 21.3245 22.6807 21.7403L22.1891 24.9481C21.6813 28.2387 20.4046 31.3633 18.4625 34.0679C17.4123 35.5096 15.737 36.3635 13.9533 36.3662H12.4839V33.8153C12.4839 33.3448 12.1025 32.9635 11.6321 32.9635H2.35471C1.88429 32.9635 1.50293 33.3448 1.50293 33.8153V57.5547C1.50293 58.0251 1.88429 58.4065 2.35471 58.4065H11.6321C12.1025 58.4065 12.4839 58.0251 12.4839 57.5547V55.3947H13.773C16.3052 55.3941 18.7872 56.1014 20.9387 57.4368C23.3995 58.9635 26.1572 59.09 29.0024 59.09H36.5544C37.8623 59.091 39.057 58.3481 39.6345 57.1745C40.2119 56.001 40.0717 54.6012 39.2729 53.5655C40.3067 53.0514 41.0135 52.0528 41.1548 50.9069C41.2961 49.761 40.853 48.6206 39.975 47.8708C40.7329 47.2097 41.1715 46.2559 41.1803 45.2503C41.189 44.2447 40.767 43.2835 40.0208 42.6093C40.7562 41.988 41.1807 41.0742 41.1807 40.1115ZM10.7803 56.7029H3.2065V34.667H10.7803V56.7029ZM37.7368 48.7448C38.6978 48.7448 39.4769 49.5239 39.4769 50.4849C39.4769 51.4459 38.6978 52.225 37.7368 52.225H32.4739C32.0035 52.225 31.6221 52.6063 31.6221 53.0767C31.6221 53.5472 32.0035 53.9285 32.4739 53.9285H36.5544C37.5036 53.9365 38.2689 54.7082 38.2689 55.6575C38.2689 56.6067 37.5036 57.3784 36.5544 57.3864H29.0024C26.4131 57.3864 23.916 57.2796 21.8367 55.9892C19.4156 54.4864 16.6226 53.6904 13.773 53.6911H12.4839V38.0698H13.9536C16.2836 38.0659 18.4718 36.95 19.843 35.0662C21.9432 32.1422 23.3239 28.764 23.8729 25.206L24.2424 22.7951C25.8707 23.1381 27.0369 24.5737 27.039 26.2377V27.126C27.0399 28.4663 26.7985 29.7957 26.3264 31.0501C25.736 32.6275 25.5227 34.3211 25.7035 35.9956C25.8597 37.4434 27.0826 38.5403 28.5388 38.5388H37.9033C38.7666 38.5463 39.4624 39.2483 39.4624 40.1117C39.4624 40.975 38.7666 41.677 37.9033 41.6846H35.6716C35.6262 41.6851 35.5809 41.6892 35.5362 41.6968H34.0864C33.616 41.6968 33.2346 42.0782 33.2346 42.5486C33.2346 43.019 33.616 43.4004 34.0864 43.4004H37.6561C38.6617 43.4004 39.4769 44.2155 39.4769 45.2211C39.4769 46.2267 38.6617 47.0419 37.6561 47.0419H34.0864C33.616 47.0419 33.2346 47.4232 33.2346 47.8936C33.2346 48.3641 33.616 48.7454 34.0864 48.7454L37.7368 48.7448Z" fill="#138CCC"/>
<path d="M60.28 4.09521C59.7974 1.7028 58.0489 0.156689 55.8266 0.156689C54.8019 0.156689 53.713 0.505555 52.6484 1.17092C51.5712 0.474526 50.4935 0.122009 49.438 0.122009C47.2009 0.122009 45.459 1.68527 45.0002 4.10288C44.3641 7.41875 46.3292 11.799 52.1536 14.11C52.1685 14.116 52.1835 14.1213 52.1988 14.1264C52.4843 14.2307 52.7976 14.2307 53.0832 14.1264C53.1002 14.1207 53.1172 14.1142 53.134 14.1077C58.9552 11.7492 60.9182 7.38249 60.2813 4.10105L60.28 4.09521ZM52.6394 12.4693C47.8298 10.5065 46.1742 7.02535 46.6736 4.4223C46.9778 2.8207 48.0365 1.82582 49.438 1.82582C50.2703 1.82582 51.2024 2.19245 52.1316 2.88604C52.4305 3.10912 52.8398 3.11178 53.1416 2.89262C54.0718 2.2174 55.0004 1.8605 55.8269 1.8605C57.2229 1.8605 58.2891 2.84467 58.6099 4.42923C59.1065 6.99931 57.449 10.4658 52.6394 12.4693Z" fill="#138CCC"/>
<path d="M36.5195 27.1376C36.8056 27.2425 37.1196 27.2425 37.4056 27.1376C37.4224 27.1321 37.4391 27.1255 37.4556 27.1193C43.2765 24.7611 45.24 20.3941 44.6028 17.1127L44.6015 17.1066C44.119 14.7142 42.3708 13.1683 40.1479 13.1683C39.1233 13.1683 38.0344 13.5173 36.9696 14.1825C35.8924 13.4861 34.8147 13.1336 33.7593 13.1336C31.522 13.1336 29.7802 14.6969 29.3215 17.1145C28.6854 20.4303 30.6505 24.8106 36.4747 27.1215C36.4898 27.1273 36.5046 27.1327 36.5195 27.1376ZM30.9951 17.4336C31.2993 15.8322 32.358 14.8372 33.7594 14.8372C34.5918 14.8372 35.5238 15.2038 36.453 15.8974C36.7518 16.1207 37.1612 16.1234 37.4629 15.904C38.3934 15.2287 39.3221 14.8719 40.1485 14.8719C41.5444 14.8719 42.6106 15.856 42.9314 17.4406C43.4282 20.0107 41.7706 23.4772 36.9611 25.4807C32.1516 23.5179 30.4957 20.0367 30.9951 17.4336Z" fill="#138CCC"/>
<path d="M25.2159 4.09521C24.7333 1.7028 22.9852 0.156689 20.7625 0.156689C19.7378 0.156689 18.649 0.505555 17.5844 1.17092C16.5073 0.474526 15.4295 0.122009 14.3739 0.122009C12.1368 0.122009 10.3949 1.68527 9.93626 4.10288C9.3001 7.41875 11.2652 11.799 17.0897 14.11C17.1045 14.116 17.1196 14.1213 17.1348 14.1264C17.4203 14.2307 17.7335 14.2307 18.0191 14.1264C18.0362 14.1207 18.0533 14.1142 18.0699 14.1077C23.8911 11.7492 25.8541 7.38249 25.2172 4.10105L25.2159 4.09521ZM17.5754 12.4693C12.7659 10.5065 11.1103 7.02535 11.6096 4.4223C11.9139 2.8207 12.9725 1.82582 14.3739 1.82582C15.2064 1.82582 16.1383 2.19245 17.0676 2.88604C17.3665 3.10912 17.7758 3.11178 18.0776 2.89262C19.0077 2.2174 19.9363 1.8605 20.7628 1.8605C22.1589 1.8605 23.225 2.84467 23.5457 4.42923C24.0423 6.99931 22.3848 10.4658 17.5754 12.4693Z" fill="#138CCC"/>
<path d="M60.2802 29.9601C59.7976 27.5677 58.0495 26.0218 55.8266 26.0218C54.8019 26.0218 53.713 26.3708 52.6484 27.036C51.5712 26.3396 50.4935 25.9871 49.438 25.9871C47.2009 25.9871 45.459 27.5504 45.0002 29.968C44.3641 33.2839 46.3292 37.6641 52.1536 39.975C52.1682 39.9808 52.1829 39.9862 52.1979 39.9912C52.4839 40.096 52.7979 40.096 53.0839 39.9912C53.1008 39.9856 53.1175 39.979 53.134 39.9728C58.9552 37.6143 60.9182 33.2476 60.2813 29.9662L60.2802 29.9601ZM52.6396 38.3342C47.8301 36.3713 46.1745 32.8902 46.6738 30.2873C46.9781 28.6856 48.0367 27.6907 49.4382 27.6907C50.2706 27.6907 51.2027 28.0573 52.1318 28.7509C52.4307 28.974 52.84 28.9767 53.1418 28.7575C54.0721 28.0823 55.0006 27.7254 55.8271 27.7254C57.2232 27.7254 58.2894 28.7095 58.6101 30.2941C59.1067 32.8642 57.4491 36.3307 52.6396 38.3342Z" fill="#138CCC"/>
</g>
<defs>
<clipPath id="clip0_1_104">
<rect width="60" height="60" fill="white" transform="translate(0.950195 0.0593262)"/>
</clipPath>
</defs>
</svg>
