<svg width="81" height="81" viewBox="0 0 81 81" fill="none" xmlns="http://www.w3.org/2000/svg">
<g clip-path="url(#clip0_1_159)">
<path d="M12.0972 64.6905C14.1431 62.5994 16.4564 60.7878 18.977 59.3029C21.6184 65.6829 25.769 70.9317 31.1563 74.5613C23.908 73.4036 17.2251 69.9425 12.0972 64.6905Z" fill="#138CCC"/>
<path d="M18.2376 26.1084C16.6634 30.5467 15.7854 35.3627 15.6849 40.7864H2.70068C2.93576 33.243 5.76872 26.0123 10.7205 20.3169C12.953 22.5782 15.4818 24.5264 18.2376 26.1084Z" fill="#138CCC"/>
<path d="M15.6849 42.8203C15.7851 48.0745 16.6634 52.9784 18.2376 57.4178C15.4807 59.0138 12.9521 60.975 10.7205 63.2483C5.79676 57.5522 2.96716 50.3448 2.70068 42.8203H15.6849Z" fill="#138CCC"/>
<path d="M31.1565 8.88257C25.7692 12.5124 21.6184 17.7612 18.977 24.141C16.4564 22.6561 14.1431 20.8446 12.0972 18.7536C17.2252 13.5015 23.9081 10.0404 31.1565 8.88257Z" fill="#138CCC"/>
<path d="M36.6641 77.0349C36.9145 77.0349 37.1638 77.0303 37.4128 77.0254C37.4577 77.0316 37.503 77.0349 37.5484 77.0349C37.607 77.0349 37.6655 77.0286 37.7231 77.018C57.0935 76.4664 72.6784 60.8458 72.6784 41.7217C72.6784 40.2641 72.5936 36.9612 72.4262 35.5731L70.4069 35.8171C70.5608 37.0883 70.6441 40.3841 70.6441 41.7217C70.6402 49.6558 67.7547 57.3184 62.5241 63.2843C60.3098 61.0144 57.8005 59.0523 55.0636 57.4507C56.7557 52.7081 57.6538 47.4048 57.6538 41.7219C57.6538 40.7558 57.6269 39.7815 57.5736 38.8283C57.5423 38.2676 57.0623 37.8384 56.5016 37.8697C55.9338 37.9204 55.5091 38.4133 55.543 38.9824C55.5753 39.5643 55.5965 40.1083 55.6085 40.7863H37.5991V30.9453C41.1072 30.8588 44.5846 30.2686 47.9248 29.1927C48.2565 29.0853 48.6099 28.9724 48.935 28.8565L48.0931 27.1098C47.7867 27.2192 47.6062 27.1563 47.2933 27.2576C44.1579 28.2718 40.8927 28.8286 37.5984 28.9107V8.62086C41.0872 10.3062 44.1918 12.6917 46.7189 15.6287L48.2704 14.2897C46.4753 12.2267 44.4188 10.4067 42.153 8.87578C44.5086 9.25019 46.8187 9.86936 49.0458 10.7232L49.2374 10.7965L49.9772 8.90137L49.7787 8.82425C45.5924 7.22012 41.1462 6.40141 36.6631 6.40911C16.8055 6.40911 0.649902 22.2505 0.649902 41.722C0.649902 61.1936 16.8058 77.0349 36.6641 77.0349ZM12.0972 64.6905C14.1431 62.5994 16.4564 60.7879 18.977 59.3029C21.6184 65.6829 25.7691 70.9317 31.1563 74.5614C23.908 73.4036 17.2251 69.9425 12.0972 64.6905ZM18.2377 26.1085C16.6635 30.5468 15.7855 35.3627 15.685 40.7865H2.70075C2.93582 33.2431 5.76878 26.0123 10.7206 20.317C12.9531 22.5782 15.4818 24.5265 18.2377 26.1085ZM35.5652 74.8244C28.955 71.4778 23.6967 65.6953 20.6909 58.3134C25.3069 55.9648 30.3879 54.6731 35.5652 54.5322V74.8244ZM37.5991 54.5334C42.7748 54.6788 47.8508 55.992 52.4477 58.3748C49.4387 65.7271 44.3787 71.4871 37.5991 74.8244V54.5334ZM35.5652 52.4983C30.1552 52.6615 24.8464 54.0067 20.0116 56.4397C18.5774 52.291 17.8165 47.7356 17.7192 42.8204H35.5652V52.4983ZM15.685 42.8204C15.7852 48.0746 16.6635 52.9785 18.2377 57.4178C15.4808 59.0138 12.9522 60.975 10.7206 63.2483C5.79682 57.5523 2.96723 50.3448 2.70075 42.8204H15.685ZM61.1414 64.7805C56.0247 69.9825 49.3772 73.41 42.1719 74.5614C47.5389 70.9454 51.6782 65.7227 54.3209 59.3749C56.8208 60.8711 59.1138 62.6885 61.1414 64.7805ZM55.6092 42.8204C55.5349 47.4772 54.7266 52.0933 53.2141 56.4983C48.3747 54.0114 43.0381 52.6444 37.5991 52.4983V42.8204H55.6092ZM17.7192 40.7865C17.8165 35.8712 18.5774 31.2344 20.0116 27.0865C24.8519 29.4937 30.1609 30.8113 35.5652 30.9465V40.7865H17.7192ZM20.6909 25.1305C23.6969 17.7488 28.955 11.9663 35.5652 8.61967V28.9112C30.3879 28.7705 25.307 27.4791 20.6909 25.1305ZM31.1565 8.88256C25.7692 12.5124 21.6184 17.7612 18.977 24.141C16.4564 22.6561 14.1431 20.8446 12.0972 18.7536C17.2252 13.5015 23.9081 10.0404 31.1565 8.88256Z" fill="#138CCC"/>
<path d="M75.2177 8.23772C68.3069 1.49661 57.2811 1.49661 50.3703 8.23772C47.1992 11.3494 45.2797 15.5161 44.9754 19.9484C44.8176 22.3696 45.1808 24.7964 46.0404 27.0653C46.8823 29.3272 48.251 31.4569 50.1082 33.3953L62.0594 45.8699C62.2512 46.0702 62.5165 46.1834 62.7938 46.1834C63.0711 46.1834 63.3364 46.0702 63.5282 45.8699L75.4796 33.3953C77.3365 31.457 78.705 29.3275 79.5474 27.0655C80.407 24.7966 80.77 22.3698 80.6121 19.9487C80.308 15.5164 78.3886 11.3496 75.2177 8.23772ZM77.6415 26.3564C76.8957 28.3564 75.6754 30.2518 74.0111 31.9889L62.7942 43.697L51.5772 31.9889C49.913 30.2518 48.6916 28.3569 47.9471 26.3564C47.1886 24.3582 46.8674 22.2206 47.0052 20.0877C47.2757 16.1517 48.9806 12.4516 51.7969 9.68856C57.9161 3.72608 67.6722 3.72608 73.7915 9.68856C76.6077 12.4516 78.3127 16.1517 78.5832 20.0877C78.7208 22.2203 78.3997 24.3583 77.6415 26.3564Z" fill="#138CCC"/>
<path d="M62.7937 7.90503C56.2614 7.90503 50.9463 13.2499 50.9463 19.8203C50.9463 26.3906 56.2607 31.7355 62.7937 31.7355C69.3268 31.7355 74.6412 26.3906 74.6412 19.8203C74.6412 13.2499 69.326 7.90503 62.7937 7.90503ZM62.7937 29.7006C57.3831 29.7006 52.9802 25.2681 52.9802 19.8193C52.9802 14.3705 57.3831 9.93893 62.7937 9.93893C68.2044 9.93893 72.6073 14.3715 72.6073 19.8203C72.6073 25.2691 68.2046 29.7006 62.7937 29.7006Z" fill="#138CCC"/>
<path d="M66.718 16.0484C67.2322 16.0484 67.649 15.6255 67.649 15.1039C67.649 14.5822 67.2322 14.1593 66.718 14.1593H59.581C59.0668 14.1593 58.6501 14.5822 58.6501 15.1039C58.6501 15.6255 59.0668 16.0484 59.581 16.0484H61.6231C62.4531 16.0381 63.2079 16.5348 63.5372 17.3078H59.5808C59.0667 17.3078 58.6499 17.7307 58.6499 18.2524C58.6499 18.7741 59.0667 19.1969 59.5808 19.1969H63.5372C63.1386 19.8845 62.4091 20.3045 61.623 20.2989H59.581C59.1947 20.3166 58.8554 20.5648 58.7167 20.931C58.578 21.2973 58.6663 21.7121 58.9416 21.9876L64.0461 26.8915C64.2855 27.1285 64.632 27.2166 64.9531 27.1219C65.2743 27.0273 65.5205 26.7646 65.5974 26.4344C65.6744 26.1042 65.5703 25.7575 65.3249 25.5269L61.9115 22.2735C63.6648 22.1463 65.1077 20.7712 65.5072 19.1969H66.719C67.2331 19.1969 67.6499 18.7741 67.6499 18.2524C67.6499 17.7307 67.2331 17.3078 66.719 17.3078H65.5065C65.4208 16.8581 65.2482 16.43 64.9985 16.0484H66.718Z" fill="#138CCC"/>
</g>
<defs>
<clipPath id="clip0_1_159">
<rect width="80" height="80" fill="white" transform="translate(0.649902 0.159302)"/>
</clipPath>
</defs>
</svg>
