<svg width="15" height="15" viewBox="0 0 15 15" fill="none" xmlns="http://www.w3.org/2000/svg">
<g clip-path="url('#clip0_16_83')">
<path d="M14.3169 2.76953C14.4445 2.76953 14.5493 2.81055 14.6313 2.89258C14.7134 2.97461 14.7544 3.07943 14.7544 3.20703V3.64453C14.7544 3.77214 14.7134 3.87695 14.6313 3.95898C14.5493 4.04102 14.4445 4.08203 14.3169 4.08203H8.62939V4.73828C8.62939 4.86589 8.58838 4.9707 8.50635 5.05273C8.42432 5.13477 8.3195 5.17578 8.19189 5.17578H7.31689C7.18929 5.17578 7.08447 5.13477 7.00244 5.05273C6.92041 4.9707 6.87939 4.86589 6.87939 4.73828V4.08203H1.19189C1.06429 4.08203 0.959473 4.04102 0.877441 3.95898C0.79541 3.87695 0.754395 3.77214 0.754395 3.64453V3.20703C0.754395 3.07943 0.79541 2.97461 0.877441 2.89258C0.959473 2.81055 1.06429 2.76953 1.19189 2.76953H6.87939V2.11328C6.87939 1.98568 6.92041 1.88086 7.00244 1.79883C7.08447 1.7168 7.18929 1.67578 7.31689 1.67578H8.19189C8.3195 1.67578 8.42432 1.7168 8.50635 1.79883C8.58838 1.88086 8.62939 1.98568 8.62939 2.11328V2.76953H14.3169ZM14.3169 11.5195C14.4445 11.5195 14.5493 11.5605 14.6313 11.6426C14.7134 11.7246 14.7544 11.8294 14.7544 11.957V12.3945C14.7544 12.5221 14.7134 12.627 14.6313 12.709C14.5493 12.791 14.4445 12.832 14.3169 12.832H5.12939V13.4883C5.12939 13.6159 5.08838 13.7207 5.00635 13.8027C4.92432 13.8848 4.8195 13.9258 4.69189 13.9258H3.81689C3.68929 13.9258 3.58447 13.8848 3.50244 13.8027C3.42041 13.7207 3.37939 13.6159 3.37939 13.4883V12.832H1.19189C1.06429 12.832 0.959473 12.791 0.877441 12.709C0.79541 12.627 0.754395 12.5221 0.754395 12.3945V11.957C0.754395 11.8294 0.79541 11.7246 0.877441 11.6426C0.959473 11.5605 1.06429 11.5195 1.19189 11.5195H3.37939V10.8633C3.37939 10.7357 3.42041 10.6309 3.50244 10.5488C3.58447 10.4668 3.68929 10.4258 3.81689 10.4258H4.69189C4.8195 10.4258 4.92432 10.4668 5.00635 10.5488C5.08838 10.6309 5.12939 10.7357 5.12939 10.8633V11.5195H14.3169ZM14.3169 7.14453C14.4445 7.14453 14.5493 7.18555 14.6313 7.26758C14.7134 7.34961 14.7544 7.45443 14.7544 7.58203V8.01953C14.7544 8.14714 14.7134 8.25195 14.6313 8.33398C14.5493 8.41602 14.4445 8.45703 14.3169 8.45703H12.1294V9.11328C12.1294 9.24089 12.0884 9.3457 12.0063 9.42773C11.9243 9.50977 11.8195 9.55078 11.6919 9.55078H10.8169C10.6893 9.55078 10.5845 9.50977 10.5024 9.42773C10.4204 9.3457 10.3794 9.24089 10.3794 9.11328V8.45703H1.19189C1.06429 8.45703 0.959473 8.41602 0.877441 8.33398C0.79541 8.25195 0.754395 8.14714 0.754395 8.01953V7.58203C0.754395 7.45443 0.79541 7.34961 0.877441 7.26758C0.959473 7.18555 1.06429 7.14453 1.19189 7.14453H10.3794V6.48828C10.3794 6.36068 10.4204 6.25586 10.5024 6.17383C10.5845 6.0918 10.6893 6.05078 10.8169 6.05078H11.6919C11.8195 6.05078 11.9243 6.0918 12.0063 6.17383C12.0884 6.25586 12.1294 6.36068 12.1294 6.48828V7.14453H14.3169Z" fill="#7E7E7E"></path>
</g>
<defs>
<clipPath id="clip0_16_83">
<rect width="14" height="14" fill="white" transform="matrix(1 0 0 -1 0.754395 14.8008)"></rect>
</clipPath>
</defs>
</svg>
