<svg width="15" height="15" viewBox="0 0 15 15" fill="none" xmlns="http://www.w3.org/2000/svg">
<g clip-path="url('#clip0_16_431')">
<path d="M2.04688 3.02197C2.04688 3.02197 2.37728 2.69157 3.03809 2.03076C3.69889 1.36995 4.9681 1.03955 6.8457 1.03955C8.72331 1.03955 10.3229 1.70036 11.6445 3.02197C12.9661 4.34359 13.627 5.9432 13.627 7.8208C13.627 9.6984 12.9661 11.298 11.6445 12.6196C10.3229 13.9412 8.72331 14.6021 6.8457 14.6021C4.9681 14.6021 3.36849 13.9412 2.04688 12.6196C0.72526 11.298 0.0644531 9.6984 0.0644531 7.8208C0.0644531 5.9432 0.72526 4.34359 2.04688 3.02197ZM2.97656 11.6899C2.97656 11.6899 3.24316 11.9565 3.77637 12.4897C4.30957 13.0229 5.33268 13.2896 6.8457 13.2896C8.35872 13.2896 9.64844 12.7563 10.7148 11.6899C11.7812 10.6235 12.3145 9.33382 12.3145 7.8208C12.3145 6.30778 11.7812 5.01807 10.7148 3.95166C9.64844 2.88525 8.35872 2.35205 6.8457 2.35205C5.33268 2.35205 4.04297 2.88525 2.97656 3.95166C1.91016 5.01807 1.37695 6.30778 1.37695 7.8208C1.37695 9.33382 1.91016 10.6235 2.97656 11.6899ZM8.54102 10.4458L6.2168 8.75049C6.12565 8.67757 6.08008 8.58643 6.08008 8.47705V3.99268C6.08008 3.77393 6.18945 3.66455 6.4082 3.66455H7.2832C7.50195 3.66455 7.61133 3.77393 7.61133 3.99268V7.87549L9.44336 9.18799C9.60742 9.31559 9.62565 9.47054 9.49805 9.65283L9.00586 10.3638C8.87825 10.5461 8.72331 10.5734 8.54102 10.4458Z" fill="#7E7E7E"></path>
</g>
<defs>
<clipPath id="clip0_16_431">
<rect width="14" height="14" fill="white" transform="matrix(1 0 0 -1 0.0644531 14.8208)"></rect>
</clipPath>
</defs>
</svg>
