<svg width="20" height="2" viewBox="0 0 20 2" fill="none" xmlns="http://www.w3.org/2000/svg">
<g clip-path="url('#clip0_16_128')">
<path d="M17.7854 0.955811C18.7134 0.996175 19.3322 1.04403 19.6415 1.09937C19.9509 1.1547 19.9638 1.20776 19.6802 1.25854C19.3966 1.30933 18.9068 1.35295 18.2107 1.3894L11.4435 1.73706C11.031 1.75789 10.5412 1.76831 9.97404 1.76831C9.40688 1.76831 8.91706 1.75789 8.50458 1.73706L1.73735 1.3894C1.04129 1.35295 0.55147 1.309 0.26789 1.25757C-0.0156889 1.20614 -0.00279889 1.15308 0.30656 1.09839C0.61592 1.0437 1.23464 0.996175 2.16272 0.955811C3.27125 0.908936 4.57958 0.888428 6.08771 0.894287C7.59584 0.900146 8.89128 0.93042 9.97404 0.985107C11.0568 0.93042 12.3522 0.900146 13.8604 0.894287C15.3685 0.888428 16.6768 0.908936 17.7854 0.955811ZM16.8959 1.323C17.6436 1.28394 18.0174 1.23608 18.0174 1.17944C18.0174 1.1228 17.5533 1.07235 16.6253 1.02808C15.8519 0.996826 14.956 0.983154 13.9377 0.987061C12.9194 0.990967 12.0493 1.0118 11.3275 1.04956L9.97404 1.11792L8.62059 1.04956C7.89875 1.0118 7.02868 0.990967 6.01037 0.987061C4.99206 0.983154 4.09621 0.996826 3.32281 1.02808C2.39474 1.07235 1.9307 1.1228 1.9307 1.17944C1.9307 1.23608 2.30451 1.28394 3.05212 1.323L9.85803 1.67065C9.93537 1.67586 10.0127 1.67586 10.09 1.67065L16.8959 1.323Z" fill="#0071DC"></path>
</g>
<defs>
<clipPath id="clip0_16_128">
<rect width="19.799" height="1" fill="white" transform="matrix(1 0 0 -1 0.0644531 1.83081)"></rect>
</clipPath>
</defs>
</svg>
