<svg width="15" height="15" viewBox="0 0 15 15" fill="none" xmlns="http://www.w3.org/2000/svg">
<g clip-path="url('#clip0_16_335')">
<path d="M2.04688 3.0022C2.04688 3.0022 2.37728 2.67179 3.03809 2.01099C3.69889 1.35018 4.9681 1.01978 6.8457 1.01978C8.72331 1.01978 10.3229 1.68058 11.6445 3.0022C12.9661 4.32381 13.627 5.92342 13.627 7.80103C13.627 9.67863 12.9661 11.2782 11.6445 12.5999C10.3229 13.9215 8.72331 14.5823 6.8457 14.5823C4.9681 14.5823 3.36849 13.9215 2.04688 12.5999C0.72526 11.2782 0.0644531 9.67863 0.0644531 7.80103C0.0644531 5.92342 0.72526 4.32381 2.04688 3.0022ZM2.97656 11.6702C2.97656 11.6702 3.24316 11.9368 3.77637 12.47C4.30957 13.0032 5.33268 13.2698 6.8457 13.2698C8.35872 13.2698 9.64844 12.7366 10.7148 11.6702C11.7812 10.6038 12.3145 9.31405 12.3145 7.80103C12.3145 6.288 11.7812 4.99829 10.7148 3.93188C9.64844 2.86548 8.35872 2.33228 6.8457 2.33228C5.33268 2.33228 4.04297 2.86548 2.97656 3.93188C1.91016 4.99829 1.37695 6.288 1.37695 7.80103C1.37695 9.31405 1.91016 10.6038 2.97656 11.6702ZM8.54102 10.426L6.2168 8.73071C6.12565 8.6578 6.08008 8.56665 6.08008 8.45728V3.9729C6.08008 3.75415 6.18945 3.64478 6.4082 3.64478H7.2832C7.50195 3.64478 7.61133 3.75415 7.61133 3.9729V7.85571L9.44336 9.16821C9.60742 9.29582 9.62565 9.45077 9.49805 9.63306L9.00586 10.344C8.87825 10.5263 8.72331 10.5536 8.54102 10.426Z" fill="#7E7E7E"></path>
</g>
<defs>
<clipPath id="clip0_16_335">
<rect width="14" height="14" fill="white" transform="matrix(1 0 0 -1 0.0644531 14.801)"></rect>
</clipPath>
</defs>
</svg>
