<svg width="15" height="15" viewBox="0 0 15 15" fill="none" xmlns="http://www.w3.org/2000/svg">
<g clip-path="url('#clip0_16_47')">
<path d="M2.04688 2.91196C2.04688 2.91196 2.37728 2.58155 3.03809 1.92075C3.69889 1.25994 4.9681 0.929535 6.8457 0.929535C8.72331 0.929535 10.3229 1.59034 11.6445 2.91196C12.9661 4.23357 13.627 5.83318 13.627 7.71078C13.627 9.58839 12.9661 11.188 11.6445 12.5096C10.3229 13.8312 8.72331 14.492 6.8457 14.492C4.9681 14.492 3.36849 13.8312 2.04688 12.5096C0.72526 11.188 0.0644531 9.58839 0.0644531 7.71078C0.0644531 5.83318 0.72526 4.23357 2.04688 2.91196ZM2.97656 11.5799C2.97656 11.5799 3.24316 11.8465 3.77637 12.3797C4.30957 12.9129 5.33268 13.1795 6.8457 13.1795C8.35872 13.1795 9.64844 12.6463 10.7148 11.5799C11.7812 10.5135 12.3145 9.22381 12.3145 7.71078C12.3145 6.19776 11.7812 4.90805 10.7148 3.84164C9.64844 2.77524 8.35872 2.24203 6.8457 2.24203C5.33268 2.24203 4.04297 2.77524 2.97656 3.84164C1.91016 4.90805 1.37695 6.19776 1.37695 7.71078C1.37695 9.22381 1.91016 10.5135 2.97656 11.5799ZM8.54102 10.3358L6.2168 8.64047C6.12565 8.56756 6.08008 8.47641 6.08008 8.36703V3.88266C6.08008 3.66391 6.18945 3.55453 6.4082 3.55453H7.2832C7.50195 3.55453 7.61133 3.66391 7.61133 3.88266V7.76547L9.44336 9.07797C9.60742 9.20558 9.62565 9.36052 9.49805 9.54282L9.00586 10.2538C8.87825 10.436 8.72331 10.4634 8.54102 10.3358Z" fill="#7E7E7E"></path>
</g>
<defs>
<clipPath id="clip0_16_47">
<rect width="14" height="14" fill="white" transform="matrix(1 0 0 -1 0.0644531 14.7108)"></rect>
</clipPath>
</defs>
</svg>
