<svg width="15" height="15" viewBox="0 0 15 15" fill="none" xmlns="http://www.w3.org/2000/svg">
<g clip-path="url('#clip0_16_79')">
<path d="M2.04688 3.00195C2.04688 3.00195 2.37728 2.67155 3.03809 2.01074C3.69889 1.34993 4.9681 1.01953 6.8457 1.01953C8.72331 1.01953 10.3229 1.68034 11.6445 3.00195C12.9661 4.32357 13.627 5.92318 13.627 7.80078C13.627 9.67839 12.9661 11.278 11.6445 12.5996C10.3229 13.9212 8.72331 14.582 6.8457 14.582C4.9681 14.582 3.36849 13.9212 2.04688 12.5996C0.72526 11.278 0.0644531 9.67839 0.0644531 7.80078C0.0644531 5.92318 0.72526 4.32357 2.04688 3.00195ZM2.97656 11.6699C2.97656 11.6699 3.24316 11.9365 3.77637 12.4697C4.30957 13.0029 5.33268 13.2695 6.8457 13.2695C8.35872 13.2695 9.64844 12.7363 10.7148 11.6699C11.7812 10.6035 12.3145 9.3138 12.3145 7.80078C12.3145 6.28776 11.7812 4.99805 10.7148 3.93164C9.64844 2.86523 8.35872 2.33203 6.8457 2.33203C5.33268 2.33203 4.04297 2.86523 2.97656 3.93164C1.91016 4.99805 1.37695 6.28776 1.37695 7.80078C1.37695 9.3138 1.91016 10.6035 2.97656 11.6699ZM8.54102 10.4258L6.2168 8.73047C6.12565 8.65755 6.08008 8.56641 6.08008 8.45703V3.97266C6.08008 3.75391 6.18945 3.64453 6.4082 3.64453H7.2832C7.50195 3.64453 7.61133 3.75391 7.61133 3.97266V7.85547L9.44336 9.16797C9.60742 9.29557 9.62565 9.45052 9.49805 9.63281L9.00586 10.3438C8.87825 10.526 8.72331 10.5534 8.54102 10.4258Z" fill="#7E7E7E"></path>
</g>
<defs>
<clipPath id="clip0_16_79">
<rect width="14" height="14" fill="white" transform="matrix(1 0 0 -1 0.0644531 14.8008)"></rect>
</clipPath>
</defs>
</svg>
