<svg width="23" height="2" viewBox="0 0 23 2" fill="none" xmlns="http://www.w3.org/2000/svg">
<g clip-path="url('#clip0_1_656')">
<path d="M3.98429 0.967285C3.98429 0.967285 4.48493 0.943685 5.4862 0.896484C6.48748 0.849284 8.41061 0.825684 11.2556 0.825684C14.1006 0.825684 16.5244 0.872884 18.5269 0.967285C20.5295 1.06169 21.5308 1.17594 21.5308 1.31006C21.5308 1.44417 20.5295 1.55843 18.5269 1.65283C16.5244 1.74723 14.1006 1.79443 11.2556 1.79443C8.41061 1.79443 5.98684 1.74723 3.98429 1.65283C1.98174 1.55843 0.980469 1.44417 0.980469 1.31006C0.980469 1.17594 1.98174 1.06169 3.98429 0.967285ZM5.39298 1.58643C5.39298 1.58643 5.79694 1.60547 6.60487 1.64355C7.41279 1.68164 8.96304 1.70068 11.2556 1.70068C13.5482 1.70068 15.5024 1.6626 17.1182 1.58643C18.7341 1.51025 19.542 1.41813 19.542 1.31006C19.542 1.20199 18.7341 1.10986 17.1182 1.03369C15.5024 0.95752 13.5482 0.919434 11.2556 0.919434C8.96304 0.919434 7.00883 0.95752 5.39298 1.03369C3.77713 1.10986 2.96921 1.20199 2.96921 1.31006C2.96921 1.41813 3.77713 1.51025 5.39298 1.58643ZM13.8244 1.49756L10.3027 1.37646C10.1646 1.37126 10.0955 1.36475 10.0955 1.35693V1.03662C10.0955 1.021 10.2612 1.01318 10.5927 1.01318H11.9185C12.25 1.01318 12.4157 1.021 12.4157 1.03662V1.31396L15.1917 1.40771C15.4403 1.41683 15.4679 1.4279 15.2745 1.44092L14.5287 1.4917C14.3354 1.50472 14.1006 1.50667 13.8244 1.49756Z" fill="#696969"></path>
</g>
<defs>
<clipPath id="clip0_1_656">
<rect width="21.2132" height="1" fill="white" transform="matrix(1 0 0 -1 0.980469 1.81006)"></rect>
</clipPath>
</defs>
</svg>
