<svg width="25" height="2" viewBox="0 0 25 2" fill="none" xmlns="http://www.w3.org/2000/svg">
<g clip-path="url('#clip0_1_667')">
<path d="M23.1598 0.484985C23.4664 0.484985 23.7243 0.490845 23.9333 0.502563C24.1424 0.514282 24.2051 0.527303 24.1215 0.541626L22.24 0.947876C22.1842 0.958293 22.0657 0.967082 21.8846 0.974243C21.7034 0.981405 21.5013 0.984985 21.2783 0.984985H8.19143L8.60954 1.07874H20.4003C20.7069 1.07874 20.9647 1.08459 21.1738 1.09631C21.3828 1.10803 21.4455 1.12105 21.3619 1.13538L21.3201 1.14514C21.8776 1.16988 22.1563 1.19983 22.1563 1.23499C22.1563 1.27014 21.8985 1.29976 21.3828 1.32385C20.8672 1.34794 20.233 1.35999 19.4804 1.35999C18.7278 1.35999 18.0937 1.34794 17.578 1.32385C17.0624 1.29976 16.8045 1.27014 16.8045 1.23499C16.8045 1.21285 16.9299 1.19202 17.1808 1.17249H11.0764C11.3273 1.19202 11.4527 1.21285 11.4527 1.23499C11.4527 1.27014 11.1949 1.29976 10.6792 1.32385C10.1635 1.34794 9.52939 1.35999 8.77679 1.35999C8.02419 1.35999 7.39005 1.34794 6.87438 1.32385C6.35871 1.29976 6.10088 1.27014 6.10088 1.23499C6.10088 1.20113 6.35174 1.17249 6.85348 1.14905L3.9267 0.453735H0.581811C0.247322 0.453735 0.0800781 0.445923 0.0800781 0.430298V0.383423C0.0800781 0.367798 0.247322 0.359985 0.581811 0.359985H4.76292C4.93016 0.359985 5.08347 0.361613 5.22284 0.364868C5.36221 0.368123 5.47371 0.372681 5.55733 0.37854C5.64095 0.384399 5.71064 0.390584 5.76639 0.397095L6.10088 0.484985H23.1598ZM8.066 1.26819C8.066 1.26819 8.11478 1.27047 8.21234 1.27502C8.3099 1.27958 8.49804 1.28186 8.77679 1.28186C9.05553 1.28186 9.29246 1.2773 9.48757 1.26819C9.68269 1.25907 9.78025 1.24801 9.78025 1.23499C9.78025 1.22196 9.68269 1.2109 9.48757 1.20178C9.29246 1.19267 9.05553 1.18811 8.77679 1.18811C8.49804 1.18811 8.26112 1.19267 8.066 1.20178C7.87088 1.2109 7.77332 1.22196 7.77332 1.23499C7.77332 1.24801 7.87088 1.25907 8.066 1.26819ZM18.7696 1.26819C18.7696 1.26819 18.8184 1.27047 18.916 1.27502C19.0135 1.27958 19.2017 1.28186 19.4804 1.28186C19.7592 1.28186 19.9961 1.2773 20.1912 1.26819C20.3863 1.25907 20.4839 1.24801 20.4839 1.23499C20.4839 1.22196 20.3863 1.2109 20.1912 1.20178C19.9961 1.19267 19.7592 1.18811 19.4804 1.18811C19.2017 1.18811 18.9648 1.19267 18.7696 1.20178C18.5745 1.2109 18.477 1.22196 18.477 1.23499C18.477 1.24801 18.5745 1.25907 18.7696 1.26819ZM20.4421 0.891235L21.9055 0.578735H6.51899L7.81513 0.891235H20.4421Z" fill="white"></path>
</g>
<defs>
<clipPath id="clip0_1_667">
<rect width="24.0832" height="1" fill="white" transform="matrix(1 0 0 -1 0.0800781 1.35999)"></rect>
</clipPath>
</defs>
</svg>
