<svg width="20" height="2" viewBox="0 0 20 2" fill="none" xmlns="http://www.w3.org/2000/svg">
<g clip-path="url('#clip0_16_448')">
<path d="M17.7854 0.97583C18.7134 1.01619 19.3322 1.06405 19.6415 1.11938C19.9509 1.17472 19.9638 1.22778 19.6802 1.27856C19.3966 1.32935 18.9068 1.37297 18.2107 1.40942L11.4435 1.75708C11.031 1.77791 10.5412 1.78833 9.97404 1.78833C9.40688 1.78833 8.91706 1.77791 8.50458 1.75708L1.73735 1.40942C1.04129 1.37297 0.55147 1.32902 0.26789 1.27759C-0.0156889 1.22616 -0.00279889 1.1731 0.30656 1.11841C0.61592 1.06372 1.23464 1.01619 2.16272 0.97583C3.27125 0.928955 4.57958 0.908447 6.08771 0.914307C7.59584 0.920166 8.89128 0.950439 9.97404 1.00513C11.0568 0.950439 12.3522 0.920166 13.8604 0.914307C15.3685 0.908447 16.6768 0.928955 17.7854 0.97583ZM16.8959 1.34302C17.6436 1.30396 18.0174 1.2561 18.0174 1.19946C18.0174 1.14282 17.5533 1.09237 16.6253 1.0481C15.8519 1.01685 14.956 1.00317 13.9377 1.00708C12.9194 1.01099 12.0493 1.03182 11.3275 1.06958L9.97404 1.13794L8.62059 1.06958C7.89875 1.03182 7.02868 1.01099 6.01037 1.00708C4.99206 1.00317 4.09621 1.01685 3.32281 1.0481C2.39474 1.09237 1.9307 1.14282 1.9307 1.19946C1.9307 1.2561 2.30451 1.30396 3.05212 1.34302L9.85803 1.69067C9.93537 1.69588 10.0127 1.69588 10.09 1.69067L16.8959 1.34302Z" fill="#0071DC"></path>
</g>
<defs>
<clipPath id="clip0_16_448">
<rect width="19.799" height="1" fill="white" transform="matrix(1 0 0 -1 0.0644531 1.85083)"></rect>
</clipPath>
</defs>
</svg>
