<svg width="13" height="15" viewBox="0 0 13 15" fill="none" xmlns="http://www.w3.org/2000/svg">
<g clip-path="url('#clip0_4_2378')">
<path d="M10.9375 2.27002C11.3021 2.27002 11.612 2.39762 11.8672 2.65283C12.1224 2.90804 12.25 3.21794 12.25 3.58252V13.2075C12.25 13.5721 12.1224 13.882 11.8672 14.1372C11.612 14.3924 11.3021 14.52 10.9375 14.52H1.3125C0.947917 14.52 0.638021 14.3924 0.382812 14.1372C0.127604 13.882 0 13.5721 0 13.2075V3.58252C0 3.21794 0.127604 2.90804 0.382812 2.65283C0.638021 2.39762 0.947917 2.27002 1.3125 2.27002H2.625V0.848145C2.625 0.629395 2.73438 0.52002 2.95312 0.52002H4.04688C4.26562 0.52002 4.375 0.629395 4.375 0.848145V2.27002H7.875V0.848145C7.875 0.629395 7.98438 0.52002 8.20312 0.52002H9.29688C9.51562 0.52002 9.625 0.629395 9.625 0.848145V2.27002H10.9375ZM10.7734 13.2075C10.8828 13.2075 10.9375 13.1528 10.9375 13.0435V4.89502H1.3125V13.0435C1.3125 13.1528 1.36719 13.2075 1.47656 13.2075H10.7734Z" fill="#7E7E7E"></path>
</g>
<defs>
<clipPath id="clip0_4_2378">
<rect width="12.25" height="14" fill="white" transform="matrix(1 0 0 -1 0 14.52)"></rect>
</clipPath>
</defs>
</svg>
