<svg width="15" height="15" viewBox="0 0 15 15" fill="none" xmlns="http://www.w3.org/2000/svg">
<g clip-path="url('#clip0_16_339')">
<path d="M14.3169 2.76978C14.4445 2.76978 14.5493 2.81079 14.6313 2.89282C14.7134 2.97485 14.7544 3.07967 14.7544 3.20728V3.64478C14.7544 3.77238 14.7134 3.8772 14.6313 3.95923C14.5493 4.04126 14.4445 4.08228 14.3169 4.08228H8.62939V4.73853C8.62939 4.86613 8.58838 4.97095 8.50635 5.05298C8.42432 5.13501 8.3195 5.17603 8.19189 5.17603H7.31689C7.18929 5.17603 7.08447 5.13501 7.00244 5.05298C6.92041 4.97095 6.87939 4.86613 6.87939 4.73853V4.08228H1.19189C1.06429 4.08228 0.959473 4.04126 0.877441 3.95923C0.79541 3.8772 0.754395 3.77238 0.754395 3.64478V3.20728C0.754395 3.07967 0.79541 2.97485 0.877441 2.89282C0.959473 2.81079 1.06429 2.76978 1.19189 2.76978H6.87939V2.11353C6.87939 1.98592 6.92041 1.8811 7.00244 1.79907C7.08447 1.71704 7.18929 1.67603 7.31689 1.67603H8.19189C8.3195 1.67603 8.42432 1.71704 8.50635 1.79907C8.58838 1.8811 8.62939 1.98592 8.62939 2.11353V2.76978H14.3169ZM14.3169 11.5198C14.4445 11.5198 14.5493 11.5608 14.6313 11.6428C14.7134 11.7249 14.7544 11.8297 14.7544 11.9573V12.3948C14.7544 12.5224 14.7134 12.6272 14.6313 12.7092C14.5493 12.7913 14.4445 12.8323 14.3169 12.8323H5.12939V13.4885C5.12939 13.6161 5.08838 13.7209 5.00635 13.803C4.92432 13.885 4.8195 13.926 4.69189 13.926H3.81689C3.68929 13.926 3.58447 13.885 3.50244 13.803C3.42041 13.7209 3.37939 13.6161 3.37939 13.4885V12.8323H1.19189C1.06429 12.8323 0.959473 12.7913 0.877441 12.7092C0.79541 12.6272 0.754395 12.5224 0.754395 12.3948V11.9573C0.754395 11.8297 0.79541 11.7249 0.877441 11.6428C0.959473 11.5608 1.06429 11.5198 1.19189 11.5198H3.37939V10.8635C3.37939 10.7359 3.42041 10.6311 3.50244 10.5491C3.58447 10.467 3.68929 10.426 3.81689 10.426H4.69189C4.8195 10.426 4.92432 10.467 5.00635 10.5491C5.08838 10.6311 5.12939 10.7359 5.12939 10.8635V11.5198H14.3169ZM14.3169 7.14478C14.4445 7.14478 14.5493 7.18579 14.6313 7.26782C14.7134 7.34985 14.7544 7.45467 14.7544 7.58228V8.01978C14.7544 8.14738 14.7134 8.2522 14.6313 8.33423C14.5493 8.41626 14.4445 8.45728 14.3169 8.45728H12.1294V9.11353C12.1294 9.24113 12.0884 9.34595 12.0063 9.42798C11.9243 9.51001 11.8195 9.55103 11.6919 9.55103H10.8169C10.6893 9.55103 10.5845 9.51001 10.5024 9.42798C10.4204 9.34595 10.3794 9.24113 10.3794 9.11353V8.45728H1.19189C1.06429 8.45728 0.959473 8.41626 0.877441 8.33423C0.79541 8.2522 0.754395 8.14738 0.754395 8.01978V7.58228C0.754395 7.45467 0.79541 7.34985 0.877441 7.26782C0.959473 7.18579 1.06429 7.14478 1.19189 7.14478H10.3794V6.48853C10.3794 6.36092 10.4204 6.2561 10.5024 6.17407C10.5845 6.09204 10.6893 6.05103 10.8169 6.05103H11.6919C11.8195 6.05103 11.9243 6.09204 12.0063 6.17407C12.0884 6.2561 12.1294 6.36092 12.1294 6.48853V7.14478H14.3169Z" fill="#7E7E7E"></path>
</g>
<defs>
<clipPath id="clip0_16_339">
<rect width="14" height="14" fill="white" transform="matrix(1 0 0 -1 0.754395 14.801)"></rect>
</clipPath>
</defs>
</svg>
