<svg width="15" height="15" viewBox="0 0 15 15" fill="none" xmlns="http://www.w3.org/2000/svg">
<g clip-path="url('#clip0_16_435')">
<path d="M14.217 2.78955C14.3446 2.78955 14.4495 2.83057 14.5315 2.9126C14.6135 2.99463 14.6545 3.09945 14.6545 3.22705V3.66455C14.6545 3.79216 14.6135 3.89697 14.5315 3.979C14.4495 4.06104 14.3446 4.10205 14.217 4.10205H8.52954V4.7583C8.52954 4.88591 8.48853 4.99072 8.40649 5.07275C8.32446 5.15479 8.21965 5.1958 8.09204 5.1958H7.21704C7.08944 5.1958 6.98462 5.15479 6.90259 5.07275C6.82056 4.99072 6.77954 4.88591 6.77954 4.7583V4.10205H1.09204C0.964437 4.10205 0.859619 4.06104 0.777588 3.979C0.695557 3.89697 0.654541 3.79216 0.654541 3.66455V3.22705C0.654541 3.09945 0.695557 2.99463 0.777588 2.9126C0.859619 2.83057 0.964437 2.78955 1.09204 2.78955H6.77954V2.1333C6.77954 2.0057 6.82056 1.90088 6.90259 1.81885C6.98462 1.73682 7.08944 1.6958 7.21704 1.6958H8.09204C8.21965 1.6958 8.32446 1.73682 8.40649 1.81885C8.48853 1.90088 8.52954 2.0057 8.52954 2.1333V2.78955H14.217ZM14.217 11.5396C14.3446 11.5396 14.4495 11.5806 14.5315 11.6626C14.6135 11.7446 14.6545 11.8494 14.6545 11.9771V12.4146C14.6545 12.5422 14.6135 12.647 14.5315 12.729C14.4495 12.811 14.3446 12.8521 14.217 12.8521H5.02954V13.5083C5.02954 13.6359 4.98853 13.7407 4.90649 13.8228C4.82446 13.9048 4.71965 13.9458 4.59204 13.9458H3.71704C3.58944 13.9458 3.48462 13.9048 3.40259 13.8228C3.32056 13.7407 3.27954 13.6359 3.27954 13.5083V12.8521H1.09204C0.964437 12.8521 0.859619 12.811 0.777588 12.729C0.695557 12.647 0.654541 12.5422 0.654541 12.4146V11.9771C0.654541 11.8494 0.695557 11.7446 0.777588 11.6626C0.859619 11.5806 0.964437 11.5396 1.09204 11.5396H3.27954V10.8833C3.27954 10.7557 3.32056 10.6509 3.40259 10.5688C3.48462 10.4868 3.58944 10.4458 3.71704 10.4458H4.59204C4.71965 10.4458 4.82446 10.4868 4.90649 10.5688C4.98853 10.6509 5.02954 10.7557 5.02954 10.8833V11.5396H14.217ZM14.217 7.16455C14.3446 7.16455 14.4495 7.20557 14.5315 7.2876C14.6135 7.36963 14.6545 7.47445 14.6545 7.60205V8.03955C14.6545 8.16715 14.6135 8.27197 14.5315 8.354C14.4495 8.43604 14.3446 8.47705 14.217 8.47705H12.0295V9.1333C12.0295 9.2609 11.9885 9.36572 11.9065 9.44775C11.8245 9.52979 11.7196 9.5708 11.592 9.5708H10.717C10.5894 9.5708 10.4846 9.52979 10.4026 9.44775C10.3206 9.36572 10.2795 9.2609 10.2795 9.1333V8.47705H1.09204C0.964437 8.47705 0.859619 8.43604 0.777588 8.354C0.695557 8.27197 0.654541 8.16715 0.654541 8.03955V7.60205C0.654541 7.47445 0.695557 7.36963 0.777588 7.2876C0.859619 7.20557 0.964437 7.16455 1.09204 7.16455H10.2795V6.5083C10.2795 6.3807 10.3206 6.27588 10.4026 6.19385C10.4846 6.11182 10.5894 6.0708 10.717 6.0708H11.592C11.7196 6.0708 11.8245 6.11182 11.9065 6.19385C11.9885 6.27588 12.0295 6.3807 12.0295 6.5083V7.16455H14.217Z" fill="#7E7E7E"></path>
</g>
<defs>
<clipPath id="clip0_16_435">
<rect width="14" height="14" fill="white" transform="matrix(1 0 0 -1 0.654541 14.8208)"></rect>
</clipPath>
</defs>
</svg>
