<svg width="20" height="2" viewBox="0 0 20 2" fill="none" xmlns="http://www.w3.org/2000/svg">
<g clip-path="url('#clip0_16_64')">
<path d="M17.7854 0.895782C18.7134 0.936147 19.3322 0.983999 19.6415 1.03934C19.9509 1.09468 19.9638 1.14774 19.6802 1.19852C19.3966 1.2493 18.9068 1.29292 18.2107 1.32938L11.4435 1.67703C11.031 1.69787 10.5412 1.70828 9.97404 1.70828C9.40688 1.70828 8.91706 1.69787 8.50458 1.67703L1.73735 1.32938C1.04129 1.29292 0.55147 1.24897 0.26789 1.19754C-0.0156889 1.14611 -0.00279889 1.09305 0.30656 1.03836C0.61592 0.983673 1.23464 0.936147 2.16272 0.895782C3.27125 0.848907 4.57958 0.8284 6.08771 0.834259C7.59584 0.840118 8.89128 0.870392 9.97404 0.925079C11.0568 0.870392 12.3522 0.840118 13.8604 0.834259C15.3685 0.8284 16.6768 0.848907 17.7854 0.895782ZM16.8959 1.26297C17.6436 1.22391 18.0174 1.17606 18.0174 1.11942C18.0174 1.06277 17.5533 1.01232 16.6253 0.968048C15.8519 0.936798 14.956 0.923126 13.9377 0.927032C12.9194 0.930939 12.0493 0.951772 11.3275 0.989532L9.97404 1.05789L8.62059 0.989532C7.89875 0.951772 7.02868 0.930939 6.01037 0.927032C4.99206 0.923126 4.09621 0.936798 3.32281 0.968048C2.39474 1.01232 1.9307 1.06277 1.9307 1.11942C1.9307 1.17606 2.30451 1.22391 3.05212 1.26297L9.85803 1.61063C9.93537 1.61583 10.0127 1.61583 10.09 1.61063L16.8959 1.26297Z" fill="#0071DC"></path>
</g>
<defs>
<clipPath id="clip0_16_64">
<rect width="19.799" height="1" fill="white" transform="matrix(1 0 0 -1 0.0644531 1.77078)"></rect>
</clipPath>
</defs>
</svg>
