<svg width="15" height="15" viewBox="0 0 15 15" fill="none" xmlns="http://www.w3.org/2000/svg">
<g clip-path="url('#clip0_16_211')">
<path d="M13.8269 2.76953C13.9545 2.76953 14.0593 2.81055 14.1414 2.89258C14.2234 2.97461 14.2644 3.07943 14.2644 3.20703V3.64453C14.2644 3.77214 14.2234 3.87695 14.1414 3.95898C14.0593 4.04102 13.9545 4.08203 13.8269 4.08203H8.1394V4.73828C8.1394 4.86589 8.09839 4.9707 8.01636 5.05273C7.93433 5.13477 7.82951 5.17578 7.7019 5.17578H6.8269C6.6993 5.17578 6.59448 5.13477 6.51245 5.05273C6.43042 4.9707 6.3894 4.86589 6.3894 4.73828V4.08203H0.701904C0.5743 4.08203 0.469482 4.04102 0.387451 3.95898C0.30542 3.87695 0.264404 3.77214 0.264404 3.64453V3.20703C0.264404 3.07943 0.30542 2.97461 0.387451 2.89258C0.469482 2.81055 0.5743 2.76953 0.701904 2.76953H6.3894V2.11328C6.3894 1.98568 6.43042 1.88086 6.51245 1.79883C6.59448 1.7168 6.6993 1.67578 6.8269 1.67578H7.7019C7.82951 1.67578 7.93433 1.7168 8.01636 1.79883C8.09839 1.88086 8.1394 1.98568 8.1394 2.11328V2.76953H13.8269ZM13.8269 11.5195C13.9545 11.5195 14.0593 11.5605 14.1414 11.6426C14.2234 11.7246 14.2644 11.8294 14.2644 11.957V12.3945C14.2644 12.5221 14.2234 12.627 14.1414 12.709C14.0593 12.791 13.9545 12.832 13.8269 12.832H4.6394V13.4883C4.6394 13.6159 4.59839 13.7207 4.51636 13.8027C4.43433 13.8848 4.32951 13.9258 4.2019 13.9258H3.3269C3.1993 13.9258 3.09448 13.8848 3.01245 13.8027C2.93042 13.7207 2.8894 13.6159 2.8894 13.4883V12.832H0.701904C0.5743 12.832 0.469482 12.791 0.387451 12.709C0.30542 12.627 0.264404 12.5221 0.264404 12.3945V11.957C0.264404 11.8294 0.30542 11.7246 0.387451 11.6426C0.469482 11.5605 0.5743 11.5195 0.701904 11.5195H2.8894V10.8633C2.8894 10.7357 2.93042 10.6309 3.01245 10.5488C3.09448 10.4668 3.1993 10.4258 3.3269 10.4258H4.2019C4.32951 10.4258 4.43433 10.4668 4.51636 10.5488C4.59839 10.6309 4.6394 10.7357 4.6394 10.8633V11.5195H13.8269ZM13.8269 7.14453C13.9545 7.14453 14.0593 7.18555 14.1414 7.26758C14.2234 7.34961 14.2644 7.45443 14.2644 7.58203V8.01953C14.2644 8.14714 14.2234 8.25195 14.1414 8.33398C14.0593 8.41602 13.9545 8.45703 13.8269 8.45703H11.6394V9.11328C11.6394 9.24089 11.5984 9.3457 11.5164 9.42773C11.4343 9.50977 11.3295 9.55078 11.2019 9.55078H10.3269C10.1993 9.55078 10.0945 9.50977 10.0125 9.42773C9.93042 9.3457 9.8894 9.24089 9.8894 9.11328V8.45703H0.701904C0.5743 8.45703 0.469482 8.41602 0.387451 8.33398C0.30542 8.25195 0.264404 8.14714 0.264404 8.01953V7.58203C0.264404 7.45443 0.30542 7.34961 0.387451 7.26758C0.469482 7.18555 0.5743 7.14453 0.701904 7.14453H9.8894V6.48828C9.8894 6.36068 9.93042 6.25586 10.0125 6.17383C10.0945 6.0918 10.1993 6.05078 10.3269 6.05078H11.2019C11.3295 6.05078 11.4343 6.0918 11.5164 6.17383C11.5984 6.25586 11.6394 6.36068 11.6394 6.48828V7.14453H13.8269Z" fill="#7E7E7E"></path>
</g>
<defs>
<clipPath id="clip0_16_211">
<rect width="14" height="14" fill="white" transform="matrix(1 0 0 -1 0.264404 14.8008)"></rect>
</clipPath>
</defs>
</svg>
