<svg width="76" height="61" viewBox="0 0 76 61" fill="none" xmlns="http://www.w3.org/2000/svg">
<g clip-path="url('#clip0_4_1908')">
<path d="M64.4688 27.2188C64.4688 27.2188 63.9219 27.7656 62.8281 28.8594C61.7344 29.9531 59.625 30.5 56.5 30.5C53.375 30.5 50.7188 29.4062 48.5312 27.2188C46.3438 25.0312 45.25 22.375 45.25 19.25C45.25 16.125 46.3438 13.4688 48.5312 11.2812C50.7188 9.09375 53.375 8 56.5 8C59.625 8 62.2812 9.09375 64.4688 11.2812C66.6562 13.4688 67.75 16.125 67.75 19.25C67.75 22.375 66.6562 25.0312 64.4688 27.2188ZM60.4844 15.2656C60.4844 15.2656 60.2109 14.9922 59.6641 14.4453C59.1172 13.8984 58.0625 13.625 56.5 13.625C54.9375 13.625 53.6094 14.1719 52.5156 15.2656C51.4219 16.3594 50.875 17.6875 50.875 19.25C50.875 20.8125 51.4219 22.1406 52.5156 23.2344C53.6094 24.3281 54.9375 24.875 56.5 24.875C58.0625 24.875 59.3906 24.3281 60.4844 23.2344C61.5781 22.1406 62.125 20.8125 62.125 19.25C62.125 17.6875 61.5781 16.3594 60.4844 15.2656ZM32.125 32.8438C36.8906 32.8438 40.4844 34.6797 42.9062 38.3516C44.4688 40.6172 45.25 43.1172 45.25 45.8516V51.125C45.25 52.6875 44.7031 54.0156 43.6094 55.1094C42.5156 56.2031 41.1875 56.75 39.625 56.75H5.875C4.3125 56.75 2.98438 56.2031 1.89062 55.1094C0.796875 54.0156 0.25 52.6875 0.25 51.125V45.8516C0.25 43.1172 0.992187 40.6172 2.47656 38.3516C4.97656 34.6797 8.60938 32.8438 13.375 32.8438C14.7812 32.8438 16.1484 33.0391 17.4766 33.4297C19.1953 33.9766 20.9336 34.25 22.6914 34.25C24.4492 34.25 26.2266 33.9766 28.0234 33.4297C29.3516 33.0391 30.7188 32.8438 32.125 32.8438ZM39.625 51.125V45.8516C39.625 44.2109 39.1562 42.707 38.2188 41.3398C37.2812 39.9727 36.0312 39.0156 34.4688 38.4688C33.2188 38 31.9688 38 30.7188 38.4688C28.1406 39.4062 25.4844 39.875 22.75 39.875C20.0156 39.875 17.3594 39.4062 14.7812 38.4688C13.5312 38 12.2812 38 11.0312 38.4688C9.54688 39.0156 8.31641 39.9727 7.33984 41.3398C6.36328 42.707 5.875 44.2109 5.875 45.8516V51.125H39.625ZM32.0078 26.6328C32.0078 26.6328 31.3633 27.2773 30.0742 28.5664C28.7852 29.8555 26.3438 30.5 22.75 30.5C19.1562 30.5 16.0703 29.2109 13.4922 26.6328C10.9141 24.0547 9.625 20.9688 9.625 17.375C9.625 13.7812 10.9141 10.6953 13.4922 8.11719C16.0703 5.53906 19.1562 4.25 22.75 4.25C26.3438 4.25 29.4297 5.53906 32.0078 8.11719C34.5859 10.6953 35.875 13.7812 35.875 17.375C35.875 20.9688 34.5859 24.0547 32.0078 26.6328ZM28.0234 12.1016C28.0234 12.1016 27.6523 11.7305 26.9102 10.9883C26.168 10.2461 24.7812 9.875 22.75 9.875C20.7188 9.875 18.9609 10.6172 17.4766 12.1016C15.9922 13.5859 15.25 15.3438 15.25 17.375C15.25 19.4062 15.9922 21.1641 17.4766 22.6484C18.9609 24.1328 20.7188 24.875 22.75 24.875C24.7812 24.875 26.5391 24.1328 28.0234 22.6484C29.5078 21.1641 30.25 19.4062 30.25 17.375C30.25 15.3438 29.5078 13.5859 28.0234 12.1016ZM73.375 37.6484C74.625 39.5234 75.25 41.6328 75.25 43.9766V48.3125C75.25 49.6406 74.8008 50.7539 73.9023 51.6523C73.0039 52.5508 71.8906 53 70.5625 53H48.7656C48.9219 52.375 49 51.75 49 51.125V47.375H69.625V43.8594C69.625 42.7656 69.3125 41.75 68.6875 40.8125C67.75 39.4062 66.3047 38.7031 64.3516 38.7031C63.8828 38.7031 62.8672 38.8984 61.3047 39.2891C59.7422 39.6797 58.1406 39.875 56.5 39.875C54.8594 39.875 53.2578 39.6797 51.6953 39.2891C50.1328 38.8984 49.1172 38.7031 48.6484 38.7031C48.2578 38.7031 47.8672 38.7422 47.4766 38.8203C47.0078 37.8828 46.5391 37.0234 46.0703 36.2422C45.6016 35.5391 44.9766 34.7969 44.1953 34.0156C45.6797 33.3906 47.1641 33.0781 48.6484 33.0781C49.7422 33.0781 50.9922 33.2734 52.3984 33.6641C53.8047 34.0547 55.1719 34.25 56.5 34.25C57.8281 34.25 59.1953 34.0547 60.6016 33.6641C62.0078 33.2734 63.2578 33.0781 64.3516 33.0781C68.2578 33.0781 71.2656 34.6016 73.375 37.6484Z" fill="#138CCC"></path>
</g>
<defs>
<clipPath id="clip0_4_1908">
<rect width="75" height="61" fill="white" transform="matrix(1 0 0 -1 0.25 61)"></rect>
</clipPath>
</defs>
</svg>
