<svg width="15" height="15" viewBox="0 0 15 15" fill="none" xmlns="http://www.w3.org/2000/svg">
<g clip-path="url('#clip0_16_115')">
<path d="M14.0469 2.76956C14.1745 2.76956 14.2793 2.81058 14.3613 2.89261C14.4434 2.97464 14.4844 3.07946 14.4844 3.20706V3.64456C14.4844 3.77217 14.4434 3.87698 14.3613 3.95901C14.2793 4.04105 14.1745 4.08206 14.0469 4.08206H8.35938V4.73831C8.35938 4.86592 8.31836 4.97073 8.23633 5.05276C8.1543 5.1348 8.04948 5.17581 7.92188 5.17581H7.04688C6.91927 5.17581 6.81445 5.1348 6.73242 5.05276C6.65039 4.97073 6.60938 4.86592 6.60938 4.73831V4.08206H0.921875C0.794271 4.08206 0.689453 4.04105 0.607422 3.95901C0.525391 3.87698 0.484375 3.77217 0.484375 3.64456V3.20706C0.484375 3.07946 0.525391 2.97464 0.607422 2.89261C0.689453 2.81058 0.794271 2.76956 0.921875 2.76956H6.60938V2.11331C6.60938 1.98571 6.65039 1.88089 6.73242 1.79886C6.81445 1.71683 6.91927 1.67581 7.04688 1.67581H7.92188C8.04948 1.67581 8.1543 1.71683 8.23633 1.79886C8.31836 1.88089 8.35938 1.98571 8.35938 2.11331V2.76956H14.0469ZM14.0469 11.5196C14.1745 11.5196 14.2793 11.5606 14.3613 11.6426C14.4434 11.7246 14.4844 11.8295 14.4844 11.9571V12.3946C14.4844 12.5222 14.4434 12.627 14.3613 12.709C14.2793 12.791 14.1745 12.8321 14.0469 12.8321H4.85938V13.4883C4.85938 13.6159 4.81836 13.7207 4.73633 13.8028C4.6543 13.8848 4.54948 13.9258 4.42188 13.9258H3.54688C3.41927 13.9258 3.31445 13.8848 3.23242 13.8028C3.15039 13.7207 3.10938 13.6159 3.10938 13.4883V12.8321H0.921875C0.794271 12.8321 0.689453 12.791 0.607422 12.709C0.525391 12.627 0.484375 12.5222 0.484375 12.3946V11.9571C0.484375 11.8295 0.525391 11.7246 0.607422 11.6426C0.689453 11.5606 0.794271 11.5196 0.921875 11.5196H3.10938V10.8633C3.10938 10.7357 3.15039 10.6309 3.23242 10.5489C3.31445 10.4668 3.41927 10.4258 3.54688 10.4258H4.42188C4.54948 10.4258 4.6543 10.4668 4.73633 10.5489C4.81836 10.6309 4.85938 10.7357 4.85938 10.8633V11.5196H14.0469ZM14.0469 7.14456C14.1745 7.14456 14.2793 7.18558 14.3613 7.26761C14.4434 7.34964 14.4844 7.45446 14.4844 7.58206V8.01956C14.4844 8.14717 14.4434 8.25198 14.3613 8.33401C14.2793 8.41605 14.1745 8.45706 14.0469 8.45706H11.8594V9.11331C11.8594 9.24092 11.8184 9.34573 11.7363 9.42776C11.6543 9.5098 11.5495 9.55081 11.4219 9.55081H10.5469C10.4193 9.55081 10.3145 9.5098 10.2324 9.42776C10.1504 9.34573 10.1094 9.24092 10.1094 9.11331V8.45706H0.921875C0.794271 8.45706 0.689453 8.41605 0.607422 8.33401C0.525391 8.25198 0.484375 8.14717 0.484375 8.01956V7.58206C0.484375 7.45446 0.525391 7.34964 0.607422 7.26761C0.689453 7.18558 0.794271 7.14456 0.921875 7.14456H10.1094V6.48831C10.1094 6.36071 10.1504 6.25589 10.2324 6.17386C10.3145 6.09183 10.4193 6.05081 10.5469 6.05081H11.4219C11.5495 6.05081 11.6543 6.09183 11.7363 6.17386C11.8184 6.25589 11.8594 6.36071 11.8594 6.48831V7.14456H14.0469Z" fill="#7E7E7E"></path>
</g>
<defs>
<clipPath id="clip0_16_115">
<rect width="14" height="14" fill="white" transform="matrix(1 0 0 -1 0.484375 14.8008)"></rect>
</clipPath>
</defs>
</svg>
