<svg width="39" height="39" viewBox="0 0 39 39" fill="none" xmlns="http://www.w3.org/2000/svg">
<g clip-path="url('#clip0_4_2211')">
<path d="M25.2451 13.7412L26.9521 15.5225C27.2985 15.8688 27.2985 16.2152 26.9521 16.5615L18.1943 25.2451C17.848 25.5915 17.5016 25.5915 17.1553 25.2451L12.1084 20.124C11.762 19.7777 11.762 19.4313 12.1084 19.085L13.8896 17.3779C14.236 17.0316 14.5824 17.0316 14.9287 17.3779L17.6748 20.1982L24.2061 13.7412C24.5524 13.3949 24.8988 13.3949 25.2451 13.7412ZM35.042 13.0732C37.3675 14.6071 38.5303 16.7594 38.5303 19.5303C38.5303 22.3011 37.3675 24.4535 35.042 25.9873C35.6357 28.6592 34.943 30.9847 32.9639 32.9639C30.9847 34.943 28.6592 35.6357 25.9873 35.042C24.4535 37.3675 22.3011 38.5303 19.5303 38.5303C16.7594 38.5303 14.6071 37.3675 13.0732 35.042C10.3519 35.6357 8.014 34.943 6.05957 32.9639C4.10514 30.9847 3.4248 28.6592 4.01855 25.9873C1.69303 24.4535 0.530273 22.3011 0.530273 19.5303C0.530273 16.7594 1.69303 14.6071 4.01855 13.0732C3.4248 10.4014 4.11751 8.07585 6.09668 6.09668C8.07585 4.11751 10.4014 3.4248 13.0732 4.01855C14.6071 1.69304 16.7594 0.530273 19.5303 0.530273C22.3011 0.530273 24.4535 1.69304 25.9873 4.01855C28.6592 3.4248 30.9847 4.11751 32.9639 6.09668C34.943 8.07585 35.6357 10.4014 35.042 13.0732ZM30.5146 24.0576C30.5641 24.0576 30.7744 23.9958 31.1455 23.8721C31.5166 23.7484 31.7887 23.6494 31.9619 23.5752C32.1351 23.501 32.4072 23.3649 32.7783 23.167C33.1494 22.9691 33.4339 22.7712 33.6318 22.5732C33.8298 22.3753 34.0524 22.1279 34.2998 21.8311C34.5472 21.5342 34.7204 21.1878 34.8193 20.792C34.9183 20.3962 34.9678 19.9756 34.9678 19.5303C34.9678 19.1839 34.9307 18.8623 34.8564 18.5654C34.7822 18.2686 34.6833 17.9964 34.5596 17.749C34.4359 17.5016 34.2998 17.2666 34.1514 17.0439C34.0029 16.8213 33.8174 16.6357 33.5947 16.4873C33.3721 16.3389 33.1742 16.2028 33.001 16.0791C32.8278 15.9554 32.6051 15.8317 32.333 15.708C32.0609 15.5843 31.8506 15.4977 31.7021 15.4482C31.5537 15.3988 31.3311 15.3245 31.0342 15.2256C30.7373 15.1266 30.5641 15.0524 30.5146 15.0029C30.5146 14.9535 30.6012 14.7555 30.7744 14.4092C30.9476 14.0628 31.0713 13.7907 31.1455 13.5928C31.2197 13.3949 31.3187 13.1104 31.4424 12.7393C31.5661 12.3682 31.6279 12.0342 31.6279 11.7373C31.6279 11.4404 31.6156 11.1064 31.5908 10.7354C31.5661 10.3643 31.4548 10.0055 31.2568 9.65918C31.0589 9.31283 30.7868 8.96647 30.4404 8.62012C30.193 8.37272 29.9333 8.16244 29.6611 7.98926C29.389 7.81608 29.1169 7.69238 28.8447 7.61816C28.5726 7.54395 28.3252 7.4821 28.1025 7.43262C27.8799 7.38314 27.6201 7.38314 27.3232 7.43262C27.0264 7.4821 26.779 7.51921 26.5811 7.54395C26.3831 7.56869 26.1357 7.6429 25.8389 7.7666C25.542 7.8903 25.3317 7.97689 25.208 8.02637C25.0843 8.07585 24.8864 8.1748 24.6143 8.32324C24.3421 8.47168 24.1566 8.5459 24.0576 8.5459C24.0576 8.5459 23.9958 8.34798 23.8721 7.95215C23.7484 7.55631 23.637 7.27181 23.5381 7.09863C23.4391 6.92546 23.3031 6.65332 23.1299 6.28223C22.9567 5.91113 22.7712 5.62663 22.5732 5.42871C22.3753 5.23079 22.1279 5.00814 21.8311 4.76074C21.5342 4.51335 21.1878 4.34017 20.792 4.24121C20.3962 4.14225 19.9756 4.09277 19.5303 4.09277C19.1344 4.09277 18.7633 4.14225 18.417 4.24121C18.0706 4.34017 17.7738 4.4515 17.5264 4.5752C17.279 4.69889 17.0439 4.88444 16.8213 5.13184C16.5986 5.37923 16.4131 5.57715 16.2646 5.72559C16.1162 5.87402 15.9678 6.12142 15.8193 6.46777C15.6709 6.81413 15.5596 7.06152 15.4854 7.20996C15.4111 7.3584 15.3122 7.60579 15.1885 7.95215C15.0648 8.2985 15.0029 8.49642 15.0029 8.5459C14.9535 8.5459 14.7432 8.45931 14.3721 8.28613C14.001 8.11296 13.7288 7.98926 13.5557 7.91504C13.3825 7.84082 13.098 7.74186 12.7021 7.61816C12.3063 7.49447 11.9723 7.43262 11.7002 7.43262C11.4281 7.43262 11.1064 7.44499 10.7354 7.46973C10.3643 7.49447 10.0055 7.60579 9.65918 7.80371C9.31283 8.00163 8.96647 8.27376 8.62012 8.62012C8.32324 8.91699 8.08822 9.21387 7.91504 9.51074C7.74186 9.80762 7.61816 10.0921 7.54395 10.3643C7.46973 10.6364 7.43262 10.9456 7.43262 11.292C7.43262 11.6383 7.44499 11.9105 7.46973 12.1084C7.49447 12.3063 7.56869 12.5785 7.69238 12.9248C7.81608 13.2712 7.90267 13.5186 7.95215 13.667C8.00163 13.8154 8.11296 14.0628 8.28613 14.4092C8.45931 14.7555 8.5459 14.9535 8.5459 15.0029C8.49642 15.0029 8.28613 15.0648 7.91504 15.1885C7.54395 15.3122 7.27181 15.4235 7.09863 15.5225C6.92546 15.6214 6.65332 15.7575 6.28223 15.9307C5.91113 16.1038 5.62663 16.2894 5.42871 16.4873C5.23079 16.6852 5.00814 16.9326 4.76074 17.2295C4.51335 17.5264 4.34017 17.8727 4.24121 18.2686C4.14225 18.6644 4.09277 19.085 4.09277 19.5303C4.09277 19.8766 4.12988 20.2106 4.2041 20.5322C4.27832 20.8538 4.37728 21.1383 4.50098 21.3857C4.62467 21.6331 4.76074 21.8558 4.90918 22.0537C5.05762 22.2516 5.24316 22.4372 5.46582 22.6104C5.68848 22.7835 5.88639 22.9196 6.05957 23.0186C6.23275 23.1175 6.4554 23.2288 6.72754 23.3525C6.99967 23.4762 7.20996 23.5752 7.3584 23.6494C7.50684 23.7236 7.72949 23.8102 8.02637 23.9092C8.32324 24.0081 8.49642 24.0576 8.5459 24.0576C8.5459 24.1071 8.45931 24.3174 8.28613 24.6885C8.11296 25.0596 7.98926 25.3317 7.91504 25.5049C7.84082 25.6781 7.74186 25.9626 7.61816 26.3584C7.49447 26.7542 7.43262 27.0882 7.43262 27.3604C7.43262 27.6325 7.44499 27.9541 7.46973 28.3252C7.49447 28.6963 7.60579 29.055 7.80371 29.4014C8.00163 29.7477 8.27376 30.0941 8.62012 30.4404C8.86751 30.6878 9.11491 30.8981 9.3623 31.0713C9.6097 31.2445 9.86947 31.3682 10.1416 31.4424C10.4137 31.5166 10.6735 31.5785 10.9209 31.6279C11.1683 31.6774 11.4281 31.6774 11.7002 31.6279C11.9723 31.5785 12.2074 31.5413 12.4053 31.5166C12.6032 31.4919 12.8506 31.4176 13.1475 31.2939C13.4443 31.1702 13.667 31.0837 13.8154 31.0342C13.9639 30.9847 14.1742 30.8981 14.4463 30.7744C14.7184 30.6507 14.904 30.5641 15.0029 30.5146C15.0029 30.5641 15.0648 30.7744 15.1885 31.1455C15.3122 31.5166 15.4235 31.7887 15.5225 31.9619C15.6214 32.1351 15.7575 32.4072 15.9307 32.7783C16.1038 33.1494 16.2894 33.4339 16.4873 33.6318C16.6852 33.8298 16.9326 34.0524 17.2295 34.2998C17.5264 34.5472 17.8727 34.7204 18.2686 34.8193C18.6644 34.9183 19.085 34.9678 19.5303 34.9678C19.9261 34.9678 20.2972 34.9183 20.6436 34.8193C20.9899 34.7204 21.2868 34.609 21.5342 34.4854C21.7816 34.3617 22.0166 34.1761 22.2393 33.9287C22.4619 33.6813 22.6475 33.4834 22.7959 33.335C22.9443 33.1865 23.0928 32.9391 23.2412 32.5928C23.3896 32.2464 23.501 31.999 23.5752 31.8506C23.6494 31.7021 23.7484 31.4548 23.8721 31.1084C23.9958 30.762 24.0576 30.5641 24.0576 30.5146C25.0967 30.96 25.8636 31.2692 26.3584 31.4424C26.8532 31.6156 27.4964 31.6527 28.2881 31.5537C29.0798 31.4548 29.7972 31.0837 30.4404 30.4404C30.7373 30.1436 30.9723 29.8467 31.1455 29.5498C31.3187 29.2529 31.4424 28.9684 31.5166 28.6963C31.5908 28.4242 31.6279 28.1149 31.6279 27.7686C31.6279 27.4222 31.6156 27.1501 31.5908 26.9521C31.5661 26.7542 31.4919 26.4821 31.3682 26.1357C31.2445 25.7894 31.1579 25.542 31.1084 25.3936C31.0589 25.2451 30.9476 24.9977 30.7744 24.6514C30.6012 24.305 30.5146 24.1071 30.5146 24.0576Z" fill="white"></path>
</g>
<defs>
<clipPath id="clip0_4_2211">
<rect width="38" height="38" fill="white" transform="matrix(1 0 0 -1 0.530273 38.5303)"></rect>
</clipPath>
</defs>
</svg>
