<svg width="11" height="15" viewBox="0 0 11 15" fill="none" xmlns="http://www.w3.org/2000/svg">
<path d="M10.5181 6.03475V7.40338C10.5181 7.59347 10.4516 7.75505 10.3185 7.88811C10.1854 8.02117 10.0239 8.0877 9.83379 8.0877H6.86841V11.0531C6.86841 11.2432 6.80188 11.4047 6.66882 11.5378C6.53576 11.6709 6.37418 11.7374 6.18409 11.7374H4.81546C4.62537 11.7374 4.46379 11.6709 4.33073 11.5378C4.19767 11.4047 4.13114 11.2432 4.13114 11.0531V8.0877H1.16576C0.975675 8.0877 0.8141 8.02117 0.681038 7.88811C0.547976 7.75505 0.481445 7.59347 0.481445 7.40338V6.03475C0.481445 5.84466 0.547976 5.68309 0.681038 5.55002C0.8141 5.41696 0.975675 5.35043 1.16576 5.35043H4.13114V2.38505C4.13114 2.19497 4.19767 2.03339 4.33073 1.90033C4.46379 1.76727 4.62537 1.70074 4.81546 1.70074H6.18409C6.37418 1.70074 6.53576 1.76727 6.66882 1.90033C6.80188 2.03339 6.86841 2.19497 6.86841 2.38505V5.35043H9.83379C10.0239 5.35043 10.1854 5.41696 10.3185 5.55002C10.4516 5.68309 10.5181 5.84466 10.5181 6.03475Z" fill="#696969"></path>
</svg>
