<svg width="15" height="15" viewBox="0 0 15 15" fill="none" xmlns="http://www.w3.org/2000/svg">
<g clip-path="url('#clip0_16_403')">
<path d="M14.217 2.76978C14.3446 2.76978 14.4495 2.81079 14.5315 2.89282C14.6135 2.97485 14.6545 3.07967 14.6545 3.20728V3.64478C14.6545 3.77238 14.6135 3.8772 14.5315 3.95923C14.4495 4.04126 14.3446 4.08228 14.217 4.08228H8.52954V4.73853C8.52954 4.86613 8.48853 4.97095 8.40649 5.05298C8.32446 5.13501 8.21965 5.17603 8.09204 5.17603H7.21704C7.08944 5.17603 6.98462 5.13501 6.90259 5.05298C6.82056 4.97095 6.77954 4.86613 6.77954 4.73853V4.08228H1.09204C0.964437 4.08228 0.859619 4.04126 0.777588 3.95923C0.695557 3.8772 0.654541 3.77238 0.654541 3.64478V3.20728C0.654541 3.07967 0.695557 2.97485 0.777588 2.89282C0.859619 2.81079 0.964437 2.76978 1.09204 2.76978H6.77954V2.11353C6.77954 1.98592 6.82056 1.8811 6.90259 1.79907C6.98462 1.71704 7.08944 1.67603 7.21704 1.67603H8.09204C8.21965 1.67603 8.32446 1.71704 8.40649 1.79907C8.48853 1.8811 8.52954 1.98592 8.52954 2.11353V2.76978H14.217ZM14.217 11.5198C14.3446 11.5198 14.4495 11.5608 14.5315 11.6428C14.6135 11.7249 14.6545 11.8297 14.6545 11.9573V12.3948C14.6545 12.5224 14.6135 12.6272 14.5315 12.7092C14.4495 12.7913 14.3446 12.8323 14.217 12.8323H5.02954V13.4885C5.02954 13.6161 4.98853 13.7209 4.90649 13.803C4.82446 13.885 4.71965 13.926 4.59204 13.926H3.71704C3.58944 13.926 3.48462 13.885 3.40259 13.803C3.32056 13.7209 3.27954 13.6161 3.27954 13.4885V12.8323H1.09204C0.964437 12.8323 0.859619 12.7913 0.777588 12.7092C0.695557 12.6272 0.654541 12.5224 0.654541 12.3948V11.9573C0.654541 11.8297 0.695557 11.7249 0.777588 11.6428C0.859619 11.5608 0.964437 11.5198 1.09204 11.5198H3.27954V10.8635C3.27954 10.7359 3.32056 10.6311 3.40259 10.5491C3.48462 10.467 3.58944 10.426 3.71704 10.426H4.59204C4.71965 10.426 4.82446 10.467 4.90649 10.5491C4.98853 10.6311 5.02954 10.7359 5.02954 10.8635V11.5198H14.217ZM14.217 7.14478C14.3446 7.14478 14.4495 7.18579 14.5315 7.26782C14.6135 7.34985 14.6545 7.45467 14.6545 7.58228V8.01978C14.6545 8.14738 14.6135 8.2522 14.5315 8.33423C14.4495 8.41626 14.3446 8.45728 14.217 8.45728H12.0295V9.11353C12.0295 9.24113 11.9885 9.34595 11.9065 9.42798C11.8245 9.51001 11.7196 9.55103 11.592 9.55103H10.717C10.5894 9.55103 10.4846 9.51001 10.4026 9.42798C10.3206 9.34595 10.2795 9.24113 10.2795 9.11353V8.45728H1.09204C0.964437 8.45728 0.859619 8.41626 0.777588 8.33423C0.695557 8.2522 0.654541 8.14738 0.654541 8.01978V7.58228C0.654541 7.45467 0.695557 7.34985 0.777588 7.26782C0.859619 7.18579 0.964437 7.14478 1.09204 7.14478H10.2795V6.48853C10.2795 6.36092 10.3206 6.2561 10.4026 6.17407C10.4846 6.09204 10.5894 6.05103 10.717 6.05103H11.592C11.7196 6.05103 11.8245 6.09204 11.9065 6.17407C11.9885 6.2561 12.0295 6.36092 12.0295 6.48853V7.14478H14.217Z" fill="#7E7E7E"></path>
</g>
<defs>
<clipPath id="clip0_16_403">
<rect width="14" height="14" fill="white" transform="matrix(1 0 0 -1 0.654541 14.801)"></rect>
</clipPath>
</defs>
</svg>
