<svg width="48" height="39" viewBox="0 0 48 39" fill="none" xmlns="http://www.w3.org/2000/svg">
<g clip-path="url('#clip0_4_2223')">
<path d="M40.4854 15.374C42.613 16.1162 44.3324 17.415 45.6436 19.2705C46.9548 21.126 47.6104 23.1917 47.6104 25.4678C47.6104 28.4365 46.5713 30.96 44.4932 33.0381C42.415 35.1162 39.8916 36.1553 36.9229 36.1553H11.9854C8.71973 36.1553 5.92415 34.9925 3.59863 32.667C1.27311 30.3415 0.110352 27.5459 0.110352 24.2803C0.110352 21.8558 0.79069 19.6416 2.15137 17.6377C3.51204 15.6338 5.30566 14.1865 7.53223 13.2959C8.12598 10.2777 9.62272 7.79134 12.0225 5.83691C14.4222 3.88249 17.1807 2.90527 20.2979 2.90527C22.3265 2.90527 24.2314 3.35059 26.0127 4.24121C27.7939 5.13184 29.3031 6.31934 30.54 7.80371C31.0843 7.70475 31.6286 7.65527 32.1729 7.65527C34.3499 7.65527 36.2425 8.39746 37.8506 9.88184C39.4587 11.3662 40.3369 13.1969 40.4854 15.374ZM36.9229 32.5928C38.902 32.5928 40.5843 31.9001 41.9697 30.5146C43.3551 29.1292 44.0479 27.4469 44.0479 25.4678C44.0479 23.4886 43.3551 21.8063 41.9697 20.4209C40.5843 19.0355 38.902 18.3428 36.9229 18.3428C36.6755 18.3428 36.4528 18.3428 36.2549 18.3428C36.7002 17.6006 36.9229 16.8089 36.9229 15.9678C36.9229 14.6813 36.4528 13.568 35.5127 12.6279C34.5726 11.6878 33.4593 11.2178 32.1729 11.2178C30.9854 11.2178 29.9463 11.5889 29.0557 12.3311C28.363 10.5993 27.2249 9.18913 25.6416 8.10059C24.0583 7.01204 22.277 6.46777 20.2979 6.46777C17.6755 6.46777 15.4365 7.39551 13.5811 9.25098C11.7256 11.1064 10.7979 13.3454 10.7979 15.9678V16.042C8.76921 16.3389 7.07454 17.2666 5.71387 18.8252C4.35319 20.3838 3.67285 22.2021 3.67285 24.2803C3.67285 26.5563 4.48926 28.5107 6.12207 30.1436C7.75488 31.7764 9.70931 32.5928 11.9854 32.5928H36.9229Z" fill="white"></path>
</g>
<defs>
<clipPath id="clip0_4_2223">
<rect width="47.5" height="38" fill="white" transform="matrix(1 0 0 -1 0.110352 38.5303)"></rect>
</clipPath>
</defs>
</svg>
