<svg width="20" height="2" viewBox="0 0 20 2" fill="none" xmlns="http://www.w3.org/2000/svg">
<g clip-path="url('#clip0_16_352')">
<path d="M17.7854 0.956055C18.7134 0.996419 19.3322 1.04427 19.6415 1.09961C19.9509 1.15495 19.9638 1.20801 19.6802 1.25879C19.3966 1.30957 18.9068 1.35319 18.2107 1.38965L11.4435 1.7373C11.031 1.75814 10.5412 1.76855 9.97404 1.76855C9.40688 1.76855 8.91706 1.75814 8.50458 1.7373L1.73735 1.38965C1.04129 1.35319 0.55147 1.30924 0.26789 1.25781C-0.0156889 1.20638 -0.00279889 1.15332 0.30656 1.09863C0.61592 1.04395 1.23464 0.996419 2.16272 0.956055C3.27125 0.90918 4.57958 0.888672 6.08771 0.894531C7.59584 0.900391 8.89128 0.930664 9.97404 0.985352C11.0568 0.930664 12.3522 0.900391 13.8604 0.894531C15.3685 0.888672 16.6768 0.90918 17.7854 0.956055ZM16.8959 1.32324C17.6436 1.28418 18.0174 1.23633 18.0174 1.17969C18.0174 1.12305 17.5533 1.07259 16.6253 1.02832C15.8519 0.99707 14.956 0.983398 13.9377 0.987305C12.9194 0.991211 12.0493 1.01204 11.3275 1.0498L9.97404 1.11816L8.62059 1.0498C7.89875 1.01204 7.02868 0.991211 6.01037 0.987305C4.99206 0.983398 4.09621 0.99707 3.32281 1.02832C2.39474 1.07259 1.9307 1.12305 1.9307 1.17969C1.9307 1.23633 2.30451 1.28418 3.05212 1.32324L9.85803 1.6709C9.93537 1.67611 10.0127 1.67611 10.09 1.6709L16.8959 1.32324Z" fill="#0071DC"></path>
</g>
<defs>
<clipPath id="clip0_16_352">
<rect width="19.799" height="1" fill="white" transform="matrix(1 0 0 -1 0.0644531 1.83105)"></rect>
</clipPath>
</defs>
</svg>
