<svg width="23" height="2" viewBox="0 0 23 2" fill="none" xmlns="http://www.w3.org/2000/svg">
<g clip-path="url('#clip0_1_650')">
<path d="M21.5308 0.920654C21.7241 0.920654 21.8829 0.923584 22.0072 0.929443C22.1315 0.935303 22.1937 0.94279 22.1937 0.951904V0.983154C22.1937 0.992269 22.1315 0.999756 22.0072 1.00562C21.8829 1.01147 21.7241 1.0144 21.5308 1.0144H12.9129V1.06128C12.9129 1.07039 12.8507 1.07788 12.7265 1.08374C12.6022 1.0896 12.4433 1.09253 12.25 1.09253H10.9242C10.7308 1.09253 10.572 1.0896 10.4477 1.08374C10.3234 1.07788 10.2612 1.07039 10.2612 1.06128V1.0144H1.64338C1.45003 1.0144 1.29121 1.01147 1.16691 1.00562C1.04262 0.999756 0.980469 0.992269 0.980469 0.983154V0.951904C0.980469 0.94279 1.04262 0.935303 1.16691 0.929443C1.29121 0.923584 1.45003 0.920654 1.64338 0.920654H10.2612V0.873779C10.2612 0.864665 10.3234 0.857178 10.4477 0.851318C10.572 0.845459 10.7308 0.842529 10.9242 0.842529H12.25C12.4433 0.842529 12.6022 0.845459 12.7265 0.851318C12.8507 0.857178 12.9129 0.864665 12.9129 0.873779V0.920654H21.5308ZM21.5308 1.54565C21.7241 1.54565 21.8829 1.54858 22.0072 1.55444C22.1315 1.5603 22.1937 1.56779 22.1937 1.5769V1.60815C22.1937 1.61727 22.1315 1.62476 22.0072 1.63062C21.8829 1.63647 21.7241 1.6394 21.5308 1.6394H7.60959V1.68628C7.60959 1.69539 7.54745 1.70288 7.42315 1.70874C7.29885 1.7146 7.14003 1.71753 6.94668 1.71753H5.62086C5.42751 1.71753 5.26868 1.7146 5.14439 1.70874C5.02009 1.70288 4.95794 1.69539 4.95794 1.68628V1.6394H1.64338C1.45003 1.6394 1.29121 1.63647 1.16691 1.63062C1.04262 1.62476 0.980469 1.61727 0.980469 1.60815V1.5769C0.980469 1.56779 1.04262 1.5603 1.16691 1.55444C1.29121 1.54858 1.45003 1.54565 1.64338 1.54565H4.95794V1.49878C4.95794 1.48966 5.02009 1.48218 5.14439 1.47632C5.26868 1.47046 5.42751 1.46753 5.62086 1.46753H6.94668C7.14003 1.46753 7.29885 1.47046 7.42315 1.47632C7.54745 1.48218 7.60959 1.48966 7.60959 1.49878V1.54565H21.5308ZM21.5308 1.23315C21.7241 1.23315 21.8829 1.23608 22.0072 1.24194C22.1315 1.2478 22.1937 1.25529 22.1937 1.2644V1.29565C22.1937 1.30477 22.1315 1.31226 22.0072 1.31812C21.8829 1.32397 21.7241 1.3269 21.5308 1.3269H18.2162V1.37378C18.2162 1.38289 18.154 1.39038 18.0298 1.39624C17.9055 1.4021 17.7466 1.40503 17.5533 1.40503H16.2275C16.0341 1.40503 15.8753 1.4021 15.751 1.39624C15.6267 1.39038 15.5645 1.38289 15.5645 1.37378V1.3269H1.64338C1.45003 1.3269 1.29121 1.32397 1.16691 1.31812C1.04262 1.31226 0.980469 1.30477 0.980469 1.29565V1.2644C0.980469 1.25529 1.04262 1.2478 1.16691 1.24194C1.29121 1.23608 1.45003 1.23315 1.64338 1.23315H15.5645V1.18628C15.5645 1.17716 15.6267 1.16968 15.751 1.16382C15.8753 1.15796 16.0341 1.15503 16.2275 1.15503H17.5533C17.7466 1.15503 17.9055 1.15796 18.0298 1.16382C18.154 1.16968 18.2162 1.17716 18.2162 1.18628V1.23315H21.5308Z" fill="#696969"></path>
</g>
<defs>
<clipPath id="clip0_1_650">
<rect width="21.2132" height="1" fill="white" transform="matrix(1 0 0 -1 0.980469 1.78003)"></rect>
</clipPath>
</defs>
</svg>
