<svg width="15" height="15" viewBox="0 0 15 15" fill="none" xmlns="http://www.w3.org/2000/svg">
<g clip-path="url('#clip0_16_51')">
<path d="M14.3169 2.67953C14.4445 2.67953 14.5493 2.72055 14.6313 2.80258C14.7134 2.88461 14.7544 2.98943 14.7544 3.11703V3.55453C14.7544 3.68214 14.7134 3.78696 14.6313 3.86899C14.5493 3.95102 14.4445 3.99203 14.3169 3.99203H8.62939V4.64828C8.62939 4.77589 8.58838 4.88071 8.50635 4.96274C8.42432 5.04477 8.3195 5.08578 8.19189 5.08578H7.31689C7.18929 5.08578 7.08447 5.04477 7.00244 4.96274C6.92041 4.88071 6.87939 4.77589 6.87939 4.64828V3.99203H1.19189C1.06429 3.99203 0.959473 3.95102 0.877441 3.86899C0.79541 3.78696 0.754395 3.68214 0.754395 3.55453V3.11703C0.754395 2.98943 0.79541 2.88461 0.877441 2.80258C0.959473 2.72055 1.06429 2.67953 1.19189 2.67953H6.87939V2.02328C6.87939 1.89568 6.92041 1.79086 7.00244 1.70883C7.08447 1.6268 7.18929 1.58578 7.31689 1.58578H8.19189C8.3195 1.58578 8.42432 1.6268 8.50635 1.70883C8.58838 1.79086 8.62939 1.89568 8.62939 2.02328V2.67953H14.3169ZM14.3169 11.4295C14.4445 11.4295 14.5493 11.4706 14.6313 11.5526C14.7134 11.6346 14.7544 11.7394 14.7544 11.867V12.3045C14.7544 12.4321 14.7134 12.537 14.6313 12.619C14.5493 12.701 14.4445 12.742 14.3169 12.742H5.12939V13.3983C5.12939 13.5259 5.08838 13.6307 5.00635 13.7127C4.92432 13.7948 4.8195 13.8358 4.69189 13.8358H3.81689C3.68929 13.8358 3.58447 13.7948 3.50244 13.7127C3.42041 13.6307 3.37939 13.5259 3.37939 13.3983V12.742H1.19189C1.06429 12.742 0.959473 12.701 0.877441 12.619C0.79541 12.537 0.754395 12.4321 0.754395 12.3045V11.867C0.754395 11.7394 0.79541 11.6346 0.877441 11.5526C0.959473 11.4706 1.06429 11.4295 1.19189 11.4295H3.37939V10.7733C3.37939 10.6457 3.42041 10.5409 3.50244 10.4588C3.58447 10.3768 3.68929 10.3358 3.81689 10.3358H4.69189C4.8195 10.3358 4.92432 10.3768 5.00635 10.4588C5.08838 10.5409 5.12939 10.6457 5.12939 10.7733V11.4295H14.3169ZM14.3169 7.05453C14.4445 7.05453 14.5493 7.09555 14.6313 7.17758C14.7134 7.25961 14.7544 7.36443 14.7544 7.49203V7.92953C14.7544 8.05714 14.7134 8.16196 14.6313 8.24399C14.5493 8.32602 14.4445 8.36703 14.3169 8.36703H12.1294V9.02328C12.1294 9.15089 12.0884 9.25571 12.0063 9.33774C11.9243 9.41977 11.8195 9.46078 11.6919 9.46078H10.8169C10.6893 9.46078 10.5845 9.41977 10.5024 9.33774C10.4204 9.25571 10.3794 9.15089 10.3794 9.02328V8.36703H1.19189C1.06429 8.36703 0.959473 8.32602 0.877441 8.24399C0.79541 8.16196 0.754395 8.05714 0.754395 7.92953V7.49203C0.754395 7.36443 0.79541 7.25961 0.877441 7.17758C0.959473 7.09555 1.06429 7.05453 1.19189 7.05453H10.3794V6.39828C10.3794 6.27068 10.4204 6.16586 10.5024 6.08383C10.5845 6.0018 10.6893 5.96078 10.8169 5.96078H11.6919C11.8195 5.96078 11.9243 6.0018 12.0063 6.08383C12.0884 6.16586 12.1294 6.27068 12.1294 6.39828V7.05453H14.3169Z" fill="#7E7E7E"></path>
</g>
<defs>
<clipPath id="clip0_16_51">
<rect width="14" height="14" fill="white" transform="matrix(1 0 0 -1 0.754395 14.7108)"></rect>
</clipPath>
</defs>
</svg>
