<svg width="15" height="15" viewBox="0 0 15 15" fill="none" xmlns="http://www.w3.org/2000/svg">
<g clip-path="url('#clip0_16_111')">
<path d="M2.04688 3.00198C2.04688 3.00198 2.37728 2.67158 3.03809 2.01077C3.69889 1.34997 4.9681 1.01956 6.8457 1.01956C8.72331 1.01956 10.3229 1.68037 11.6445 3.00198C12.9661 4.3236 13.627 5.92321 13.627 7.80081C13.627 9.67842 12.9661 11.278 11.6445 12.5996C10.3229 13.9213 8.72331 14.5821 6.8457 14.5821C4.9681 14.5821 3.36849 13.9213 2.04688 12.5996C0.72526 11.278 0.0644531 9.67842 0.0644531 7.80081C0.0644531 5.92321 0.72526 4.3236 2.04688 3.00198ZM2.97656 11.67C2.97656 11.67 3.24316 11.9366 3.77637 12.4698C4.30957 13.003 5.33268 13.2696 6.8457 13.2696C8.35872 13.2696 9.64844 12.7364 10.7148 11.67C11.7812 10.6035 12.3145 9.31383 12.3145 7.80081C12.3145 6.28779 11.7812 4.99808 10.7148 3.93167C9.64844 2.86526 8.35872 2.33206 6.8457 2.33206C5.33268 2.33206 4.04297 2.86526 2.97656 3.93167C1.91016 4.99808 1.37695 6.28779 1.37695 7.80081C1.37695 9.31383 1.91016 10.6035 2.97656 11.67ZM8.54102 10.4258L6.2168 8.7305C6.12565 8.65758 6.08008 8.56644 6.08008 8.45706V3.97269C6.08008 3.75394 6.18945 3.64456 6.4082 3.64456H7.2832C7.50195 3.64456 7.61133 3.75394 7.61133 3.97269V7.8555L9.44336 9.168C9.60742 9.2956 9.62565 9.45055 9.49805 9.63284L9.00586 10.3438C8.87825 10.5261 8.72331 10.5534 8.54102 10.4258Z" fill="#7E7E7E"></path>
</g>
<defs>
<clipPath id="clip0_16_111">
<rect width="14" height="14" fill="white" transform="matrix(1 0 0 -1 0.0644531 14.8008)"></rect>
</clipPath>
</defs>
</svg>
