<svg width="11" height="15" viewBox="0 0 11 15" fill="none" xmlns="http://www.w3.org/2000/svg">
<path d="M10.5181 6.03478V7.40341C10.5181 7.5935 10.4516 7.75508 10.3185 7.88814C10.1854 8.0212 10.0239 8.08773 9.83379 8.08773H6.86841V11.0531C6.86841 11.2432 6.80188 11.4048 6.66882 11.5378C6.53576 11.6709 6.37418 11.7374 6.18409 11.7374H4.81546C4.62537 11.7374 4.46379 11.6709 4.33073 11.5378C4.19767 11.4048 4.13114 11.2432 4.13114 11.0531V8.08773H1.16576C0.975675 8.08773 0.8141 8.0212 0.681038 7.88814C0.547976 7.75508 0.481445 7.5935 0.481445 7.40341V6.03478C0.481445 5.84469 0.547976 5.68312 0.681038 5.55005C0.8141 5.41699 0.975675 5.35046 1.16576 5.35046H4.13114V2.38509C4.13114 2.195 4.19767 2.03342 4.33073 1.90036C4.46379 1.7673 4.62537 1.70077 4.81546 1.70077H6.18409C6.37418 1.70077 6.53576 1.7673 6.66882 1.90036C6.80188 2.03342 6.86841 2.195 6.86841 2.38509V5.35046H9.83379C10.0239 5.35046 10.1854 5.41699 10.3185 5.55005C10.4516 5.68312 10.5181 5.84469 10.5181 6.03478Z" fill="#696969"></path>
</svg>
