<svg width="61" height="61" viewBox="0 0 61 61" fill="none" xmlns="http://www.w3.org/2000/svg">
<g clip-path="url('#clip0_4_1901')">
<path d="M59.1077 8.35156C59.5765 8.50781 59.9085 8.82031 60.1038 9.28906C60.2991 9.75781 60.3186 10.2266 60.1624 10.6953L55.0061 24.7578C54.8499 25.1484 54.5569 25.5 54.1272 25.8125C53.6975 26.125 53.2093 26.1641 52.6624 25.9297L44.6936 23L39.303 37.8828C39.1468 38.4297 38.8343 38.8008 38.3655 38.9961C37.8968 39.1914 37.389 39.2109 36.8421 39.0547L35.0843 38.3516C34.6155 38.1953 34.2835 37.8828 34.0882 37.4141C33.8929 36.9453 33.8733 36.4766 34.0296 36.0078L35.6702 31.5547L30.1624 29.6797C29.2249 29.3672 28.4046 28.8594 27.7015 28.1562L22.7796 22.4141V35.3047L28.9905 44.7969C29.8499 45.8125 30.2796 47.1016 30.2796 48.6641V57.6875C30.2796 58.4688 30.0061 59.1328 29.4593 59.6797C28.9124 60.2266 28.2483 60.5 27.4671 60.5C26.6858 60.5 26.0218 60.2266 25.4749 59.6797C24.928 59.1328 24.6546 58.4688 24.6546 57.6875V48.6641C24.6546 48.4297 24.5765 48.2344 24.4202 48.0781L18.4436 38.9375H16.803L14.3421 58.0391C14.264 58.7422 13.9515 59.3281 13.4046 59.7969C12.8577 60.2656 12.2327 60.5 11.5296 60.5C11.4515 60.5 11.3343 60.5 11.178 60.5C10.3968 60.4219 9.77176 60.0703 9.30301 59.4453C8.83426 58.8203 8.63895 58.1172 8.71708 57.3359L11.5296 35.8906V24.6406L5.55301 36.4766C5.24051 37.1016 4.75223 37.5508 4.08817 37.8242C3.42411 38.0977 2.66239 38.0781 1.80301 37.7656C1.09989 37.375 0.631138 36.8086 0.396763 36.0664C0.162388 35.3242 0.201451 34.6016 0.513951 33.8984L8.01395 19.1328C9.18583 16.7109 11.139 15.5 13.8733 15.5H21.2561C23.053 15.5 24.5765 16.125 25.8265 17.375L31.803 24.2891C31.803 24.2891 32.2718 24.4453 33.2093 24.7578C34.1468 25.0703 35.1233 25.3828 36.139 25.6953L37.5452 26.2812L39.4202 21.125L31.4515 18.1953C30.9827 18.0391 30.6507 17.7266 30.4554 17.2578C30.26 16.7891 30.2405 16.3203 30.3968 15.8516L35.553 1.78906C35.6311 1.39844 35.9046 1.04688 36.3733 0.734375C36.8421 0.421875 37.3499 0.382812 37.8968 0.617188L45.8655 3.54688L46.4515 1.78906C46.6077 1.47656 46.803 1.20312 47.0374 0.96875C47.2718 0.734375 47.5452 0.597656 47.8577 0.558594C48.1702 0.519531 48.5218 0.539062 48.9124 0.617188L50.6702 1.32031C51.139 1.47656 51.4905 1.78906 51.7249 2.25781C51.9593 2.72656 51.9593 3.19531 51.7249 3.66406L51.139 5.42188L59.1077 8.35156ZM51.0218 19.3672L53.5999 12.3359L39.5374 7.17969L36.9593 14.2109L51.0218 19.3672ZM21.139 10.1094C21.139 10.1094 20.8655 10.3828 20.3186 10.9297C19.7718 11.4766 18.7171 11.75 17.1546 11.75C15.5921 11.75 14.264 11.2031 13.1702 10.1094C12.0765 9.01562 11.5296 7.6875 11.5296 6.125C11.5296 4.5625 12.0765 3.23438 13.1702 2.14062C14.264 1.04688 15.5921 0.5 17.1546 0.5C18.7171 0.5 20.0452 1.04688 21.139 2.14062C22.2327 3.23438 22.7796 4.5625 22.7796 6.125C22.7796 7.6875 22.2327 9.01562 21.139 10.1094Z" fill="#138CCC"></path>
</g>
<defs>
<clipPath id="clip0_4_1901">
<rect width="60" height="61" fill="white" transform="matrix(1 0 0 -1 0.25 61)"></rect>
</clipPath>
</defs>
</svg>
