<svg width="20" height="2" viewBox="0 0 20 2" fill="none" xmlns="http://www.w3.org/2000/svg">
<g clip-path="url('#clip0_16_96')">
<path d="M17.7854 0.95578C18.7134 0.996145 19.3322 1.044 19.6415 1.09933C19.9509 1.15467 19.9638 1.20773 19.6802 1.25851C19.3966 1.3093 18.9068 1.35292 18.2107 1.38937L11.4435 1.73703C11.031 1.75786 10.5412 1.76828 9.97404 1.76828C9.40688 1.76828 8.91706 1.75786 8.50458 1.73703L1.73735 1.38937C1.04129 1.35292 0.55147 1.30897 0.26789 1.25754C-0.0156889 1.20611 -0.00279889 1.15305 0.30656 1.09836C0.61592 1.04367 1.23464 0.996145 2.16272 0.95578C3.27125 0.908905 4.57958 0.888397 6.08771 0.894257C7.59584 0.900116 8.89128 0.930389 9.97404 0.985077C11.0568 0.930389 12.3522 0.900116 13.8604 0.894257C15.3685 0.888397 16.6768 0.908905 17.7854 0.95578ZM16.8959 1.32297C17.6436 1.28391 18.0174 1.23605 18.0174 1.17941C18.0174 1.12277 17.5533 1.07232 16.6253 1.02805C15.8519 0.996796 14.956 0.983124 13.9377 0.98703C12.9194 0.990936 12.0493 1.01177 11.3275 1.04953L9.97404 1.11789L8.62059 1.04953C7.89875 1.01177 7.02868 0.990936 6.01037 0.98703C4.99206 0.983124 4.09621 0.996796 3.32281 1.02805C2.39474 1.07232 1.9307 1.12277 1.9307 1.17941C1.9307 1.23605 2.30451 1.28391 3.05212 1.32297L9.85803 1.67062C9.93537 1.67583 10.0127 1.67583 10.09 1.67062L16.8959 1.32297Z" fill="#0071DC"></path>
</g>
<defs>
<clipPath id="clip0_16_96">
<rect width="19.799" height="1" fill="white" transform="matrix(1 0 0 -1 0.0644531 1.83078)"></rect>
</clipPath>
</defs>
</svg>
