<svg width="33" height="25" viewBox="0 0 33 25" fill="none" xmlns="http://www.w3.org/2000/svg">
<g clip-path="url('#clip0_1_829')">
<path d="M7.33342 9.40254C6.87319 9.40254 6.50009 9.02945 6.50009 8.56921C6.50009 8.10897 6.87319 7.73588 7.33342 7.73588H29.3503C30.4273 7.73588 31.2998 8.60964 31.2998 9.6869V22.4352C31.2998 23.5124 30.4273 24.3862 29.3503 24.3862H3.24956C2.17264 24.3862 1.2998 23.5124 1.2998 22.4352V3.00389C1.2998 1.92662 2.17235 1.05286 3.2495 1.05286L29.3506 1.06022C30.4273 1.0605 31.2998 1.93418 31.2998 3.01113V5.03388C31.2998 5.49412 30.9268 5.86727 30.4666 5.86734C30.0064 5.8674 29.6332 5.49436 29.6331 5.03412L29.6328 3.01125C29.6328 2.85397 29.506 2.72693 29.3501 2.72689L3.24927 2.71952C3.09334 2.71952 2.96647 2.84657 2.96647 3.00387L2.96676 22.4352C2.96676 22.5925 3.09363 22.7195 3.24956 22.7195H29.3503C29.5063 22.7195 29.6331 22.5925 29.6331 22.4352V9.6869C29.6331 9.52959 29.5063 9.40254 29.3503 9.40254H7.33342Z" fill="white"></path>
</g>
<defs>
<clipPath id="clip0_1_829">
<rect width="32" height="24" fill="white" transform="translate(0.299805 0.719482)"></rect>
</clipPath>
</defs>
</svg>
