<svg width="250" height="439" viewBox="0 0 250 439" fill="none" xmlns="http://www.w3.org/2000/svg">
<g clip-path="url('#clip0_1_318')">
<path d="M146.468 331.155C159.09 331.155 169.323 320.923 169.323 308.3C169.323 295.678 159.09 285.445 146.468 285.445C133.845 285.445 123.612 295.678 123.612 308.3C123.612 320.923 133.845 331.155 146.468 331.155Z" fill="#4671C6"></path>
<path d="M146.467 321.182C139.364 321.182 133.585 315.403 133.585 308.3C133.585 301.197 139.364 295.418 146.467 295.418C153.569 295.418 159.349 301.197 159.349 308.3C159.349 315.403 153.57 321.182 146.467 321.182Z" fill="#AFD0FE"></path>
<path d="M146.468 333.239C132.717 333.239 121.529 322.051 121.529 308.3C121.529 294.549 132.717 283.362 146.468 283.362C160.219 283.362 171.405 294.549 171.405 308.3C171.405 322.051 160.219 333.239 146.468 333.239ZM146.468 287.528C135.014 287.528 125.696 296.846 125.696 308.3C125.696 319.754 135.014 329.072 146.468 329.072C157.921 329.072 167.239 319.754 167.239 308.3C167.239 296.846 157.921 287.528 146.468 287.528Z" fill="#3762CC"></path>
<path d="M50.1413 331.155C62.7639 331.155 72.9966 320.923 72.9966 308.3C72.9966 295.678 62.7639 285.445 50.1413 285.445C37.5188 285.445 27.2861 295.678 27.2861 308.3C27.2861 320.923 37.5188 331.155 50.1413 331.155Z" fill="#4671C6"></path>
<path d="M50.1421 321.182C43.0389 321.182 37.2598 315.403 37.2598 308.3C37.2598 301.197 43.0389 295.418 50.1421 295.418C57.2441 295.418 63.0233 301.197 63.0233 308.3C63.0233 315.403 57.2452 321.182 50.1421 321.182Z" fill="#AFD0FE"></path>
<path d="M50.1416 333.239C36.3906 333.239 25.2041 322.051 25.2041 308.3C25.2041 294.549 36.3916 283.362 50.1416 283.362C63.8926 283.362 75.0801 294.549 75.0801 308.3C75.0801 322.051 63.8926 333.239 50.1416 333.239ZM50.1416 287.528C38.6885 287.528 29.3708 296.846 29.3708 308.3C29.3708 319.754 38.6885 329.072 50.1416 329.072C61.5958 329.072 70.9135 319.754 70.9135 308.3C70.9135 296.846 61.5947 287.528 50.1416 287.528Z" fill="#3762CC"></path>
<path d="M56.8619 285.445V302.565C56.8619 305.658 54.3546 308.165 51.2619 308.165H49.6536C47.265 308.165 45.139 306.649 44.3598 304.392L37.8213 285.446H56.8619V285.445Z" fill="#EAF3FF"></path>
<path d="M153.187 285.445V302.565C153.187 305.658 150.68 308.165 147.587 308.165H145.979C143.59 308.165 141.464 306.649 140.685 304.392L134.146 285.446H153.187V285.445Z" fill="#EAF3FF"></path>
<path d="M51.2616 310.248H49.6532C46.3772 310.248 43.4585 308.168 42.3897 305.071L35.8522 286.124C35.6324 285.488 35.7345 284.784 36.1251 284.236C36.5157 283.687 37.148 283.362 37.821 283.362H56.8616C58.0116 283.362 58.9449 284.295 58.9449 285.445V302.565C58.9449 306.801 55.498 310.248 51.2616 310.248ZM40.7439 287.528L46.3282 303.712C46.8178 305.128 48.1532 306.081 49.6532 306.081H51.2616C53.2012 306.081 54.7783 304.503 54.7783 302.565V287.528H40.7439Z" fill="#4E97FD"></path>
<path d="M147.588 310.248H145.979C142.703 310.248 139.785 308.167 138.716 305.071L132.177 286.125C131.958 285.489 132.06 284.785 132.45 284.237C132.841 283.688 133.473 283.363 134.146 283.363H153.188C154.338 283.363 155.271 284.296 155.271 285.446V302.566C155.272 306.801 151.824 310.248 147.588 310.248ZM137.07 287.528L142.654 303.712C143.144 305.129 144.479 306.081 145.978 306.081H147.587C149.526 306.081 151.103 304.503 151.103 302.565V287.528H137.07Z" fill="#4E97FD"></path>
<path d="M243.005 129.385H202.051C199.339 129.385 197.14 127.186 197.14 124.473V112.196C197.14 109.484 199.339 107.285 202.051 107.285H243.005C245.718 107.285 247.917 109.484 247.917 112.196V124.474C247.917 127.186 245.718 129.385 243.005 129.385Z" fill="#AFD0FE"></path>
<path d="M243.006 131.468H202.051C198.194 131.468 195.057 128.33 195.057 124.473V112.196C195.057 108.339 198.194 105.201 202.051 105.201H243.006C246.863 105.201 250 108.339 250 112.196V124.474C250 128.33 246.863 131.468 243.006 131.468ZM202.051 109.368C200.492 109.368 199.223 110.637 199.223 112.196V124.474C199.223 126.034 200.492 127.302 202.051 127.302H243.006C244.565 127.302 245.834 126.034 245.834 124.474V112.196C245.834 110.637 244.565 109.368 243.006 109.368H202.051Z" fill="#4E97FD"></path>
<path d="M182.528 129.178C182.899 126.496 185.051 124.473 187.533 124.473H197.14V112.196H187.533C178.951 112.196 171.571 118.774 170.365 127.497L168.933 137.858H174.094C175.865 137.858 177.549 138.622 178.715 139.955C179.882 141.289 180.414 143.061 180.177 144.816L182.528 129.178Z" fill="#EAF3FF"></path>
<path d="M180.182 146.9C180.084 146.9 179.986 146.893 179.886 146.878C178.753 146.717 177.962 145.672 178.115 144.538C178.271 143.377 177.919 142.207 177.15 141.327C176.379 140.445 175.266 139.94 174.097 139.94H168.934C168.332 139.94 167.759 139.679 167.363 139.225C166.967 138.771 166.787 138.168 166.871 137.571L168.303 127.211C169.65 117.463 177.917 110.111 187.533 110.111H197.14C198.29 110.111 199.224 111.044 199.224 112.194V124.472C199.224 125.622 198.29 126.555 197.14 126.555H187.533C186.085 126.555 184.821 127.805 184.592 129.462C184.591 129.47 184.59 129.478 184.589 129.486L182.24 145.123C182.085 146.157 181.197 146.9 180.182 146.9ZM171.325 135.775H174.096C175.949 135.775 177.732 136.401 179.167 137.526L180.466 128.881C180.984 125.18 184.019 122.391 187.533 122.391H195.057V114.279H187.533C179.987 114.279 173.493 120.085 172.429 127.783L171.325 135.775Z" fill="#4E97FD"></path>
<path d="M178.716 139.956C177.551 138.623 175.866 137.859 174.096 137.859H12.7028C9.63928 137.859 6.72573 139.18 4.70907 141.487C2.6924 143.793 1.76949 146.856 2.17782 149.895L14.6362 242.422C15.6393 249.881 22.0737 255.508 29.6007 255.508H48.1768H51.8851H54.3893H127.927H130.431H135.841H152.073C159.6 255.508 166.032 249.882 167.036 242.423L180.179 144.818C180.415 143.061 179.883 141.29 178.716 139.956ZM14.5987 150.136H38.3299L41.8653 190.543H20.0393L14.5987 150.136ZM29.6018 243.228C28.1955 243.228 26.9924 242.177 26.8049 240.784L21.6934 202.821H42.9403L46.4757 243.228H29.6018ZM85.0205 243.228H58.8007L55.2653 202.821H85.0205V243.228ZM85.0205 190.543H54.1914L50.6559 150.136H85.0205V190.543ZM123.517 243.228H97.2976V202.821H127.052L123.517 243.228ZM128.127 190.543H97.2986V150.136H131.662L128.127 190.543ZM154.869 240.784C154.681 242.177 153.48 243.228 152.074 243.228H135.843L139.378 202.821H159.981L154.869 240.784ZM161.634 190.543H140.452L143.987 150.136H167.075L161.634 190.543Z" fill="#EAF3FF"></path>
<path d="M159.721 255.506C164.262 255.506 167.956 259.468 167.956 264.337C167.956 269.205 164.262 273.168 159.721 273.168H21.7665C18.3758 273.168 15.6279 275.916 15.6279 279.306C15.6279 282.697 18.3758 285.445 21.7665 285.445H159.722C171.033 285.445 180.235 275.976 180.235 264.337C180.235 255.183 174.532 247.392 166.598 244.474C164.796 250.886 158.891 255.505 152.075 255.505L159.721 255.506Z" fill="#EAF3FF"></path>
<path d="M152.074 257.589H29.6014C21.0347 257.589 13.7149 251.187 12.5722 242.698L0.113852 150.172C-0.375731 146.539 0.728436 142.873 3.14094 140.114C5.55344 137.356 9.03885 135.774 12.7024 135.774H174.096C176.468 135.774 178.723 136.798 180.285 138.585C181.846 140.369 182.561 142.741 182.244 145.094L169.101 242.7C167.961 251.188 160.64 257.589 152.074 257.589ZM12.7034 139.941C10.2409 139.941 7.89927 141.005 6.27844 142.859C4.65656 144.712 3.91489 147.176 4.24406 149.617L16.7024 242.143C17.568 248.573 23.1128 253.423 29.6024 253.423H152.075C158.564 253.423 164.109 248.574 164.974 242.144L178.117 144.538C178.272 143.377 177.921 142.208 177.151 141.328C177.151 141.328 177.151 141.328 177.151 141.327C176.381 140.446 175.268 139.941 174.098 139.941H12.7034ZM152.074 245.312H135.844C135.26 245.312 134.702 245.067 134.308 244.636C133.913 244.205 133.717 243.628 133.768 243.047L137.303 202.64C137.397 201.564 138.298 200.738 139.378 200.738H159.982C160.583 200.738 161.154 200.997 161.549 201.45C161.945 201.902 162.126 202.503 162.046 203.099L156.935 241.062C156.608 243.485 154.518 245.312 152.074 245.312ZM138.117 241.145H152.074C152.436 241.145 152.758 240.864 152.806 240.505L157.599 204.904H141.288L138.117 241.145ZM123.518 245.312H97.2993C96.1493 245.312 95.2159 244.378 95.2159 243.228V202.821C95.2159 201.671 96.1493 200.738 97.2993 200.738H127.053C127.638 200.738 128.195 200.982 128.59 201.414C128.985 201.844 129.181 202.421 129.129 203.002L125.594 243.41C125.499 244.486 124.598 245.312 123.518 245.312ZM99.3816 241.145H121.609L124.778 204.904H99.3816V241.145ZM85.0211 245.312H58.8013C57.7211 245.312 56.8201 244.487 56.7263 243.41L53.1909 203.002C53.1399 202.42 53.3357 201.844 53.7305 201.414C54.1253 200.984 54.6826 200.738 55.267 200.738H85.0211C86.1711 200.738 87.1045 201.671 87.1045 202.821V243.228C87.1045 244.378 86.1711 245.312 85.0211 245.312ZM60.7097 241.145H82.9378V204.904H57.5388L60.7097 241.145ZM46.4753 245.312H29.6014C27.1566 245.312 25.067 243.485 24.7399 241.062L19.6284 203.099C19.5482 202.503 19.7295 201.902 20.1253 201.45C20.5201 200.997 21.092 200.738 21.693 200.738H42.9399C44.0201 200.738 44.9211 201.563 45.0149 202.64L48.5503 243.047C48.6014 243.629 48.4055 244.205 48.0107 244.636C47.617 245.067 47.0597 245.312 46.4753 245.312ZM24.0753 204.904L28.8691 240.505C28.917 240.864 29.2388 241.145 29.6014 241.145H44.2013L41.0305 204.904H24.0753ZM161.635 192.627H140.452C139.868 192.627 139.311 192.382 138.916 191.951C138.521 191.521 138.325 190.944 138.376 190.363L141.912 149.954C142.006 148.878 142.907 148.052 143.987 148.052H167.074C167.675 148.052 168.247 148.312 168.643 148.765C169.038 149.217 169.219 149.818 169.139 150.414L163.698 190.822C163.561 191.855 162.677 192.627 161.635 192.627ZM142.726 188.461H159.813L164.693 152.219H145.896L142.726 188.461ZM128.126 192.627H97.2982C96.1482 192.627 95.2149 191.694 95.2149 190.544V150.136C95.2149 148.986 96.1482 148.052 97.2982 148.052H131.662C132.246 148.052 132.803 148.297 133.198 148.728C133.593 149.159 133.788 149.736 133.738 150.317L130.202 190.725C130.108 191.801 129.208 192.627 128.126 192.627ZM99.3816 188.461H126.218L129.388 152.219H99.3816V188.461ZM85.0211 192.627H54.1909C53.1107 192.627 52.2097 191.802 52.1159 190.725L48.5805 150.317C48.5295 149.735 48.7253 149.159 49.1201 148.728C49.5149 148.297 50.0722 148.052 50.6566 148.052H85.0211C86.1711 148.052 87.1045 148.986 87.1045 150.136V190.544C87.1045 191.694 86.1711 192.627 85.0211 192.627ZM56.1003 188.461H82.9378V152.219H52.9295L56.1003 188.461ZM41.8659 192.627H20.0399C18.9972 192.627 18.1139 191.855 17.9753 190.822L12.5347 150.414C12.4545 149.818 12.6357 149.217 13.0316 148.765C13.4264 148.312 13.9982 148.052 14.5993 148.052H38.3305C39.4107 148.052 40.3118 148.877 40.4055 149.954L43.9409 190.363C43.992 190.945 43.7961 191.521 43.4014 191.951C43.0076 192.381 42.4493 192.627 41.8659 192.627ZM21.8607 188.461H39.592L36.4211 152.219H16.9816L21.8607 188.461Z" fill="#4E97FD"></path>
<path d="M159.722 287.528H21.7668C17.2335 287.528 13.5449 283.84 13.5449 279.306C13.5449 274.773 17.2335 271.085 21.7668 271.085H159.722C163.115 271.085 165.874 268.057 165.874 264.337C165.874 260.616 163.115 257.589 159.722 257.589H152.075C150.925 257.589 149.992 256.655 149.992 255.505C149.992 254.355 150.925 253.422 152.075 253.422C157.871 253.422 163.019 249.511 164.593 243.911C164.75 243.351 165.133 242.884 165.651 242.619C166.169 242.354 166.773 242.318 167.318 242.519C176.291 245.819 182.319 254.587 182.319 264.337C182.319 277.125 172.181 287.528 159.722 287.528ZM21.7668 275.251C19.5314 275.251 17.7116 277.071 17.7116 279.306C17.7116 281.542 19.5314 283.362 21.7668 283.362H159.722C169.884 283.362 178.152 274.827 178.152 264.337C178.152 257.048 174.071 250.435 167.806 247.268C166.656 249.895 164.88 252.153 162.691 253.884C166.938 255.236 170.041 259.411 170.041 264.338C170.041 270.355 165.412 275.252 159.722 275.252H21.7668V275.251Z" fill="#4E97FD"></path>
<path d="M178.605 237.471C201.091 237.471 219.319 219.243 219.319 196.757C219.319 174.272 201.091 156.044 178.605 156.044C156.12 156.044 137.892 174.272 137.892 196.757C137.892 219.243 156.12 237.471 178.605 237.471Z" fill="#6BDDDD"></path>
<path d="M178.605 227.054C161.899 227.054 148.309 213.463 148.309 196.758C148.309 180.052 161.899 166.461 178.605 166.461C195.312 166.461 208.902 180.052 208.902 196.758C208.902 213.463 195.312 227.054 178.605 227.054Z" fill="#FCF5D7"></path>
<path d="M178.605 239.554C155.008 239.554 135.809 220.355 135.809 196.757C135.809 173.159 155.008 153.961 178.605 153.961C202.204 153.961 221.402 173.16 221.402 196.757C221.402 220.355 202.204 239.554 178.605 239.554ZM178.605 158.127C157.304 158.127 139.975 175.456 139.975 196.757C139.975 218.059 157.304 235.388 178.605 235.388C199.907 235.388 217.236 218.059 217.236 196.757C217.236 175.456 199.907 158.127 178.605 158.127Z" fill="#4E97FD"></path>
<path d="M196.51 203.14H160.702C159.551 203.14 158.619 202.208 158.619 201.056V192.333C158.619 191.181 159.551 190.249 160.702 190.249H196.51C197.661 190.249 198.593 191.181 198.593 192.333V201.056C198.593 202.206 197.66 203.14 196.51 203.14Z" fill="#F9A7A7"></path>
</g>
<defs>
<clipPath id="clip0_1_318">
<rect width="250" height="438" fill="white" transform="translate(0 0.220001)"></rect>
</clipPath>
</defs>
</svg>
