<svg width="61" height="61" viewBox="0 0 61 61" fill="none" xmlns="http://www.w3.org/2000/svg">
<g clip-path="url('#clip0_1_69')">
<path d="M5.60951 34.7453C5.60951 34.4255 5.94207 34.142 6.26215 34.142H10.5218C10.802 34.1465 11.0668 34.0141 11.2313 33.7872C13.1674 31.0606 16.099 28.8271 19.709 27.316C19.9198 27.229 20.0877 27.0622 20.1761 26.8519C21.1007 24.6415 21.2521 22.1838 20.6059 19.8766C22.6255 20.143 24.5001 21.0708 25.9368 22.515C26.6269 23.1881 27.2046 23.9674 27.6482 24.8232C27.8048 25.1323 28.13 25.319 28.4759 25.2982C28.8659 25.2748 32.7821 25.2863 35.3236 25.2998C40.8698 25.3024 46.027 28.1495 48.9843 32.8415C46.6021 26.5624 40.5891 22.4074 33.8733 22.3999C31.3318 22.3864 27.4156 22.3749 27.0256 22.3983C26.6797 22.4191 26.3545 22.2324 26.1979 21.9233C25.7543 21.0675 25.1765 20.2882 24.4865 19.6151C23.05 18.1704 21.1754 17.2421 19.1556 16.9753C19.802 19.2827 19.6505 21.7408 18.7258 23.9514C18.6374 24.1617 18.4695 24.3285 18.2587 24.4155C14.6487 25.926 11.7177 28.16 9.78093 30.8867C9.61636 31.1136 9.35151 31.2459 9.07129 31.2413H4.81183C4.49188 31.2413 4.15918 31.5249 4.15918 31.8447V42.5031C4.18912 42.8467 4.46746 43.1157 4.81183 43.134H5.60951V34.7453Z" fill="#138CCC"></path>
<path d="M35.341 16.0173C32.3596 16.0194 29.6359 14.3272 28.317 11.6534C26.9981 8.97951 27.313 5.78852 29.1292 3.42407C26.7115 5.27439 25.586 8.35862 26.2437 11.3312C26.9014 14.3037 29.2229 16.6253 32.1955 17.283C35.168 17.9407 38.2523 16.8153 40.1026 14.3977C38.7381 15.4491 37.0636 16.0187 35.341 16.0173Z" fill="#138CCC"></path>
<path d="M4.81198 44.8744H7.17892C8.38863 47.1949 10.2507 49.3053 12.5712 51.0587V56.9077C12.5712 58.1872 13.6846 59.2326 14.9643 59.2326H20.7656C22.0452 59.2326 23.0136 58.1872 23.0136 56.9077V55.5314C23.0431 54.3829 23.968 53.4593 25.1166 53.4313H33.4951C34.6147 53.4313 35.4865 54.4117 35.4865 55.5314V56.9077C35.506 58.197 36.5565 59.2321 37.8459 59.2326H43.6472C44.2589 59.2294 44.8439 58.982 45.2723 58.5455C45.7007 58.1089 45.937 57.5193 45.9287 56.9077V50.0477C49.4095 47.0903 51.4089 43.4241 51.7251 39.3631H52.3488C52.8864 39.3889 53.3127 39.8258 53.3254 40.3639V41.2581C53.3254 42.7359 54.4915 44.0042 55.9693 44.0042H58.6191C59.0997 44.0042 59.4893 43.6146 59.4893 43.134C59.4893 42.6534 59.0997 42.2638 58.6191 42.2638H55.9693C55.4511 42.2638 55.0658 41.7762 55.0658 41.2579V40.3639C55.0521 38.8652 53.8476 37.65 52.3492 37.6228H51.7482C51.2932 28.1956 43.4498 20.628 33.8784 20.628C33.3234 20.6251 29.0859 20.6187 27.486 20.6333C25.4786 17.2571 21.8507 15.1777 17.9229 15.152C17.6404 15.1528 17.3757 15.2904 17.2127 15.5212C17.0497 15.752 17.0085 16.0474 17.1022 16.314L17.3015 16.8806C17.997 18.8469 17.9778 20.9953 17.2472 22.9488C13.6507 24.5137 10.6858 26.7453 8.62939 29.5009H4.81198C3.53251 29.5009 2.41895 30.5652 2.41895 31.8447V42.5031C2.45035 43.8079 3.50692 44.8549 4.81198 44.8744ZM4.15934 31.8447C4.15934 31.5249 4.4919 31.2413 4.81198 31.2413H9.07159C9.35179 31.2458 9.61658 31.1134 9.78109 30.8866C11.7173 28.16 14.6488 25.9265 18.2588 24.4154C18.4697 24.3283 18.6376 24.1615 18.726 23.9513C19.6505 21.7408 19.8019 19.2831 19.1557 16.9759C21.1754 17.2423 23.0499 18.1701 24.4867 19.6143C25.1767 20.2875 25.7545 21.0667 26.1981 21.9225C26.3546 22.2317 26.6799 22.4183 27.0258 22.3975C27.4158 22.3742 31.3319 22.3856 33.8735 22.3991C42.7435 22.4088 49.9507 29.561 50.0282 38.4307C49.9941 42.3283 48.0294 46.0689 44.5228 48.9746C44.3182 49.1379 44.1959 49.3829 44.1883 49.6445V56.9077C44.1971 57.0578 44.1443 57.2049 44.0422 57.3152C43.9401 57.4255 43.7975 57.4894 43.6472 57.4922H37.8459C37.517 57.4928 37.2451 57.2361 37.2268 56.9077V55.5314C37.2268 53.4522 35.5741 51.6909 33.4949 51.6909H25.1166C23.0073 51.7201 21.304 53.4221 21.2732 55.5314V56.9077C21.2732 57.2277 21.0854 57.4922 20.7656 57.4922H14.9643C14.6443 57.4922 14.3116 57.2277 14.3116 56.9077V50.6133C14.3253 50.3359 14.2007 50.0698 13.9789 49.9027C11.498 48.1539 9.6114 45.994 8.489 43.6082C8.3505 43.3108 8.04827 43.1244 7.72032 43.134H4.81198C4.46762 43.1157 4.18928 42.8466 4.15934 42.5031V31.8447Z" fill="#138CCC"></path>
<path d="M15.4559 37.1375C17.2973 37.1354 18.7895 35.6432 18.7916 33.8018C18.7916 33.3212 18.402 32.9316 17.9214 32.9316C17.4408 32.9316 17.0512 33.3212 17.0512 33.8018C17.0512 34.6829 16.337 35.3971 15.4559 35.3971C14.5748 35.3971 13.8605 34.6829 13.8605 33.8018C13.8605 33.3212 13.4709 32.9316 12.9903 32.9316C12.5097 32.9316 12.1201 33.3212 12.1201 33.8018C12.1222 35.6432 13.6144 37.1354 15.4559 37.1375Z" fill="#138CCC"></path>
<path d="M29.5401 28.0506H37.277C37.7576 28.0506 38.1472 27.661 38.1472 27.1804C38.1472 26.6998 37.7576 26.3102 37.277 26.3102H29.5401C29.0595 26.3102 28.6699 26.6998 28.6699 27.1804C28.6699 27.661 29.0595 28.0506 29.5401 28.0506Z" fill="#138CCC"></path>
<path d="M33.891 19.208C39.1776 19.208 43.4632 14.9224 43.4632 9.63581C43.4632 4.34926 39.1776 0.0636597 33.891 0.0636597C28.6044 0.0636597 24.3188 4.34926 24.3188 9.63581C24.3248 14.9199 28.6069 19.202 33.891 19.208ZM33.891 1.80405C38.2164 1.80405 41.7228 5.31045 41.7228 9.63581C41.7228 13.9612 38.2164 17.4676 33.891 17.4676C29.5656 17.4676 26.0592 13.9612 26.0592 9.63581C26.0641 5.31247 29.5677 1.80893 33.891 1.80405Z" fill="#138CCC"></path>
<path d="M33.9054 12.8122C33.9008 12.8122 33.8963 12.8115 33.8909 12.8115C33.8855 12.8115 33.8816 12.8115 33.8764 12.8122C33.2324 12.804 32.7144 12.2802 32.7135 11.6361C32.7135 11.1555 32.3239 10.7659 31.8433 10.7659C31.3627 10.7659 30.9731 11.1555 30.9731 11.6361C30.9748 12.9117 31.8037 14.0387 33.0207 14.4205V14.901C33.0207 15.3816 33.4103 15.7712 33.8909 15.7712C34.3715 15.7712 34.7611 15.3816 34.7611 14.901V14.4205C36.1368 13.9907 36.9924 12.6207 36.7749 11.196C36.5575 9.77128 35.3321 8.71891 33.8909 8.71909C33.4149 8.71909 32.9858 8.43236 32.8037 7.9926C32.6215 7.55285 32.7223 7.04667 33.0588 6.71013C33.3954 6.37358 33.9016 6.27293 34.3413 6.45512C34.7811 6.63731 35.0678 7.06646 35.0677 7.54244C35.0677 8.02304 35.4573 8.41264 35.9379 8.41264C36.4185 8.41264 36.8081 8.02304 36.8081 7.54244C36.8063 6.26721 35.9778 5.14039 34.7611 4.75839V4.37087C34.7611 3.89027 34.3715 3.50067 33.8909 3.50067C33.4103 3.50067 33.0207 3.89027 33.0207 4.37087V4.75839C31.6452 5.18834 30.7898 6.55825 31.0072 7.98287C31.2247 9.40749 32.4498 10.4599 33.8909 10.4599C34.5406 10.4559 35.0705 10.9793 35.0745 11.629C35.0785 12.2787 34.5551 12.8082 33.9054 12.8122Z" fill="#138CCC"></path>
</g>
<defs>
<clipPath id="clip0_1_69">
<rect width="60" height="60" fill="white" transform="translate(0.990234 0.0593262)"></rect>
</clipPath>
</defs>
</svg>
