<svg width="90" height="90" viewBox="0 0 90 90" fill="none" xmlns="http://www.w3.org/2000/svg">
<g clip-path="url('#clip0_1_129')">
<path d="M17.412 55.595C17.3554 55.5169 17.3429 55.4154 17.3797 55.3256L23.5295 39.3444C23.5788 39.2181 23.6039 39.0831 23.6046 38.9473C23.6105 36.6313 23.6281 32.8083 23.6532 32.4024C24.4944 17.2185 36.4232 4.93846 51.6875 3.54391C51.1369 3.49353 50.582 3.45556 50.0219 3.43585C49.757 3.42636 49.4913 3.42052 49.2234 3.41687C49.1078 3.41614 48.9901 3.41541 48.8738 3.41541C32.4563 3.41249 18.9002 16.1401 17.9994 32.4024C17.9751 32.8083 17.9574 36.6313 17.9515 38.9473C17.9515 39.0838 17.9258 39.2181 17.8772 39.3452L11.7273 55.3263C11.6927 55.4161 11.7052 55.5169 11.7597 55.5957C11.8149 55.6746 11.9054 55.7222 12.0018 55.7222H17.6542C17.557 55.7242 17.4658 55.676 17.412 55.595Z" fill="#138CCC"></path>
<path d="M49.3772 77.4653C48.7406 74.9361 46.448 73.1634 43.8205 73.1663H43.7955C42.1153 73.1736 40.2812 73.1816 38.6797 73.1896C41.1084 73.4021 43.1339 75.1186 43.7248 77.4653C43.7477 77.5544 43.7587 77.6464 43.7587 77.7384V87.2001H49.411V77.7391C49.411 77.6471 49.4 77.5551 49.3772 77.4653Z" fill="#138CCC"></path>
<path d="M30.0526 71.5455C28.8846 70.4291 28.2274 68.8885 28.234 67.2793V56.8428C28.234 56.2236 27.7276 55.7213 27.1035 55.7213H21.4512C22.0753 55.7213 22.5816 56.2236 22.5816 56.8428V67.2793C22.5809 68.8863 23.2367 70.4247 24.398 71.544C25.5594 72.664 27.1278 73.2693 28.747 73.2233C29.0627 73.2138 31.0889 73.2007 33.5426 73.189C32.2274 73.0429 30.9983 72.464 30.0526 71.5455Z" fill="#138CCC"></path>
<path d="M50.895 0.18139C50.6134 0.171083 50.3311 0.164458 50.0481 0.161513C32.4456 -0.0416662 17.8071 13.7797 16.8376 31.5167C16.804 32.074 16.7902 36.8501 16.7872 38.0339L10.7646 53.9533C10.4677 54.7388 10.572 55.6214 11.0447 56.3142C11.5175 57.0069 12.2973 57.4206 13.1311 57.4206H21.3757V66.8125C21.3757 69.0438 22.2715 71.1809 23.8581 72.7356C25.4448 74.2904 27.5873 75.1303 29.7983 75.0648C30.1696 75.053 33.4559 75.0332 39.0518 75.0096H39.0664C40.5947 75.0081 41.9406 76.0262 42.3666 77.5081V88.0286C42.3666 88.6528 42.8685 89.1593 43.4871 89.1593H71.8312C72.1405 89.1593 72.4352 89.0305 72.6467 88.8037C72.859 88.577 72.9684 88.2722 72.9502 87.9616C72.9385 87.7731 71.8479 68.8789 72.9473 56.9605C73.2464 53.7229 76.3051 45.9682 76.5808 45.2762C81.4669 35.8416 81.1934 24.5328 75.8579 15.3499C70.6013 6.22819 61.2697 0.558302 50.895 0.18139ZM74.5682 44.278C74.5514 44.3104 74.5361 44.3435 74.523 44.3766C74.3814 44.7292 71.0572 53.0471 70.7158 56.7507C69.7624 67.0856 70.4284 82.5155 70.6487 86.8971H44.6068V77.358C44.6068 77.2652 44.5959 77.1724 44.5733 77.0819C43.9423 74.5319 41.6699 72.7445 39.0657 72.7474H39.0409C35.0688 72.7643 30.2287 72.7879 29.7276 72.8041C28.1227 72.8512 26.5682 72.2402 25.417 71.1109C24.2659 69.9824 23.6159 68.4313 23.6167 66.811V56.2891C23.6167 55.6649 23.1148 55.1584 22.4962 55.1584H13.1303C13.0348 55.1584 12.9451 55.1113 12.8903 55.031C12.8364 54.9515 12.824 54.8499 12.8582 54.7594L18.9538 38.6464C19.002 38.519 19.0275 38.3828 19.0275 38.2459C19.0333 35.9108 19.0508 32.0563 19.0749 31.647C19.9678 15.2505 33.4042 2.41784 49.6768 2.42078C49.7913 2.42078 49.908 2.42078 50.0233 2.42299C50.2881 2.42593 50.5514 2.43182 50.8147 2.44139C55.6607 2.58715 60.3805 4.03002 64.4926 6.62203C77.0433 14.6197 81.4239 30.9918 74.5682 44.278Z" fill="#138CCC"></path>
<path d="M49.672 5.58618C37.6835 5.58545 27.9644 15.3046 27.9644 27.2931C27.9644 39.2816 37.6828 49.0008 49.672 49.0008C61.6605 49.0008 71.379 39.2824 71.379 27.2931C71.3658 15.3105 61.6554 5.59942 49.672 5.58618ZM61.487 42.7297V40.5031L64.0872 38.0374C64.3115 37.8242 64.4387 37.5278 64.4387 37.2182V35.0438C66.0013 34.4937 66.9397 32.8973 66.6602 31.2648C66.3808 29.6323 64.966 28.4381 63.3092 28.4381C61.6532 28.4381 60.2384 29.6323 59.9589 31.2648C59.6795 32.8973 60.6178 34.4937 62.1797 35.0438V36.7322L59.5802 39.1978C59.3552 39.4111 59.228 39.7074 59.228 40.0177V44.2262C57.9007 44.9792 56.4895 45.5719 55.0225 45.9925V37.205L58.8816 31.9126C59.0228 31.72 59.0986 31.4869 59.0986 31.2471V25.2922C60.6612 24.7422 61.5988 23.1457 61.3201 21.5132C61.0406 19.8808 59.6258 18.6873 57.9691 18.6873C56.313 18.6873 54.8975 19.8808 54.6188 21.5132C54.3393 23.1457 55.2777 24.7422 56.8396 25.2922V30.8795L52.9804 36.1711C52.84 36.3645 52.7635 36.5976 52.7635 36.8366V46.4947C51.845 46.6418 50.917 46.7227 49.986 46.7374V34.4334L52.1259 32.2935C52.3377 32.0818 52.4568 31.795 52.4568 31.495V16.6231C54.0187 16.0731 54.957 14.4766 54.6776 12.8441C54.3982 11.2116 52.9833 10.0182 51.3273 10.0182C49.6706 10.0182 48.2557 11.2116 47.9763 12.8441C47.6969 14.4766 48.6352 16.0731 50.1978 16.6231V31.0273L48.0579 33.1664C47.8462 33.3789 47.727 33.6657 47.727 33.9657V46.6455C47.3601 46.6087 46.9961 46.5624 46.6358 46.505V29.244C46.6358 28.9447 46.5166 28.6572 46.3041 28.4454L43.1936 25.3356V23.5656C44.7562 23.0156 45.6938 21.4191 45.4151 19.7866C45.1356 18.1541 43.7208 16.9607 42.0641 16.9607C40.408 16.9607 38.9932 18.1541 38.7138 19.7866C38.4343 21.4191 39.3727 23.0156 40.9346 23.5656V25.8026C40.9346 26.1019 41.0537 26.3894 41.2655 26.6012L44.3767 29.7117V46.0087C43.2009 45.6755 42.0604 45.2314 40.9691 44.6821V36.0909C40.9691 35.6306 40.6897 35.2159 40.2624 35.0438L37.1636 33.7929V31.3457C38.7255 30.7949 39.6639 29.1992 39.3844 27.5667C39.105 25.9342 37.6902 24.7407 36.0341 24.7407C34.3781 24.7407 32.9626 25.9342 32.6839 27.5667C32.4044 29.1992 33.3427 30.7949 34.9046 31.3457V34.5555C34.9046 35.0166 35.1841 35.4306 35.6113 35.6034L38.7101 36.8535V43.3503C31.7411 38.597 28.6306 29.8941 31.0073 21.8008C33.3847 13.7074 40.7081 8.06874 49.1396 7.83857C57.572 7.60914 65.191 12.8412 68.0052 20.7933C70.8194 28.7455 68.1868 37.605 61.487 42.7297ZM63.3092 32.9818C62.6797 32.9818 62.1694 32.4715 62.1694 31.8413C62.1694 31.2118 62.6797 30.7015 63.3099 30.7015C63.9394 30.7015 64.4497 31.2118 64.4497 31.8413C64.449 32.4708 63.9387 32.9811 63.3092 32.9818ZM57.9698 23.2303C57.3396 23.2303 56.8293 22.72 56.8293 22.0905C56.8293 21.4603 57.3396 20.95 57.9691 20.95C58.5993 20.95 59.1096 21.4603 59.1096 22.0898C59.1089 22.7192 58.5985 23.2296 57.9698 23.2303ZM51.3273 14.5612C50.6971 14.5612 50.1868 14.0509 50.1868 13.4214C50.1868 12.7912 50.6971 12.2809 51.3266 12.2809C51.9568 12.2809 52.4671 12.7912 52.4671 13.4214C52.4664 14.0509 51.9561 14.5605 51.3273 14.5612ZM42.0648 21.5037C41.4353 21.5044 40.925 20.9933 40.925 20.3639C40.9243 19.7344 41.4353 19.2233 42.0648 19.2233C42.6943 19.2233 43.2053 19.7337 43.2053 20.3639C43.2046 20.9933 42.695 21.5037 42.0648 21.5037ZM36.0349 29.283C35.4054 29.283 34.8951 28.7719 34.8951 28.1425C34.8951 27.513 35.4054 27.0019 36.0356 27.0019C36.6651 27.0027 37.1754 27.513 37.1754 28.1425C37.1747 28.7727 36.6651 29.2823 36.0349 29.283Z" fill="#138CCC"></path>
</g>
<defs>
<clipPath id="clip0_1_129">
<rect width="89" height="89" fill="white" transform="translate(0.830078 0.159302)"></rect>
</clipPath>
</defs>
</svg>
