<svg width="81" height="81" viewBox="0 0 81 81" fill="none" xmlns="http://www.w3.org/2000/svg">
<g clip-path="url('#clip0_1_141')">
<path d="M56.5851 42.0838L35.2622 33.2057C35.2426 33.1975 35.2239 33.1896 35.2064 33.1817C35.2236 33.1738 35.2426 33.1657 35.2622 33.1577L56.5851 24.2792C56.6576 24.2492 56.7345 24.2215 56.8142 24.1956C55.7553 23.8504 54.1154 23.878 53.1517 24.2792L31.8287 33.1577C31.8092 33.1657 31.7905 33.1738 31.7729 33.1817C31.7901 33.1896 31.8092 33.1975 31.8287 33.2057L53.1517 42.0838C54.1156 42.4852 55.7556 42.513 56.8142 42.1674C56.7345 42.1415 56.6576 42.1141 56.5851 42.0838Z" fill="#138CCC"></path>
<path d="M56.0896 54.9087C53.1325 52.2101 48.6639 48.1322 43.827 48.1322H43.6937V40.3775L40.2603 38.948V48.1325H40.3935C45.2304 48.1325 49.6991 52.2105 52.6561 54.909C53.4678 55.6496 54.4587 56.554 54.908 56.8098C55.2603 56.6047 55.9476 55.999 56.6179 55.3895C56.4383 55.2268 56.2601 55.0641 56.0896 54.9087Z" fill="#138CCC"></path>
<path d="M6.95556 77.7635H45.4105C48.2727 77.7597 50.7112 75.684 51.172 72.8592C53.9868 72.389 56.0505 69.9551 56.0543 67.1014V57.9512C56.0543 57.3823 55.5931 56.9212 55.0242 56.9212C54.4554 56.9212 53.9942 57.3823 53.9942 57.9512V67.1014C53.9918 69.1863 52.3023 70.8759 50.2174 70.8782H11.9341C9.8492 70.8759 8.15964 69.1863 8.15728 67.1014V7.61523C8.15964 5.53033 9.8492 3.84077 11.9341 3.83841H40.947V12.6436C40.9497 15.1076 42.9465 17.1043 45.4105 17.1071H53.9942V22.6252C53.9942 23.1941 54.4554 23.6552 55.0242 23.6552C55.5931 23.6552 56.0543 23.1941 56.0543 22.6252V16.077C56.0543 16.0426 56.0526 16.0083 56.0491 15.974C56.0471 15.9538 56.0435 15.934 56.0402 15.9141C56.0381 15.9011 56.0368 15.8878 56.0342 15.8748C56.0294 15.8508 56.023 15.8274 56.017 15.8039C56.0146 15.7953 56.0129 15.7867 56.0103 15.778C56.0031 15.7543 55.9945 15.7315 55.9858 15.7093C55.9827 15.7011 55.9799 15.6921 55.9767 15.6844C55.9679 15.6631 55.9578 15.6427 55.9475 15.6221C55.9429 15.6127 55.9387 15.6029 55.9338 15.5934C55.924 15.5751 55.9128 15.5574 55.902 15.5397C55.8953 15.5289 55.8893 15.5177 55.8823 15.5072C55.8718 15.4913 55.8599 15.4762 55.8479 15.4609C55.8393 15.4494 55.8308 15.4377 55.822 15.4266C55.8103 15.4123 55.7976 15.3989 55.7851 15.3852C55.7762 15.3752 55.7679 15.3648 55.7583 15.3551L42.7111 2.08647L42.7075 2.08321C42.6938 2.06931 42.679 2.0566 42.6646 2.04356C42.6541 2.03429 42.6441 2.02416 42.6333 2.01523C42.6086 1.99486 42.5829 1.97563 42.5563 1.95755L42.5535 1.95532C42.4125 1.85958 42.2498 1.80057 42.0802 1.78364C42.0459 1.78021 42.0115 1.77832 41.9772 1.77832H11.9343C8.94735 1.78205 6.44381 4.0372 6.12912 7.0075C3.25612 7.42201 1.12258 9.88209 1.11865 12.7848V71.9265C1.12225 75.1487 3.73339 77.7599 6.95556 77.7635ZM43.0071 12.6436V5.32493L52.5669 15.047H45.4105C44.0837 15.0456 43.0085 13.9703 43.0071 12.6436ZM3.17874 12.7848C3.18129 11.0307 4.38944 9.50841 6.09719 9.10759V67.1014C6.10079 70.3236 8.71196 72.9347 11.9341 72.9383H49.0484C48.5924 74.5711 47.1057 75.701 45.4105 75.7033H6.95556C4.87066 75.7009 3.1811 74.0114 3.17874 71.9265V12.7848Z" fill="#138CCC"></path>
<path d="M39.2305 21.9913H23.179C22.6101 21.9913 22.1489 22.4525 22.1489 23.0214C22.1489 23.5903 22.6101 24.0514 23.179 24.0514H39.2305C39.7993 24.0514 40.2605 23.5903 40.2605 23.0214C40.2605 22.4525 39.7993 21.9913 39.2305 21.9913Z" fill="#138CCC"></path>
<path d="M15.3294 24.0514H19.0282C19.5971 24.0514 20.0583 23.5903 20.0583 23.0214C20.0583 22.4525 19.5971 21.9913 19.0282 21.9913H15.3294C14.7605 21.9913 14.2993 22.4525 14.2993 23.0214C14.2993 23.5903 14.7605 24.0514 15.3294 24.0514Z" fill="#138CCC"></path>
<path d="M15.3294 35.1254H25.4964C26.0653 35.1254 26.5264 34.6642 26.5264 34.0954C26.5264 33.5265 26.0653 33.0653 25.4964 33.0653H15.3294C14.7605 33.0653 14.2993 33.5265 14.2993 34.0954C14.2993 34.6642 14.7605 35.1254 15.3294 35.1254Z" fill="#138CCC"></path>
<path d="M35.1101 45.1697C35.1101 44.6008 34.649 44.1396 34.0801 44.1396H22.7869C22.218 44.1396 21.7568 44.6008 21.7568 45.1697C21.7568 45.7386 22.218 46.1997 22.7869 46.1997H34.0801C34.649 46.1997 35.1101 45.7386 35.1101 45.1697Z" fill="#138CCC"></path>
<path d="M15.3294 46.1997H18.6617C19.2306 46.1997 19.6918 45.7386 19.6918 45.1697C19.6918 44.6008 19.2306 44.1396 18.6617 44.1396H15.3294C14.7605 44.1396 14.2993 44.6008 14.2993 45.1697C14.2993 45.7386 14.7605 46.1997 15.3294 46.1997Z" fill="#138CCC"></path>
<path d="M35.4905 57.274H39.2301C39.7989 57.274 40.2601 56.8128 40.2601 56.2439C40.2601 55.675 39.7989 55.2139 39.2301 55.2139H35.4905C34.9216 55.2139 34.4604 55.675 34.4604 56.2439C34.4604 56.8128 34.9216 57.274 35.4905 57.274Z" fill="#138CCC"></path>
<path d="M15.3294 57.274H31.1119C31.6807 57.274 32.1419 56.8128 32.1419 56.2439C32.1419 55.675 31.6807 55.2139 31.1119 55.2139H15.3294C14.7605 55.2139 14.2993 55.675 14.2993 56.2439C14.2993 56.8128 14.7605 57.274 15.3294 57.274Z" fill="#138CCC"></path>
<path d="M77.6853 48.9242V35.7206L79.1577 35.1076C80.55 34.5278 80.7577 33.6521 80.7577 33.1817C80.7577 32.7113 80.55 31.8355 79.1577 31.2559L57.8348 22.3774C56.2994 21.7383 53.8947 21.7383 52.3596 22.3774L31.0367 31.2559C29.6444 31.8355 29.4365 32.7112 29.4365 33.1817C29.4365 33.6523 29.6444 34.5278 31.0367 35.1076L38.2003 38.0902V49.1623C38.2003 49.7312 38.6615 50.1924 39.2303 50.1924H40.3936C44.4319 50.1924 48.5455 53.9464 51.2676 56.4305C53.1545 58.1524 54.0262 58.9137 54.9133 58.9137C55.7888 58.9137 56.6065 58.1965 58.5337 56.4291C61.2424 53.9455 65.3354 50.1924 69.2492 50.1924H70.475C71.0439 50.1924 71.505 49.7312 71.505 49.1623V38.2945L75.6252 36.5791V48.8212C73.422 49.2344 71.8764 51.2307 72.0281 53.4672C72.1798 55.7037 73.9808 57.4729 76.2196 57.5849C78.4584 57.6968 80.4269 56.116 80.801 53.9058C81.175 51.6956 79.8363 49.5552 77.6853 48.9242ZM31.7728 33.1817C31.79 33.1738 31.8091 33.1658 31.8286 33.1577L53.1515 24.2792C54.1876 23.8478 56.0061 23.8476 57.0429 24.2792L78.3658 33.1577C78.3854 33.1658 78.4039 33.1738 78.4216 33.1817C78.4044 33.1896 78.3854 33.1975 78.3658 33.2058L57.043 42.0839C56.0067 42.5153 54.1879 42.5153 53.1515 42.0839L31.8286 33.2058C31.8091 33.1975 31.7903 33.1896 31.7728 33.1817ZM69.4449 48.1323H69.2492C64.5339 48.1323 60.0853 52.2114 57.1414 54.9108C56.3366 55.649 55.3538 56.55 54.9081 56.8095C54.4588 56.5537 53.4679 55.6494 52.6563 54.9088C49.6992 52.2102 45.2305 48.1323 40.3936 48.1323H40.2604V38.9477L52.3598 43.9853C54.1288 44.6244 56.0657 44.6244 57.8348 43.9853L69.4449 39.1513V48.1323ZM76.4394 55.5541C75.1628 55.5479 74.1197 54.5333 74.0781 53.2573C74.0365 51.9814 75.0114 50.901 76.2849 50.8118C76.4818 50.8892 76.698 50.9027 76.903 50.8504C78.0951 51.0947 78.91 52.2001 78.7906 53.4112C78.6713 54.6222 77.6563 55.5472 76.4394 55.5541Z" fill="#138CCC"></path>
</g>
<defs>
<clipPath id="clip0_1_141">
<rect width="80" height="80" fill="white" transform="translate(0.990234 0.159302)"></rect>
</clipPath>
</defs>
</svg>
