<svg width="449" height="37" viewBox="0 0 449 37" fill="none" xmlns="http://www.w3.org/2000/svg">
<g clip-path="url('#clip0_1_202')">
<path d="M203.273 28.702H223.754V27.624H203.273V28.702Z" fill="#D3E6FA"></path>
<path d="M201.835 31.5767H222.316V30.1394H201.835V31.5767Z" fill="#D3E6FA"></path>
<path d="M232.018 23.6715H247.468V3.54883H232.018V23.6715Z" fill="#FDE5A4"></path>
<path d="M242.833 4.66961H232.106C231.957 4.66961 231.837 4.54996 231.837 4.40268C231.837 4.25539 231.957 4.13574 232.106 4.13574H242.833C242.981 4.13574 243.101 4.25539 243.101 4.40268C243.101 4.54996 242.981 4.66961 242.833 4.66961Z" fill="white"></path>
<path d="M242.833 7.22137H232.106C231.957 7.22137 231.837 7.10172 231.837 6.95443C231.837 6.80715 231.957 6.6875 232.106 6.6875H242.833C242.981 6.6875 243.101 6.80715 243.101 6.95443C243.101 7.10172 242.981 7.22137 242.833 7.22137Z" fill="white"></path>
<path d="M242.833 9.77288H232.106C231.957 9.77288 231.837 9.65323 231.837 9.50595C231.837 9.35866 231.957 9.23901 232.106 9.23901H242.833C242.981 9.23901 243.101 9.35866 243.101 9.50595C243.101 9.65323 242.981 9.77288 242.833 9.77288Z" fill="white"></path>
<path d="M242.833 12.3246H232.106C231.957 12.3246 231.837 12.205 231.837 12.0577C231.837 11.9104 231.957 11.7908 232.106 11.7908H242.833C242.981 11.7908 243.101 11.9104 243.101 12.0577C243.101 12.205 242.981 12.3246 242.833 12.3246Z" fill="white"></path>
<path d="M207.822 26.3664H235.997V8.27905H207.822V26.3664Z" fill="white"></path>
<path d="M208.09 26.0995H235.729V8.546H208.09V26.0995ZM235.997 26.6334H207.821C207.673 26.6334 207.553 26.5141 207.553 26.3665V8.27938C207.553 8.13179 207.673 8.01245 207.821 8.01245H235.997C236.145 8.01245 236.265 8.13179 236.265 8.27938V26.3665C236.265 26.5141 236.145 26.6334 235.997 26.6334Z" fill="#7692C4"></path>
<path d="M235.997 26.3486V26.3665H207.822V26.3486L203.504 35.4677H211.994H231.825H239.405L235.997 26.3486Z" fill="white"></path>
<path d="M203.927 35.2007H239.019L235.818 26.6334H207.983L203.927 35.2007ZM239.405 35.7345H203.505C203.413 35.7345 203.327 35.6878 203.278 35.6105C203.229 35.5336 203.223 35.4365 203.262 35.3539L207.579 26.2349C207.632 26.1218 207.757 26.0609 207.88 26.0879C207.893 26.091 207.906 26.0948 207.919 26.0995H235.929C235.936 26.0976 235.943 26.0961 235.95 26.0948C236.078 26.0728 236.204 26.1347 236.249 26.2556L239.657 35.3747C239.688 35.4566 239.676 35.548 239.626 35.6199C239.576 35.6918 239.493 35.7345 239.405 35.7345Z" fill="#7692C4"></path>
<path d="M210.975 28.0143C210.422 28.0143 209.972 28.4622 209.972 29.0127C209.972 29.5632 210.422 30.011 210.975 30.011C211.529 30.011 211.979 29.5632 211.979 29.0127C211.979 28.4622 211.529 28.0143 210.975 28.0143ZM210.975 30.5449C210.126 30.5449 209.436 29.8574 209.436 29.0127C209.436 28.1679 210.126 27.4805 210.975 27.4805C211.825 27.4805 212.516 28.1679 212.516 29.0127C212.516 29.8574 211.825 30.5449 210.975 30.5449Z" fill="#C9D5E9"></path>
<path d="M215.447 28.0143C214.894 28.0143 214.444 28.4622 214.444 29.0127C214.444 29.5632 214.894 30.011 215.447 30.011C216.001 30.011 216.451 29.5632 216.451 29.0127C216.451 28.4622 216.001 28.0143 215.447 28.0143ZM215.447 30.5449C214.598 30.5449 213.907 29.8574 213.907 29.0127C213.907 28.1679 214.598 27.4805 215.447 27.4805C216.296 27.4805 216.988 28.1679 216.988 29.0127C216.988 29.8574 216.296 30.5449 215.447 30.5449Z" fill="#C9D5E9"></path>
<path d="M219.919 28.0143C219.366 28.0143 218.916 28.4622 218.916 29.0127C218.916 29.5632 219.366 30.011 219.919 30.011C220.473 30.011 220.923 29.5632 220.923 29.0127C220.923 28.4622 220.473 28.0143 219.919 28.0143ZM219.919 30.5449C219.07 30.5449 218.379 29.8574 218.379 29.0127C218.379 28.1679 219.07 27.4805 219.919 27.4805C220.769 27.4805 221.459 28.1679 221.459 29.0127C221.459 29.8574 220.769 30.5449 219.919 30.5449Z" fill="#C9D5E9"></path>
<path d="M224.391 28.0143C223.838 28.0143 223.388 28.4622 223.388 29.0127C223.388 29.5632 223.838 30.011 224.391 30.011C224.945 30.011 225.395 29.5632 225.395 29.0127C225.395 28.4622 224.945 28.0143 224.391 28.0143ZM224.391 30.5449C223.542 30.5449 222.852 29.8574 222.852 29.0127C222.852 28.1679 223.542 27.4805 224.391 27.4805C225.241 27.4805 225.932 28.1679 225.932 29.0127C225.932 29.8574 225.241 30.5449 224.391 30.5449Z" fill="#C9D5E9"></path>
<path d="M228.864 28.0143C228.31 28.0143 227.86 28.4622 227.86 29.0127C227.86 29.5632 228.31 30.011 228.864 30.011C229.417 30.011 229.867 29.5632 229.867 29.0127C229.867 28.4622 229.417 28.0143 228.864 28.0143ZM228.864 30.5449C228.015 30.5449 227.324 29.8574 227.324 29.0127C227.324 28.1679 228.015 27.4805 228.864 27.4805C229.713 27.4805 230.403 28.1679 230.403 29.0127C230.403 29.8574 229.713 30.5449 228.864 30.5449Z" fill="#C9D5E9"></path>
<path d="M233.236 28.0143C232.682 28.0143 232.232 28.4622 232.232 29.0127C232.232 29.5632 232.682 30.011 233.236 30.011C233.789 30.011 234.24 29.5632 234.24 29.0127C234.24 28.4622 233.789 28.0143 233.236 28.0143ZM233.236 30.5449C232.387 30.5449 231.696 29.8574 231.696 29.0127C231.696 28.1679 232.387 27.4805 233.236 27.4805C234.085 27.4805 234.776 28.1679 234.776 29.0127C234.776 29.8574 234.085 30.5449 233.236 30.5449Z" fill="#C9D5E9"></path>
<path d="M208.094 31.9201C207.541 31.9201 207.09 32.3679 207.09 32.9187C207.09 33.4693 207.541 33.9168 208.094 33.9168C208.647 33.9168 209.097 33.4693 209.097 32.9187C209.097 32.3679 208.647 31.9201 208.094 31.9201ZM208.094 34.4509C207.245 34.4509 206.554 33.7635 206.554 32.9187C206.554 32.0737 207.245 31.3862 208.094 31.3862C208.943 31.3862 209.634 32.0737 209.634 32.9187C209.634 33.7635 208.943 34.4509 208.094 34.4509Z" fill="#C9D5E9"></path>
<path d="M212.566 31.9201C212.012 31.9201 211.562 32.3679 211.562 32.9187C211.562 33.4693 212.012 33.9168 212.566 33.9168C213.119 33.9168 213.569 33.4693 213.569 32.9187C213.569 32.3679 213.119 31.9201 212.566 31.9201ZM212.566 34.4509C211.717 34.4509 211.025 33.7635 211.025 32.9187C211.025 32.0737 211.717 31.3862 212.566 31.3862C213.415 31.3862 214.106 32.0737 214.106 32.9187C214.106 33.7635 213.415 34.4509 212.566 34.4509Z" fill="#C9D5E9"></path>
<path d="M217.037 31.9201C216.484 31.9201 216.034 32.3679 216.034 32.9187C216.034 33.4693 216.484 33.9168 217.037 33.9168C217.59 33.9168 218.041 33.4693 218.041 32.9187C218.041 32.3679 217.59 31.9201 217.037 31.9201ZM217.037 34.4509C216.188 34.4509 215.498 33.7635 215.498 32.9187C215.498 32.0737 216.188 31.3862 217.037 31.3862C217.886 31.3862 218.577 32.0737 218.577 32.9187C218.577 33.7635 217.886 34.4509 217.037 34.4509Z" fill="#C9D5E9"></path>
<path d="M221.509 31.9201C220.956 31.9201 220.506 32.3679 220.506 32.9187C220.506 33.4693 220.956 33.9168 221.509 33.9168C222.063 33.9168 222.513 33.4693 222.513 32.9187C222.513 32.3679 222.063 31.9201 221.509 31.9201ZM221.509 34.4509C220.66 34.4509 219.97 33.7635 219.97 32.9187C219.97 32.0737 220.66 31.3862 221.509 31.3862C222.359 31.3862 223.049 32.0737 223.049 32.9187C223.049 33.7635 222.359 34.4509 221.509 34.4509Z" fill="#C9D5E9"></path>
<path d="M225.982 31.9201C225.428 31.9201 224.978 32.3679 224.978 32.9187C224.978 33.4693 225.428 33.9168 225.982 33.9168C226.535 33.9168 226.985 33.4693 226.985 32.9187C226.985 32.3679 226.535 31.9201 225.982 31.9201ZM225.982 34.4509C225.133 34.4509 224.442 33.7635 224.442 32.9187C224.442 32.0737 225.133 31.3862 225.982 31.3862C226.831 31.3862 227.522 32.0737 227.522 32.9187C227.522 33.7635 226.831 34.4509 225.982 34.4509Z" fill="#C9D5E9"></path>
<path d="M230.453 31.9201C229.9 31.9201 229.45 32.3679 229.45 32.9187C229.45 33.4693 229.9 33.9168 230.453 33.9168C231.006 33.9168 231.456 33.4693 231.456 32.9187C231.456 32.3679 231.006 31.9201 230.453 31.9201ZM230.453 34.4509C229.604 34.4509 228.914 33.7635 228.914 32.9187C228.914 32.0737 229.604 31.3862 230.453 31.3862C231.302 31.3862 231.993 32.0737 231.993 32.9187C231.993 33.7635 231.302 34.4509 230.453 34.4509Z" fill="#C9D5E9"></path>
<path d="M234.925 31.9201C234.372 31.9201 233.921 32.3679 233.921 32.9187C233.921 33.4693 234.372 33.9168 234.925 33.9168C235.478 33.9168 235.929 33.4693 235.929 32.9187C235.929 32.3679 235.478 31.9201 234.925 31.9201ZM234.925 34.4509C234.076 34.4509 233.385 33.7635 233.385 32.9187C233.385 32.0737 234.076 31.3862 234.925 31.3862C235.774 31.3862 236.465 32.0737 236.465 32.9187C236.465 33.7635 235.774 34.4509 234.925 34.4509Z" fill="#C9D5E9"></path>
<path d="M239.572 37.1465H203.473C203.325 37.1465 203.205 37.0269 203.205 36.8796V35.3009C203.205 35.1533 203.325 35.0337 203.473 35.0337C203.621 35.0337 203.741 35.1533 203.741 35.3009V36.6127H239.304V35.3009C239.304 35.1533 239.424 35.0337 239.572 35.0337C239.72 35.0337 239.841 35.1533 239.841 35.3009V36.8796C239.841 37.0269 239.72 37.1465 239.572 37.1465Z" fill="#7692C4"></path>
<path d="M239.736 23.8776C239.281 23.8776 238.912 24.2454 238.912 24.6973C238.912 25.1488 239.281 25.5163 239.736 25.5163C240.189 25.5163 240.559 25.1488 240.559 24.6973C240.559 24.2454 240.189 23.8776 239.736 23.8776ZM239.736 26.0501C238.985 26.0501 238.375 25.4431 238.375 24.6973C238.375 23.9508 238.985 23.3438 239.736 23.3438C240.485 23.3438 241.095 23.9508 241.095 24.6973C241.095 25.4431 240.485 26.0501 239.736 26.0501Z" fill="#99A9C6"></path>
<path d="M204.253 11.4626C203.927 11.4626 203.663 11.7257 203.663 12.0492C203.663 12.3723 203.927 12.6355 204.253 12.6355C204.578 12.6355 204.842 12.3723 204.842 12.0492C204.842 11.7257 204.578 11.4626 204.253 11.4626ZM204.253 13.1697C203.632 13.1697 203.126 12.6669 203.126 12.0492C203.126 11.4312 203.632 10.9287 204.253 10.9287C204.874 10.9287 205.379 11.4312 205.379 12.0492C205.379 12.6669 204.874 13.1697 204.253 13.1697Z" fill="#99A9C6"></path>
<path d="M210.808 23.8309H225.625V13.511H210.808V23.8309Z" fill="#FDE5A4"></path>
<path d="M222.661 18.7097H233.735V9.71655H222.661V18.7097Z" fill="#D3E6FA"></path>
<path d="M212.133 17.2355H222.818V15.2957H212.133V17.2355Z" fill="white"></path>
<path d="M223.012 11.7954H232.936V11.2603H223.012V11.7954Z" fill="white"></path>
<path d="M223.012 13.0261H232.936V12.491H223.012V13.0261Z" fill="white"></path>
<path d="M227.261 11.733C227.261 8.94656 224.992 6.68799 222.191 6.68799C219.39 6.68799 217.121 8.94656 217.121 11.733C217.121 13.3736 217.911 14.8272 219.131 15.7486C219.578 16.2998 220.088 17.1364 220.088 18.0879V18.852H224.295V18.0879C224.295 17.1364 224.804 16.2998 225.251 15.7486C226.47 14.8272 227.261 13.3736 227.261 11.733Z" fill="#FFC221"></path>
<path d="M220.356 18.5851H224.026V18.088C224.026 17.0517 224.579 16.1526 225.042 15.581C225.056 15.5641 225.071 15.5493 225.089 15.5361C226.298 14.622 226.992 13.2358 226.992 11.7331C226.992 9.09864 224.838 6.95501 222.191 6.95501C219.543 6.95501 217.389 9.09864 217.389 11.7331C217.389 13.2358 218.083 14.622 219.293 15.5361C219.31 15.5493 219.326 15.5641 219.339 15.581C219.803 16.1523 220.356 17.051 220.356 18.088V18.5851ZM224.294 19.119H220.088C219.94 19.119 219.819 18.9993 219.819 18.8521V18.088C219.819 17.2213 219.347 16.4462 218.942 15.9412C217.614 14.925 216.853 13.3931 216.853 11.7331C216.853 8.80407 219.247 6.42114 222.191 6.42114C225.135 6.42114 227.529 8.80407 227.529 11.7331C227.529 13.3931 226.768 14.925 225.44 15.9412C225.035 16.4465 224.563 17.2216 224.563 18.088V18.8521C224.563 18.9993 224.442 19.119 224.294 19.119Z" fill="#0071DC"></path>
<path d="M222.052 13.2881C221.964 13.2881 221.882 13.2451 221.832 13.1732L221.155 12.2015L220.477 13.1735C220.427 13.2451 220.344 13.2881 220.257 13.2881C220.169 13.2881 220.086 13.2451 220.036 13.1732L219.139 11.8853C219.054 11.7641 219.085 11.5976 219.206 11.5138C219.328 11.4299 219.495 11.4598 219.58 11.581L220.257 12.553L220.935 11.5807C220.985 11.5091 221.068 11.4661 221.155 11.4661C221.243 11.4661 221.326 11.5091 221.376 11.581L222.053 12.553L222.731 11.5807C222.782 11.5091 222.864 11.4661 222.951 11.4661C223.04 11.4661 223.122 11.5088 223.172 11.5807L223.852 12.5539L224.533 11.5807C224.617 11.4598 224.784 11.4296 224.906 11.5141C225.028 11.5983 225.058 11.7644 224.973 11.8856L224.073 13.1735C223.972 13.317 223.732 13.317 223.632 13.1735L222.952 12.2009L222.273 13.1735C222.222 13.2454 222.14 13.2881 222.052 13.2881Z" fill="white"></path>
<path d="M222.191 5.11288C222.043 5.11288 221.923 4.99323 221.923 4.84594V2.45517C221.923 2.30788 222.043 2.18823 222.191 2.18823C222.339 2.18823 222.459 2.30788 222.459 2.45517V4.84594C222.459 4.99323 222.339 5.11288 222.191 5.11288Z" fill="#0071DC"></path>
<path d="M216.087 10.5744H213.684C213.536 10.5744 213.416 10.4547 213.416 10.3075C213.416 10.1602 213.536 10.0405 213.684 10.0405H216.087C216.235 10.0405 216.355 10.1602 216.355 10.3075C216.355 10.4547 216.235 10.5744 216.087 10.5744Z" fill="#0071DC"></path>
<path d="M217.902 6.40353C217.834 6.40353 217.765 6.37746 217.713 6.32533L216.013 4.63486C215.908 4.5306 215.908 4.36165 216.013 4.25739C216.118 4.15281 216.287 4.15281 216.393 4.25739L218.092 5.94786C218.197 6.05212 218.197 6.22107 218.092 6.32533C218.04 6.37746 217.971 6.40353 217.902 6.40353Z" fill="#0071DC"></path>
<path d="M230.672 10.5744H228.269C228.121 10.5744 228 10.4547 228 10.3075C228 10.1602 228.121 10.0405 228.269 10.0405H230.672C230.82 10.0405 230.94 10.1602 230.94 10.3075C230.94 10.4547 230.82 10.5744 230.672 10.5744Z" fill="#0071DC"></path>
<path d="M226.453 6.40353C226.385 6.40353 226.316 6.37746 226.264 6.32533C226.159 6.22107 226.159 6.05212 226.264 5.94786L227.963 4.25739C228.067 4.15281 228.237 4.15281 228.342 4.25739C228.447 4.36165 228.447 4.5306 228.342 4.63486L226.643 6.32533C226.591 6.37746 226.522 6.40353 226.453 6.40353Z" fill="#0071DC"></path>
<path d="M220.915 21.9686H223.458C223.969 21.5776 224.305 20.9652 224.305 20.2724V18.7874H220.068V20.2724C220.068 20.9652 220.405 21.5776 220.915 21.9686Z" fill="white"></path>
<path d="M221.01 21.7017H223.364C223.793 21.3418 224.037 20.8256 224.037 20.2725V19.0544H220.337V20.2725C220.337 20.8256 220.581 21.3418 221.01 21.7017ZM223.459 22.2356H220.915C220.856 22.2356 220.799 22.2161 220.752 22.18C220.147 21.7168 219.8 21.0215 219.8 20.2725V18.7874C219.8 18.6402 219.921 18.5205 220.069 18.5205H224.306C224.454 18.5205 224.574 18.6402 224.574 18.7874V20.2725C224.574 21.0218 224.227 21.7171 223.622 22.1803C223.575 22.2161 223.518 22.2356 223.459 22.2356Z" fill="#0071DC"></path>
<path d="M223.051 20.1406H220.166C220.018 20.1406 219.897 20.0209 219.897 19.8736C219.897 19.7263 220.018 19.6067 220.166 19.6067H223.051C223.199 19.6067 223.32 19.7263 223.32 19.8736C223.32 20.0209 223.199 20.1406 223.051 20.1406Z" fill="#0071DC"></path>
<path d="M224.026 21.0717H221.218C221.07 21.0717 220.95 20.9521 220.95 20.8048C220.95 20.6575 221.07 20.5378 221.218 20.5378H224.026C224.174 20.5378 224.294 20.6575 224.294 20.8048C224.294 20.9521 224.174 21.0717 224.026 21.0717Z" fill="#0071DC"></path>
<path d="M208.318 2.45752H201.76V4.79931V6.97403C201.76 8.26724 202.946 9.31581 204.408 9.31581H207.525L209.776 11.3065V9.31581H210.966V6.97403V4.79931C210.966 3.5061 209.78 2.45752 208.318 2.45752Z" fill="#0071DC"></path>
<path d="M208.63 5.46038H204.107C203.959 5.46038 203.838 5.34073 203.838 5.19345C203.838 5.04616 203.959 4.92651 204.107 4.92651H208.63C208.778 4.92651 208.898 5.04616 208.898 5.19345C208.898 5.34073 208.778 5.46038 208.63 5.46038Z" fill="white"></path>
<path d="M208.63 7.01922H204.107C203.959 7.01922 203.838 6.89957 203.838 6.75228C203.838 6.605 203.959 6.48535 204.107 6.48535H208.63C208.778 6.48535 208.898 6.605 208.898 6.75228C208.898 6.89957 208.778 7.01922 208.63 7.01922Z" fill="white"></path>
<path d="M245.784 28.1955H239.561C239.413 28.1955 239.292 28.0758 239.292 27.9286C239.292 27.7813 239.413 27.6616 239.561 27.6616H245.784C245.932 27.6616 246.052 27.7813 246.052 27.9286C246.052 28.0758 245.932 28.1955 245.784 28.1955Z" fill="#99A9C6"></path>
<path d="M242.278 33.0588H241.668C241.52 33.0588 241.4 32.9391 241.4 32.7918C241.4 32.6446 241.52 32.5249 241.668 32.5249H242.278C242.426 32.5249 242.546 32.6446 242.546 32.7918C242.546 32.9391 242.426 33.0588 242.278 33.0588Z" fill="#99A9C6"></path>
<path d="M244.614 33.0588H244.005C243.857 33.0588 243.736 32.9391 243.736 32.7918C243.736 32.6446 243.857 32.5249 244.005 32.5249H244.614C244.762 32.5249 244.882 32.6446 244.882 32.7918C244.882 32.9391 244.762 33.0588 244.614 33.0588Z" fill="#99A9C6"></path>
<path d="M243.141 32.1998C242.993 32.1998 242.873 32.0802 242.873 31.9329V31.3265C242.873 31.1792 242.993 31.0596 243.141 31.0596C243.289 31.0596 243.409 31.1792 243.409 31.3265V31.9329C243.409 32.0802 243.289 32.1998 243.141 32.1998Z" fill="#99A9C6"></path>
<path d="M243.141 34.5238C242.993 34.5238 242.873 34.4042 242.873 34.2569V33.6505C242.873 33.5032 242.993 33.3835 243.141 33.3835C243.289 33.3835 243.409 33.5032 243.409 33.6505V34.2569C243.409 34.4042 243.289 34.5238 243.141 34.5238Z" fill="#99A9C6"></path>
<path d="M211.558 2.07342H210.948C210.8 2.07342 210.68 1.95377 210.68 1.80648C210.68 1.6592 210.8 1.53955 210.948 1.53955H211.558C211.706 1.53955 211.826 1.6592 211.826 1.80648C211.826 1.95377 211.706 2.07342 211.558 2.07342Z" fill="#99A9C6"></path>
<path d="M213.894 2.07342H213.285C213.137 2.07342 213.017 1.95377 213.017 1.80648C213.017 1.6592 213.137 1.53955 213.285 1.53955H213.894C214.042 1.53955 214.163 1.6592 214.163 1.80648C214.163 1.95377 214.042 2.07342 213.894 2.07342Z" fill="#99A9C6"></path>
<path d="M212.422 1.21449C212.274 1.21449 212.153 1.09485 212.153 0.947561V0.341152C212.153 0.193868 212.274 0.0742188 212.422 0.0742188C212.57 0.0742188 212.69 0.193868 212.69 0.341152V0.947561C212.69 1.09485 212.57 1.21449 212.422 1.21449Z" fill="#99A9C6"></path>
<path d="M212.422 3.53871C212.274 3.53871 212.153 3.41906 212.153 3.27178V2.66537C212.153 2.51809 212.274 2.39844 212.422 2.39844C212.57 2.39844 212.69 2.51809 212.69 2.66537V3.27178C212.69 3.41906 212.57 3.53871 212.422 3.53871Z" fill="#99A9C6"></path>
</g>
<defs>
<clipPath id="clip0_1_202">
<rect width="448" height="37" fill="white" transform="translate(0.5 -0.000488281)"></rect>
</clipPath>
</defs>
</svg>
